<svg width="25" height="22" viewBox="0 0 25 22" fill="none" xmlns="http://www.w3.org/2000/svg">
<path d="M14.6104 4.96387C15.1167 4.34961 15.4736 3.51123 15.4736 2.66455C15.4736 2.54834 15.4653 2.43213 15.4487 2.34082C14.6187 2.37402 13.6226 2.88867 13.0332 3.58594C12.5601 4.11719 12.1284 4.96387 12.1284 5.81055C12.1284 5.94336 12.1533 6.06787 12.1616 6.10938C12.2114 6.11768 12.2944 6.13428 12.3857 6.13428C13.1245 6.13428 14.0542 5.63623 14.6104 4.96387ZM15.1914 6.30859C13.9546 6.30859 12.9419 7.06396 12.2944 7.06396C11.6055 7.06396 10.709 6.3584 9.62988 6.3584C7.57959 6.3584 5.50439 8.05176 5.50439 11.2393C5.50439 13.2314 6.26807 15.3315 7.22266 16.6846C8.03613 17.8301 8.75 18.7681 9.7793 18.7681C10.792 18.7681 11.2402 18.0957 12.502 18.0957C13.7803 18.0957 14.0708 18.7515 15.1914 18.7515C16.3037 18.7515 17.0425 17.7305 17.748 16.7261C18.5283 15.5723 18.8604 14.4517 18.8687 14.3936C18.8022 14.377 16.6772 13.5054 16.6772 11.0732C16.6772 8.96484 18.3457 8.01855 18.4453 7.94385C17.3413 6.3584 15.6562 6.30859 15.1914 6.30859Z" fill="#48484A"/>
</svg>
