<svg width="245" height="250" viewBox="0 0 245 250" fill="none" xmlns="http://www.w3.org/2000/svg">
<path d="M179.813 81.4845H134.943C134.943 81.4845 137.173 78.5576 139.626 78.218C139.626 78.218 144.409 63.9815 152.417 63.8761C159.863 63.7825 162.848 72.6569 162.848 72.6569C162.848 72.6569 166.296 68.688 169.592 70.5027C172.888 72.3174 174.755 77.5273 174.755 77.5273C174.755 77.5273 178.466 79.4883 179.813 81.4845Z" fill="#EBEBEB"/>
<path d="M57.5242 96.1022H90.5399C90.5399 96.1022 88.9008 93.9656 87.092 93.6963C87.092 93.6963 83.5797 83.2238 77.6849 83.1594C72.2115 83.0891 70.0163 89.5986 70.0163 89.5986C70.0163 89.5986 67.4816 86.6717 65.0581 88.0122C62.6346 89.3528 61.259 93.1695 61.259 93.1695C61.259 93.1695 58.5369 94.6329 57.5242 96.1022Z" fill="#EBEBEB"/>
<path d="M164.292 121.017H167.278V117.294H164.292V121.017Z" fill="#C7C7CC"/>
<path d="M84.6932 108.869H62.6945V211.604H84.6932V108.869Z" fill="#EBEBEB"/>
<path d="M84.6928 106.621H62.1672V108.869H84.6928V106.621Z" fill="#C7C7CC"/>
<path d="M66.9149 112.182H64.6845V211.604H66.9149V112.182Z" fill="#F2F2F7"/>
<path d="M70.8586 112.182H68.6283V211.604H70.8586V112.182Z" fill="#F2F2F7"/>
<path d="M74.8103 112.182H72.58V211.604H74.8103V112.182Z" fill="#F2F2F7"/>
<path d="M78.7556 112.182H76.5253V211.604H78.7556V112.182Z" fill="#F2F2F7"/>
<path d="M82.7073 112.182H80.477V211.604H82.7073V112.182Z" fill="#F2F2F7"/>
<path d="M66.9149 115.027H64.6845V119.464H66.9149V115.027Z" fill="#EBEBEB"/>
<path d="M70.8586 115.027H68.6283V119.464H70.8586V115.027Z" fill="#EBEBEB"/>
<path d="M74.8103 115.027H72.58V119.464H74.8103V115.027Z" fill="#EBEBEB"/>
<path d="M78.7556 115.027H76.5253V119.464H78.7556V115.027Z" fill="#EBEBEB"/>
<path d="M82.7073 115.027H80.477V119.464H82.7073V115.027Z" fill="#EBEBEB"/>
<path d="M66.9149 122.245H64.6845V126.688H66.9149V122.245Z" fill="#EBEBEB"/>
<path d="M70.8586 122.245H68.6283V126.688H70.8586V122.245Z" fill="#EBEBEB"/>
<path d="M74.8103 122.245H72.58V126.688H74.8103V122.245Z" fill="#EBEBEB"/>
<path d="M78.7556 122.245H76.5253V126.688H78.7556V122.245Z" fill="#EBEBEB"/>
<path d="M82.7073 122.245H80.477V126.688H82.7073V122.245Z" fill="#EBEBEB"/>
<path d="M66.9149 129.457H64.6845V133.894H66.9149V129.457Z" fill="#EBEBEB"/>
<path d="M70.8586 129.457H68.6283V133.894H70.8586V129.457Z" fill="#EBEBEB"/>
<path d="M74.8103 129.457H72.58V133.894H74.8103V129.457Z" fill="#EBEBEB"/>
<path d="M78.7556 129.457H76.5253V133.894H78.7556V129.457Z" fill="#EBEBEB"/>
<path d="M82.7073 129.457H80.477V133.894H82.7073V129.457Z" fill="#EBEBEB"/>
<path d="M66.9149 136.675H64.6845V141.113H66.9149V136.675Z" fill="#EBEBEB"/>
<path d="M70.8586 136.675H68.6283V141.113H70.8586V136.675Z" fill="#EBEBEB"/>
<path d="M74.8103 136.675H72.58V141.113H74.8103V136.675Z" fill="#EBEBEB"/>
<path d="M78.7556 136.675H76.5253V141.113H78.7556V136.675Z" fill="#EBEBEB"/>
<path d="M82.7073 136.675H80.477V141.113H82.7073V136.675Z" fill="#EBEBEB"/>
<path d="M66.9149 143.892H64.6845V148.335H66.9149V143.892Z" fill="#EBEBEB"/>
<path d="M70.8586 143.892H68.6283V148.335H70.8586V143.892Z" fill="#EBEBEB"/>
<path d="M74.8103 143.892H72.58V148.335H74.8103V143.892Z" fill="#EBEBEB"/>
<path d="M78.7556 143.892H76.5253V148.335H78.7556V143.892Z" fill="#EBEBEB"/>
<path d="M82.7073 143.892H80.477V148.335H82.7073V143.892Z" fill="#EBEBEB"/>
<path d="M66.9149 151.11H64.6845V155.553H66.9149V151.11Z" fill="#EBEBEB"/>
<path d="M70.8586 151.11H68.6283V155.553H70.8586V151.11Z" fill="#EBEBEB"/>
<path d="M74.8103 151.11H72.58V155.553H74.8103V151.11Z" fill="#EBEBEB"/>
<path d="M78.7556 151.11H76.5253V155.553H78.7556V151.11Z" fill="#EBEBEB"/>
<path d="M82.7073 151.11H80.477V155.553H82.7073V151.11Z" fill="#EBEBEB"/>
<path d="M66.9149 158.323H64.6845V162.76H66.9149V158.323Z" fill="#EBEBEB"/>
<path d="M70.8586 158.323H68.6283V162.76H70.8586V158.323Z" fill="#EBEBEB"/>
<path d="M74.8103 158.323H72.58V162.76H74.8103V158.323Z" fill="#EBEBEB"/>
<path d="M78.7556 158.323H76.5253V162.76H78.7556V158.323Z" fill="#EBEBEB"/>
<path d="M82.7073 158.323H80.477V162.76H82.7073V158.323Z" fill="#EBEBEB"/>
<path d="M66.9149 165.54H64.6845V169.983H66.9149V165.54Z" fill="#EBEBEB"/>
<path d="M70.8586 165.54H68.6283V169.983H70.8586V165.54Z" fill="#EBEBEB"/>
<path d="M74.8103 165.54H72.58V169.983H74.8103V165.54Z" fill="#EBEBEB"/>
<path d="M78.7556 165.54H76.5253V169.983H78.7556V165.54Z" fill="#EBEBEB"/>
<path d="M82.7073 165.54H80.477V169.983H82.7073V165.54Z" fill="#EBEBEB"/>
<path d="M66.9149 172.758H64.6845V177.195H66.9149V172.758Z" fill="#EBEBEB"/>
<path d="M70.8586 172.758H68.6283V177.195H70.8586V172.758Z" fill="#EBEBEB"/>
<path d="M74.8103 172.758H72.58V177.195H74.8103V172.758Z" fill="#EBEBEB"/>
<path d="M78.7556 172.758H76.5253V177.195H78.7556V172.758Z" fill="#EBEBEB"/>
<path d="M82.7073 172.758H80.477V177.195H82.7073V172.758Z" fill="#EBEBEB"/>
<path d="M66.9149 179.975H64.6845V184.418H66.9149V179.975Z" fill="#EBEBEB"/>
<path d="M70.8586 179.975H68.6283V184.418H70.8586V179.975Z" fill="#EBEBEB"/>
<path d="M74.8103 179.975H72.58V184.418H74.8103V179.975Z" fill="#EBEBEB"/>
<path d="M78.7556 179.975H76.5253V184.418H78.7556V179.975Z" fill="#EBEBEB"/>
<path d="M82.7073 179.975H80.477V184.418H82.7073V179.975Z" fill="#EBEBEB"/>
<path d="M66.9149 187.188H64.6845V191.625H66.9149V187.188Z" fill="#EBEBEB"/>
<path d="M70.8586 187.188H68.6283V191.625H70.8586V187.188Z" fill="#EBEBEB"/>
<path d="M74.8103 187.188H72.58V191.625H74.8103V187.188Z" fill="#EBEBEB"/>
<path d="M78.7556 187.188H76.5253V191.625H78.7556V187.188Z" fill="#EBEBEB"/>
<path d="M82.7073 187.188H80.477V191.625H82.7073V187.188Z" fill="#EBEBEB"/>
<path d="M66.9149 194.405H64.6845V198.843H66.9149V194.405Z" fill="#EBEBEB"/>
<path d="M70.8586 194.405H68.6283V198.843H70.8586V194.405Z" fill="#EBEBEB"/>
<path d="M74.8103 194.405H72.58V198.843H74.8103V194.405Z" fill="#EBEBEB"/>
<path d="M78.7556 194.405H76.5253V198.843H78.7556V194.405Z" fill="#EBEBEB"/>
<path d="M82.7073 194.405H80.477V198.843H82.7073V194.405Z" fill="#EBEBEB"/>
<path d="M66.9149 201.624H64.6845V206.067H66.9149V201.624Z" fill="#EBEBEB"/>
<path d="M70.8586 201.624H68.6283V206.067H70.8586V201.624Z" fill="#EBEBEB"/>
<path d="M74.8103 201.624H72.58V206.067H74.8103V201.624Z" fill="#EBEBEB"/>
<path d="M78.7556 201.624H76.5253V206.067H78.7556V201.624Z" fill="#EBEBEB"/>
<path d="M82.7073 201.624H80.477V206.067H82.7073V201.624Z" fill="#EBEBEB"/>
<path d="M66.9149 208.836H64.6845V211.604H66.9149V208.836Z" fill="#EBEBEB"/>
<path d="M70.8586 208.836H68.6283V211.604H70.8586V208.836Z" fill="#EBEBEB"/>
<path d="M74.8103 208.836H72.58V211.604H74.8103V208.836Z" fill="#EBEBEB"/>
<path d="M78.7556 208.836H76.5253V211.604H78.7556V208.836Z" fill="#EBEBEB"/>
<path d="M82.7073 208.836H80.477V211.604H82.7073V208.836Z" fill="#EBEBEB"/>
<path d="M98.8168 108.869H84.6915V211.604H98.8168V108.869Z" fill="#D1D1D6"/>
<path d="M99.4256 106.621H84.6915V108.869H99.4256V106.621Z" fill="#C7C7CC"/>
<path d="M88.9119 112.182H86.6816V211.604H88.9119V112.182Z" fill="#C7C7CC"/>
<path d="M92.8573 112.182H90.627V211.604H92.8573V112.182Z" fill="#C7C7CC"/>
<path d="M96.8089 112.182H94.5786V211.604H96.8089V112.182Z" fill="#C7C7CC"/>
<path d="M88.9119 115.027H86.6816V119.464H88.9119V115.027Z" fill="#D1D1D6"/>
<path d="M92.8573 115.027H90.627V119.464H92.8573V115.027Z" fill="#D1D1D6"/>
<path d="M96.8089 115.027H94.5786V119.464H96.8089V115.027Z" fill="#D1D1D6"/>
<path d="M88.9119 122.245H86.6816V126.688H88.9119V122.245Z" fill="#D1D1D6"/>
<path d="M92.8573 122.245H90.627V126.688H92.8573V122.245Z" fill="#D1D1D6"/>
<path d="M96.8089 122.245H94.5786V126.688H96.8089V122.245Z" fill="#D1D1D6"/>
<path d="M88.9119 129.457H86.6816V133.894H88.9119V129.457Z" fill="#D1D1D6"/>
<path d="M92.8573 129.457H90.627V133.894H92.8573V129.457Z" fill="#D1D1D6"/>
<path d="M96.8089 129.457H94.5786V133.894H96.8089V129.457Z" fill="#D1D1D6"/>
<path d="M88.9119 136.675H86.6816V141.113H88.9119V136.675Z" fill="#D1D1D6"/>
<path d="M92.8573 136.675H90.627V141.113H92.8573V136.675Z" fill="#D1D1D6"/>
<path d="M96.8089 136.675H94.5786V141.113H96.8089V136.675Z" fill="#D1D1D6"/>
<path d="M88.9119 143.892H86.6816V148.335H88.9119V143.892Z" fill="#D1D1D6"/>
<path d="M92.8573 143.892H90.627V148.335H92.8573V143.892Z" fill="#D1D1D6"/>
<path d="M96.8089 143.892H94.5786V148.335H96.8089V143.892Z" fill="#D1D1D6"/>
<path d="M88.9119 151.11H86.6816V155.553H88.9119V151.11Z" fill="#D1D1D6"/>
<path d="M92.8573 151.11H90.627V155.553H92.8573V151.11Z" fill="#D1D1D6"/>
<path d="M96.8089 151.11H94.5786V155.553H96.8089V151.11Z" fill="#D1D1D6"/>
<path d="M88.9119 158.323H86.6816V162.76H88.9119V158.323Z" fill="#D1D1D6"/>
<path d="M92.8573 158.323H90.627V162.76H92.8573V158.323Z" fill="#D1D1D6"/>
<path d="M96.8089 158.323H94.5786V162.76H96.8089V158.323Z" fill="#D1D1D6"/>
<path d="M88.9119 165.54H86.6816V169.983H88.9119V165.54Z" fill="#D1D1D6"/>
<path d="M92.8573 165.54H90.627V169.983H92.8573V165.54Z" fill="#D1D1D6"/>
<path d="M96.8089 165.54H94.5786V169.983H96.8089V165.54Z" fill="#D1D1D6"/>
<path d="M88.9119 172.758H86.6816V177.195H88.9119V172.758Z" fill="#D1D1D6"/>
<path d="M92.8573 172.758H90.627V177.195H92.8573V172.758Z" fill="#D1D1D6"/>
<path d="M96.8089 172.758H94.5786V177.195H96.8089V172.758Z" fill="#D1D1D6"/>
<path d="M88.9119 179.975H86.6816V184.418H88.9119V179.975Z" fill="#D1D1D6"/>
<path d="M92.8573 179.975H90.627V184.418H92.8573V179.975Z" fill="#D1D1D6"/>
<path d="M96.8089 179.975H94.5786V184.418H96.8089V179.975Z" fill="#D1D1D6"/>
<path d="M88.9119 187.188H86.6816V191.625H88.9119V187.188Z" fill="#D1D1D6"/>
<path d="M92.8573 187.188H90.627V191.625H92.8573V187.188Z" fill="#D1D1D6"/>
<path d="M96.8089 187.188H94.5786V191.625H96.8089V187.188Z" fill="#D1D1D6"/>
<path d="M88.9119 194.405H86.6816V198.843H88.9119V194.405Z" fill="#D1D1D6"/>
<path d="M92.8573 194.405H90.627V198.843H92.8573V194.405Z" fill="#D1D1D6"/>
<path d="M96.8089 194.405H94.5786V198.843H96.8089V194.405Z" fill="#D1D1D6"/>
<path d="M88.9119 201.624H86.6816V206.067H88.9119V201.624Z" fill="#D1D1D6"/>
<path d="M92.8573 201.624H90.627V206.067H92.8573V201.624Z" fill="#D1D1D6"/>
<path d="M96.8089 201.624H94.5786V206.067H96.8089V201.624Z" fill="#D1D1D6"/>
<path d="M88.9119 208.836H86.6816V211.604H88.9119V208.836Z" fill="#D1D1D6"/>
<path d="M92.8573 208.836H90.627V211.604H92.8573V208.836Z" fill="#D1D1D6"/>
<path d="M96.8089 208.836H94.5786V211.604H96.8089V208.836Z" fill="#D1D1D6"/>
<path d="M30.731 146.627H8.8259V211.604H30.731V146.627Z" fill="#EBEBEB"/>
<path d="M30.7372 141.117H11.9464V146.626H30.7372V141.117Z" fill="#C7C7CC"/>
<path d="M28.333 149.5H11.2339V211.604H28.333V149.5Z" fill="#D1D1D6"/>
<path d="M28.333 155.431H11.2339V156.9H28.333V155.431Z" fill="#F2F2F7"/>
<path d="M28.333 161.507H11.2339V162.976H28.333V161.507Z" fill="#F2F2F7"/>
<path d="M28.333 167.584H11.2339V169.054H28.333V167.584Z" fill="#F2F2F7"/>
<path d="M28.333 173.666H11.2339V175.135H28.333V173.666Z" fill="#F2F2F7"/>
<path d="M28.333 179.742H11.2339V181.211H28.333V179.742Z" fill="#F2F2F7"/>
<path d="M28.333 185.824H11.2339V187.293H28.333V185.824Z" fill="#F2F2F7"/>
<path d="M28.333 191.899H11.2339V193.368H28.333V191.899Z" fill="#F2F2F7"/>
<path d="M28.333 197.983H11.2339V199.452H28.333V197.983Z" fill="#F2F2F7"/>
<path d="M28.333 204.058H11.2339V205.527H28.333V204.058Z" fill="#F2F2F7"/>
<path d="M28.333 210.141H11.2339V211.61H28.333V210.141Z" fill="#F2F2F7"/>
<path d="M44.4525 146.627H30.7311V211.604H44.4525V146.627Z" fill="#D1D1D6"/>
<path d="M42.392 141.117H30.7311V146.626H42.392V141.117Z" fill="#AEAEB2"/>
<path d="M43.1748 149.5H32.6262V211.604H43.1748V149.5Z" fill="#C7C7CC"/>
<path d="M43.1748 155.431H32.6262V156.9H43.1748V155.431Z" fill="#F2F2F7"/>
<path d="M43.1748 161.507H32.6262V162.976H43.1748V161.507Z" fill="#F2F2F7"/>
<path d="M43.1748 167.584H32.6262V169.054H43.1748V167.584Z" fill="#F2F2F7"/>
<path d="M43.1748 173.666H32.6262V175.135H43.1748V173.666Z" fill="#F2F2F7"/>
<path d="M43.1748 179.742H32.6262V181.211H43.1748V179.742Z" fill="#F2F2F7"/>
<path d="M43.1748 185.824H32.6262V187.293H43.1748V185.824Z" fill="#F2F2F7"/>
<path d="M43.1748 191.899H32.6262V193.368H43.1748V191.899Z" fill="#F2F2F7"/>
<path d="M43.1748 197.983H32.6262V199.452H43.1748V197.983Z" fill="#F2F2F7"/>
<path d="M43.1748 204.058H32.6262V205.527H43.1748V204.058Z" fill="#F2F2F7"/>
<path d="M43.1748 210.141H32.6262V211.61H43.1748V210.141Z" fill="#F2F2F7"/>
<path d="M191.67 173.566H174.735V211.604H191.67V173.566Z" fill="#D1D1D6"/>
<path d="M180.39 176.856H177.393V179.185H180.39V176.856Z" fill="#C7C7CC"/>
<path d="M180.39 181.838H177.393V184.168H180.39V181.838Z" fill="#C7C7CC"/>
<path d="M180.39 186.814H177.393V189.144H180.39V186.814Z" fill="#C7C7CC"/>
<path d="M180.39 191.788H177.393V194.118H180.39V191.788Z" fill="#C7C7CC"/>
<path d="M180.39 196.771H177.393V199.101H180.39V196.771Z" fill="#C7C7CC"/>
<path d="M180.39 201.746H177.393V204.076H180.39V201.746Z" fill="#C7C7CC"/>
<path d="M180.39 206.728H177.393V209.058H180.39V206.728Z" fill="#C7C7CC"/>
<path d="M184.704 176.856H181.707V179.185H184.704V176.856Z" fill="#C7C7CC"/>
<path d="M184.704 181.838H181.707V184.168H184.704V181.838Z" fill="#C7C7CC"/>
<path d="M184.704 186.814H181.707V189.144H184.704V186.814Z" fill="#C7C7CC"/>
<path d="M184.704 191.788H181.707V194.118H184.704V191.788Z" fill="#C7C7CC"/>
<path d="M184.704 196.771H181.707V199.101H184.704V196.771Z" fill="#C7C7CC"/>
<path d="M184.704 201.746H181.707V204.076H184.704V201.746Z" fill="#C7C7CC"/>
<path d="M184.704 206.728H181.707V209.058H184.704V206.728Z" fill="#C7C7CC"/>
<path d="M189.006 176.856H186.009V179.185H189.006V176.856Z" fill="#C7C7CC"/>
<path d="M189.006 181.838H186.009V184.168H189.006V181.838Z" fill="#C7C7CC"/>
<path d="M189.006 186.814H186.009V189.144H189.006V186.814Z" fill="#C7C7CC"/>
<path d="M189.006 191.788H186.009V194.118H189.006V191.788Z" fill="#C7C7CC"/>
<path d="M189.006 196.771H186.009V199.101H189.006V196.771Z" fill="#C7C7CC"/>
<path d="M189.006 201.746H186.009V204.076H189.006V201.746Z" fill="#C7C7CC"/>
<path d="M189.006 206.728H186.009V209.058H189.006V206.728Z" fill="#C7C7CC"/>
<path d="M203.547 173.566H191.664V211.604H203.547V173.566Z" fill="#AEAEB2"/>
<path d="M199.897 208.684H202.338V206.354H199.897V208.684Z" fill="#C7C7CC"/>
<path d="M199.897 203.707H202.338V201.378H199.897V203.707Z" fill="#C7C7CC"/>
<path d="M199.897 198.731H202.338V196.402H199.897V198.731Z" fill="#C7C7CC"/>
<path d="M199.897 193.751H202.338V191.421H199.897V193.751Z" fill="#C7C7CC"/>
<path d="M199.897 188.768H202.338V186.439H199.897V188.768Z" fill="#C7C7CC"/>
<path d="M199.897 183.798H202.338V181.468H199.897V183.798Z" fill="#C7C7CC"/>
<path d="M199.897 178.817H202.338V176.487H199.897V178.817Z" fill="#C7C7CC"/>
<path d="M196.382 208.684H198.823V206.354H196.382V208.684Z" fill="#C7C7CC"/>
<path d="M196.382 203.707H198.823V201.378H196.382V203.707Z" fill="#C7C7CC"/>
<path d="M196.382 198.731H198.823V196.402H196.382V198.731Z" fill="#C7C7CC"/>
<path d="M196.382 193.751H198.823V191.421H196.382V193.751Z" fill="#C7C7CC"/>
<path d="M196.382 188.768H198.823V186.439H196.382V188.768Z" fill="#C7C7CC"/>
<path d="M196.382 183.798H198.823V181.468H196.382V183.798Z" fill="#C7C7CC"/>
<path d="M196.382 178.817H198.823V176.487H196.382V178.817Z" fill="#C7C7CC"/>
<path d="M192.882 208.684H195.323V206.354H192.882V208.684Z" fill="#C7C7CC"/>
<path d="M192.882 203.707H195.323V201.378H192.882V203.707Z" fill="#C7C7CC"/>
<path d="M192.882 198.731H195.323V196.402H192.882V198.731Z" fill="#C7C7CC"/>
<path d="M192.882 193.751H195.323V191.421H192.882V193.751Z" fill="#C7C7CC"/>
<path d="M192.882 188.768H195.323V186.439H192.882V188.768Z" fill="#C7C7CC"/>
<path d="M192.882 183.798H195.323V181.468H192.882V183.798Z" fill="#C7C7CC"/>
<path d="M192.882 178.817H195.323V176.487H192.882V178.817Z" fill="#C7C7CC"/>
<path d="M218.12 129.931H206.418V143.752H218.12V129.931Z" fill="#D1D1D6"/>
<path d="M225.528 129.931H218.111V144.255H225.528V129.931Z" fill="#C7C7CC"/>
<path d="M226.028 136.03H218.664V144.255H226.028V136.03Z" fill="#D1D1D6"/>
<path d="M230.618 136.03H226.029V144.255H230.618V136.03Z" fill="#C7C7CC"/>
<path d="M220.847 142.851H201.928V211.604H220.847V142.851Z" fill="#EBEBEB"/>
<path d="M210.04 145.807H204.092V148.237H210.04V145.807Z" fill="#F2F2F7"/>
<path d="M217.65 145.807H211.703V148.237H217.65V145.807Z" fill="#F2F2F7"/>
<path d="M210.04 149.934H204.092V152.363H210.04V149.934Z" fill="#F2F2F7"/>
<path d="M217.65 149.934H211.703V152.363H217.65V149.934Z" fill="#F2F2F7"/>
<path d="M210.04 154.061H204.092V156.491H210.04V154.061Z" fill="#F2F2F7"/>
<path d="M217.65 154.061H211.703V156.491H217.65V154.061Z" fill="#F2F2F7"/>
<path d="M210.04 158.189H204.092V160.618H210.04V158.189Z" fill="#F2F2F7"/>
<path d="M217.65 158.189H211.703V160.618H217.65V158.189Z" fill="#F2F2F7"/>
<path d="M210.04 162.315H204.092V164.744H210.04V162.315Z" fill="#F2F2F7"/>
<path d="M217.65 162.315H211.703V164.744H217.65V162.315Z" fill="#F2F2F7"/>
<path d="M210.04 166.441H204.092V168.871H210.04V166.441Z" fill="#F2F2F7"/>
<path d="M217.65 166.441H211.703V168.871H217.65V166.441Z" fill="#F2F2F7"/>
<path d="M210.04 170.569H204.092V172.998H210.04V170.569Z" fill="#F2F2F7"/>
<path d="M217.65 170.569H211.703V172.998H217.65V170.569Z" fill="#F2F2F7"/>
<path d="M210.04 174.696H204.092V177.125H210.04V174.696Z" fill="#F2F2F7"/>
<path d="M217.65 174.696H211.703V177.125H217.65V174.696Z" fill="#F2F2F7"/>
<path d="M210.04 178.823H204.092V181.252H210.04V178.823Z" fill="#F2F2F7"/>
<path d="M217.65 178.823H211.703V181.252H217.65V178.823Z" fill="#F2F2F7"/>
<path d="M210.04 182.95H204.092V185.379H210.04V182.95Z" fill="#F2F2F7"/>
<path d="M217.65 182.95H211.703V185.379H217.65V182.95Z" fill="#F2F2F7"/>
<path d="M210.04 187.078H204.092V189.507H210.04V187.078Z" fill="#F2F2F7"/>
<path d="M217.65 187.078H211.703V189.507H217.65V187.078Z" fill="#F2F2F7"/>
<path d="M210.04 191.203H204.092V193.633H210.04V191.203Z" fill="#F2F2F7"/>
<path d="M217.65 191.203H211.703V193.633H217.65V191.203Z" fill="#F2F2F7"/>
<path d="M210.04 195.331H204.092V197.76H210.04V195.331Z" fill="#F2F2F7"/>
<path d="M217.65 195.331H211.703V197.76H217.65V195.331Z" fill="#F2F2F7"/>
<path d="M210.04 199.457H204.092V201.887H210.04V199.457Z" fill="#F2F2F7"/>
<path d="M217.65 199.457H211.703V201.887H217.65V199.457Z" fill="#F2F2F7"/>
<path d="M236.177 142.851H220.846V211.604H236.177V142.851Z" fill="#C7C7CC"/>
<path d="M229.755 201.886H234.637V199.457H229.755V201.886Z" fill="#EBEBEB"/>
<path d="M223.509 201.886H228.391V199.457H223.509V201.886Z" fill="#EBEBEB"/>
<path d="M229.755 197.76H234.637V195.331H229.755V197.76Z" fill="#EBEBEB"/>
<path d="M223.509 197.76H228.391V195.331H223.509V197.76Z" fill="#EBEBEB"/>
<path d="M229.755 193.633H234.637V191.203H229.755V193.633Z" fill="#EBEBEB"/>
<path d="M223.509 193.633H228.391V191.203H223.509V193.633Z" fill="#EBEBEB"/>
<path d="M229.755 189.506H234.637V187.077H229.755V189.506Z" fill="#EBEBEB"/>
<path d="M223.509 189.506H228.391V187.077H223.509V189.506Z" fill="#EBEBEB"/>
<path d="M229.755 185.379H234.637V182.949H229.755V185.379Z" fill="#EBEBEB"/>
<path d="M223.509 185.379H228.391V182.949H223.509V185.379Z" fill="#EBEBEB"/>
<path d="M229.755 181.251H234.637V178.822H229.755V181.251Z" fill="#EBEBEB"/>
<path d="M223.509 181.251H228.391V178.822H223.509V181.251Z" fill="#EBEBEB"/>
<path d="M229.755 177.125H234.637V174.695H229.755V177.125Z" fill="#EBEBEB"/>
<path d="M223.509 177.125H228.391V174.695H223.509V177.125Z" fill="#EBEBEB"/>
<path d="M229.755 172.999H234.637V170.569H229.755V172.999Z" fill="#EBEBEB"/>
<path d="M223.509 172.999H228.391V170.569H223.509V172.999Z" fill="#EBEBEB"/>
<path d="M229.755 168.871H234.637V166.442H229.755V168.871Z" fill="#EBEBEB"/>
<path d="M223.509 168.871H228.391V166.442H223.509V168.871Z" fill="#EBEBEB"/>
<path d="M229.755 164.744H234.637V162.315H229.755V164.744Z" fill="#EBEBEB"/>
<path d="M223.509 164.744H228.391V162.315H223.509V164.744Z" fill="#EBEBEB"/>
<path d="M229.755 160.617H234.637V158.188H229.755V160.617Z" fill="#EBEBEB"/>
<path d="M223.509 160.617H228.391V158.188H223.509V160.617Z" fill="#EBEBEB"/>
<path d="M229.755 156.49H234.637V154.061H229.755V156.49Z" fill="#EBEBEB"/>
<path d="M223.509 156.49H228.391V154.061H223.509V156.49Z" fill="#EBEBEB"/>
<path d="M229.755 152.369H234.637V149.94H229.755V152.369Z" fill="#EBEBEB"/>
<path d="M223.509 152.369H228.391V149.94H223.509V152.369Z" fill="#EBEBEB"/>
<path d="M229.755 148.241H234.637V145.812H229.755V148.241Z" fill="#EBEBEB"/>
<path d="M223.509 148.241H228.391V145.812H223.509V148.241Z" fill="#EBEBEB"/>
<path d="M72.5311 202.302H75.7448V199.557H72.5311V202.302Z" fill="#C7C7CC"/>
<path d="M72.5311 196.437H75.7448V193.691H72.5311V196.437Z" fill="#C7C7CC"/>
<path d="M72.5311 190.577H75.7448V187.832H72.5311V190.577Z" fill="#C7C7CC"/>
<path d="M72.5311 184.711H75.7448V181.966H72.5311V184.711Z" fill="#C7C7CC"/>
<path d="M72.5311 178.852H75.7448V176.107H72.5311V178.852Z" fill="#C7C7CC"/>
<path d="M72.5311 172.986H75.7448V170.241H72.5311V172.986Z" fill="#C7C7CC"/>
<path d="M67.9065 208.162H71.1203V205.416H67.9065V208.162Z" fill="#C7C7CC"/>
<path d="M67.9065 202.302H71.1203V199.557H67.9065V202.302Z" fill="#C7C7CC"/>
<path d="M67.9065 196.437H71.1203V193.691H67.9065V196.437Z" fill="#C7C7CC"/>
<path d="M67.9065 190.577H71.1203V187.832H67.9065V190.577Z" fill="#C7C7CC"/>
<path d="M67.9065 184.711H71.1203V181.966H67.9065V184.711Z" fill="#C7C7CC"/>
<path d="M67.9065 178.852H71.1203V176.107H67.9065V178.852Z" fill="#C7C7CC"/>
<path d="M67.9065 172.986H71.1203V170.241H67.9065V172.986Z" fill="#C7C7CC"/>
<path d="M63.2946 208.162H66.5084V205.416H63.2946V208.162Z" fill="#C7C7CC"/>
<path d="M63.2946 202.302H66.5084V199.557H63.2946V202.302Z" fill="#C7C7CC"/>
<path d="M63.2946 196.437H66.5084V193.691H63.2946V196.437Z" fill="#C7C7CC"/>
<path d="M63.2946 190.577H66.5084V187.832H63.2946V190.577Z" fill="#C7C7CC"/>
<path d="M63.2946 184.711H66.5084V181.966H63.2946V184.711Z" fill="#C7C7CC"/>
<path d="M63.2946 178.852H66.5084V176.107H63.2946V178.852Z" fill="#C7C7CC"/>
<path d="M63.2946 172.986H66.5084V170.241H63.2946V172.986Z" fill="#C7C7CC"/>
<path d="M74.9747 162.14H61.6923V166.805H74.9747V162.14Z" fill="#C7C7CC"/>
<path d="M68.8925 159.247H61.6923V162.139H68.8925V159.247Z" fill="#D1D1D6"/>
<path d="M122.498 250C167.11 250 203.275 246.784 203.275 242.817C203.275 238.851 167.11 235.635 122.498 235.635C77.8862 235.635 41.7211 238.851 41.7211 242.817C41.7211 246.784 77.8862 250 122.498 250Z" fill="#EBEBEB"/>
<path d="M0.909851 214.922L31.303 214.782L61.702 214.729L122.5 214.629L183.298 214.729L213.697 214.776L244.09 214.922L213.697 215.063L183.298 215.115L122.5 215.215L61.702 215.115L31.303 215.063L0.909851 214.922Z" fill="#263238"/>
<path d="M240.244 211.603H4.76178V215.016H240.244V211.603Z" fill="#C7C7CC"/>
<path d="M21.2701 211.603C21.4624 212.152 21.5575 212.731 21.5511 213.312C21.5603 213.894 21.4651 214.473 21.2701 215.022C21.0722 214.474 20.977 213.895 20.9891 213.312C20.9799 212.73 21.075 212.151 21.2701 211.603Z" fill="#263238"/>
<path d="M39.6754 211.603C40.0502 212.712 40.0502 213.913 39.6754 215.022C39.3007 213.913 39.3007 212.712 39.6754 211.603Z" fill="#263238"/>
<path d="M58.1087 211.603C58.3038 212.151 58.3989 212.73 58.3897 213.312C58.4018 213.895 58.3065 214.474 58.1087 215.022C57.734 213.913 57.734 212.712 58.1087 211.603Z" fill="#263238"/>
<path d="M76.4837 211.603C76.8584 212.712 76.8584 213.913 76.4837 215.022C76.117 213.912 76.117 212.713 76.4837 211.603Z" fill="#263238"/>
<path d="M94.8929 211.603C95.0862 212.152 95.1794 212.731 95.168 213.312C95.1823 213.894 95.089 214.474 94.8929 215.022C94.5182 213.913 94.5182 212.712 94.8929 211.603Z" fill="#263238"/>
<path d="M113.297 211.603C113.672 212.712 113.672 213.913 113.297 215.022C113.099 214.474 113.004 213.895 113.016 213.312C113.007 212.73 113.102 212.151 113.297 211.603Z" fill="#263238"/>
<path d="M131.702 211.603C131.897 212.151 131.993 212.73 131.983 213.312C131.995 213.895 131.9 214.474 131.702 215.022C131.328 213.913 131.328 212.712 131.702 211.603Z" fill="#263238"/>
<path d="M150.107 211.603C150.482 212.712 150.482 213.913 150.107 215.022C149.911 214.474 149.818 213.894 149.832 213.312C149.821 212.731 149.914 212.152 150.107 211.603Z" fill="#263238"/>
<path d="M168.517 211.603C168.883 212.713 168.883 213.912 168.517 215.022C168.142 213.913 168.142 212.712 168.517 211.603Z" fill="#263238"/>
<path d="M186.922 211.603C187.297 212.712 187.297 213.913 186.922 215.022C186.725 214.474 186.629 213.895 186.641 213.312C186.632 212.73 186.727 212.151 186.922 211.603Z" fill="#263238"/>
<path d="M205.326 211.603C205.701 212.712 205.701 213.913 205.326 215.022C204.951 213.913 204.951 212.712 205.326 211.603Z" fill="#263238"/>
<path d="M223.731 211.603C223.927 212.151 224.022 212.73 224.012 213.312C224.025 213.895 223.929 214.474 223.731 215.022C223.536 214.473 223.441 213.894 223.451 213.312C223.444 212.731 223.539 212.152 223.731 211.603Z" fill="#263238"/>
<path d="M208.857 77.1701C208.857 80.48 207.938 83.725 206.202 86.5428C204.465 89.3607 201.98 91.6406 199.023 93.1281C196.066 94.6156 192.754 95.2522 189.457 94.9669C186.159 94.6815 183.006 93.4854 180.348 91.512L171.568 93.7482L175.209 85.5997C173.927 83.2049 173.209 80.5495 173.108 77.8354C173.007 75.1212 173.526 72.4197 174.626 69.9364C175.726 67.453 177.377 65.253 179.455 63.5038C181.533 61.7545 183.982 60.502 186.616 59.8414C189.251 59.1808 192.001 59.1296 194.658 59.6916C197.316 60.2537 199.81 61.4141 201.951 63.0848C204.093 64.7555 205.825 66.8924 207.016 69.3331C208.208 71.7738 208.827 74.4541 208.827 77.1701H208.857Z" fill="#AEAEB2"/>
<path d="M208.858 77.1702C208.852 80.4767 207.935 83.7177 206.206 86.5363C205.777 87.2391 205.304 87.9137 204.789 88.5559C204.257 89.1763 203.686 89.7628 203.08 90.3121C202.785 90.6003 202.474 90.8719 202.149 91.1258L201.166 91.8985C200.838 92.1443 200.469 92.3375 200.124 92.56L199.597 92.8878C199.415 92.9873 199.228 93.0692 199.047 93.1629C197.57 93.9238 195.993 94.4736 194.364 94.7961C193.552 94.9533 192.73 95.055 191.905 95.1005C191.079 95.1649 190.249 95.1649 189.423 95.1005C186.096 94.8375 182.907 93.6538 180.215 91.6819L180.39 91.717L171.651 93.9941L171.135 94.1288L171.352 93.6429L174.981 85.4592V85.7051C173.674 83.2773 172.942 80.582 172.84 77.8266C172.739 75.0712 173.271 72.3292 174.396 69.8119C175.527 67.3061 177.207 65.0871 179.313 63.32C181.943 61.1393 185.139 59.7516 188.528 59.3187C191.917 58.8859 195.359 59.4257 198.453 60.8753C201.546 62.3248 204.164 64.6243 206 67.5054C207.836 70.3865 208.815 73.7304 208.823 77.1468L208.858 77.1702ZM208.858 77.1702C208.86 74.4634 208.241 71.7921 207.05 69.3614C205.859 66.9308 204.126 64.8055 201.986 63.1488C199.845 61.492 197.353 60.3479 194.702 59.8042C192.05 59.2606 189.309 59.3318 186.689 60.0126C184.089 60.6839 181.675 61.9369 179.629 63.6771C177.611 65.433 175.997 67.606 174.9 70.0461C173.825 72.4933 173.32 75.1522 173.421 77.8228C173.523 80.4935 174.228 83.1064 175.485 85.4651L175.549 85.588L175.491 85.711L171.826 93.8536L171.528 93.4966L180.308 91.3131L180.408 91.2838L180.484 91.3424C183.096 93.3268 186.21 94.5431 189.476 94.8547C190.289 94.9307 191.107 94.9425 191.922 94.8898C192.74 94.8606 193.553 94.7725 194.358 94.6264C195.969 94.3304 197.529 93.8082 198.994 93.0751C199.175 92.9873 199.369 92.9112 199.544 92.8117L200.077 92.4956C200.422 92.279 200.785 92.0916 201.119 91.8458C201.795 91.3809 202.436 90.8684 203.039 90.3121C203.645 89.7632 204.216 89.1767 204.748 88.5559C205.264 87.9168 205.739 87.2462 206.171 86.5481C207.916 83.7308 208.847 80.4845 208.858 77.1702Z" fill="#263238"/>
<path d="M197.953 77.913C197.953 78.2233 198.045 78.5266 198.218 78.7846C198.39 79.0426 198.635 79.2437 198.922 79.3625C199.209 79.4812 199.524 79.5123 199.828 79.4517C200.133 79.3912 200.412 79.2418 200.632 79.0224C200.851 78.803 201 78.5234 201.061 78.2191C201.121 77.9148 201.09 77.5993 200.972 77.3127C200.853 77.026 200.652 76.781 200.394 76.6086C200.136 76.4362 199.833 76.3442 199.522 76.3442C199.316 76.3442 199.112 76.3848 198.922 76.4636C198.732 76.5425 198.559 76.658 198.413 76.8037C198.267 76.9494 198.152 77.1223 198.073 77.3127C197.994 77.503 197.953 77.707 197.953 77.913Z" fill="white"/>
<path d="M189.699 77.9131C189.697 78.2247 189.789 78.5298 189.961 78.7895C190.133 79.0492 190.379 79.252 190.667 79.372C190.954 79.4921 191.271 79.5241 191.577 79.464C191.883 79.4039 192.164 79.2544 192.385 79.0344C192.605 78.8145 192.756 78.5339 192.817 78.2283C192.878 77.9227 192.848 77.6057 192.729 77.3177C192.61 77.0296 192.408 76.7833 192.149 76.61C191.89 76.4367 191.585 76.3442 191.273 76.3442C191.067 76.3434 190.862 76.3835 190.671 76.462C190.48 76.5405 190.306 76.6559 190.16 76.8016C190.014 76.9474 189.898 77.1206 189.819 77.3113C189.739 77.5021 189.699 77.7065 189.699 77.9131Z" fill="white"/>
<path d="M181.452 77.913C181.452 78.2233 181.544 78.5266 181.716 78.7846C181.888 79.0426 182.133 79.2437 182.42 79.3625C182.707 79.4812 183.022 79.5123 183.327 79.4517C183.631 79.3912 183.91 79.2418 184.13 79.0224C184.349 78.803 184.499 78.5234 184.559 78.2191C184.62 77.9148 184.589 77.5993 184.47 77.3127C184.351 77.026 184.15 76.781 183.892 76.6086C183.634 76.4362 183.331 76.3442 183.021 76.3442C182.814 76.3442 182.61 76.3848 182.42 76.4636C182.23 76.5425 182.057 76.658 181.911 76.8037C181.765 76.9494 181.65 77.1223 181.571 77.3127C181.492 77.503 181.452 77.707 181.452 77.913Z" fill="white"/>
<path d="M73.1323 40.6721C73.1334 40.9843 73.0418 41.2898 72.8689 41.5498C72.6961 41.8098 72.4499 42.0125 72.1616 42.1322C71.8732 42.252 71.5558 42.2833 71.2497 42.2222C70.9435 42.1612 70.6624 42.0105 70.4421 41.7893C70.2217 41.5682 70.0721 41.2865 70.0122 40.9801C69.9523 40.6737 69.9848 40.3565 70.1056 40.0686C70.2264 39.7807 70.4301 39.5353 70.6907 39.3634C70.9513 39.1915 71.2571 39.101 71.5693 39.1033C71.9839 39.1064 72.3806 39.2729 72.6732 39.5666C72.9658 39.8603 73.1308 40.2575 73.1323 40.6721Z" fill="white"/>
<path d="M81.3802 40.6721C81.3802 40.9824 81.2882 41.2857 81.1158 41.5437C80.9434 41.8017 80.6984 42.0028 80.4117 42.1215C80.1251 42.2403 79.8096 42.2713 79.5053 42.2108C79.201 42.1503 78.9214 42.0008 78.702 41.7814C78.4826 41.562 78.3332 41.2825 78.2727 40.9782C78.2121 40.6738 78.2432 40.3584 78.3619 40.0717C78.4807 39.7851 78.6818 39.5401 78.9398 39.3677C79.1977 39.1953 79.5011 39.1033 79.8114 39.1033C80.227 39.1048 80.6251 39.2706 80.919 39.5645C81.2129 39.8584 81.3786 40.2565 81.3802 40.6721Z" fill="white"/>
<path d="M89.6287 40.6721C89.6287 40.9824 89.5367 41.2857 89.3643 41.5437C89.1919 41.8017 88.9469 42.0028 88.6602 42.1215C88.3736 42.2403 88.0581 42.2713 87.7538 42.2108C87.4495 42.1503 87.1699 42.0008 86.9505 41.7814C86.7311 41.562 86.5817 41.2825 86.5212 40.9782C86.4606 40.6738 86.4917 40.3584 86.6105 40.0717C86.7292 39.7851 86.9303 39.5401 87.1883 39.3677C87.4463 39.1953 87.7496 39.1033 88.0599 39.1033C88.4755 39.1048 88.8736 39.2706 89.1675 39.5645C89.4614 39.8584 89.6272 40.2565 89.6287 40.6721Z" fill="white"/>
<path d="M110.01 12.2051C110.01 12.4853 109.927 12.7592 109.772 12.9921C109.616 13.2251 109.395 13.4067 109.136 13.5139C108.877 13.6211 108.592 13.6491 108.317 13.5945C108.043 13.5398 107.79 13.4049 107.592 13.2068C107.394 13.0087 107.259 12.7562 107.204 12.4814C107.15 12.2066 107.178 11.9218 107.285 11.663C107.392 11.4041 107.574 11.1829 107.807 11.0272C108.04 10.8715 108.314 10.7884 108.594 10.7884C108.78 10.7877 108.965 10.8238 109.137 10.8947C109.309 10.9656 109.466 11.0699 109.597 11.2016C109.729 11.3333 109.833 11.4898 109.904 11.662C109.975 11.8343 110.011 12.0188 110.01 12.2051Z" fill="white"/>
<path d="M116.316 12.2052C116.315 12.4832 116.231 12.7547 116.076 12.9855C115.921 13.2163 115.702 13.3962 115.445 13.5026C115.188 13.609 114.905 13.6371 114.633 13.5834C114.36 13.5297 114.109 13.3967 113.911 13.2009C113.714 13.0051 113.579 12.7554 113.523 12.483C113.467 12.2107 113.493 11.9279 113.597 11.6702C113.701 11.4124 113.879 11.1912 114.109 11.0344C114.339 10.8775 114.609 10.792 114.887 10.7885C115.075 10.7862 115.26 10.8212 115.434 10.8914C115.608 10.9616 115.765 11.0657 115.898 11.1975C116.031 11.3294 116.137 11.4864 116.208 11.6594C116.28 11.8324 116.316 12.0179 116.316 12.2052Z" fill="white"/>
<path d="M122.625 12.2051C122.624 12.4838 122.54 12.756 122.384 12.9872C122.228 13.2185 122.008 13.3984 121.75 13.5043C121.492 13.6102 121.208 13.6373 120.935 13.5822C120.662 13.5271 120.411 13.3922 120.214 13.1947C120.018 12.9972 119.884 12.7458 119.83 12.4723C119.776 12.1988 119.804 11.9154 119.911 11.658C120.018 11.4005 120.199 11.1806 120.431 11.0258C120.663 10.871 120.935 10.7884 121.214 10.7884C121.4 10.7884 121.584 10.8251 121.755 10.8964C121.927 10.9676 122.083 11.0721 122.214 11.2037C122.345 11.3353 122.449 11.4915 122.519 11.6634C122.59 11.8352 122.626 12.0193 122.625 12.2051Z" fill="white"/>
<path d="M166.353 90.2669C165.481 91.5637 165.011 93.0888 165.001 94.6514C165.001 100.201 171.095 104.702 178.611 104.702C186.128 104.702 192.221 100.201 192.221 94.6514C192.221 89.102 186.133 84.5945 178.611 84.5945C175.279 84.5447 172.011 85.5149 169.245 87.3751L164.562 86.2043L166.353 90.2669Z" fill="#F2F2F7"/>
<path d="M166.354 90.2664C165.556 91.5052 165.113 92.9384 165.072 94.4109C165.066 95.8766 165.472 97.3145 166.242 98.5613C167.862 101.01 170.3 102.803 173.121 103.619C175.905 104.491 178.859 104.679 181.732 104.169C183.162 103.933 184.552 103.493 185.859 102.864C187.16 102.249 188.348 101.418 189.371 100.405C190.391 99.404 191.154 98.1709 191.595 96.811C192.03 95.4506 192.05 93.9917 191.654 92.6197C191.236 91.2483 190.488 90.0002 189.476 88.9844C188.457 87.9554 187.269 87.108 185.964 86.479C184.666 85.8472 183.287 85.3981 181.866 85.1443C180.436 84.8675 178.977 84.7652 177.523 84.8399C174.6 84.9532 171.765 85.8686 169.327 87.4858L169.275 87.521H169.222L164.539 86.2682L164.621 86.1687L166.354 90.2664ZM166.354 90.2664L164.469 86.2097L164.41 86.0809L164.551 86.116L169.234 87.2458H169.122C171.586 85.5439 174.474 84.559 177.464 84.4009C180.457 84.1789 183.456 84.7291 186.175 85.999C187.536 86.647 188.775 87.5242 189.839 88.5922C190.922 89.6664 191.725 90.9886 192.181 92.444C192.612 93.9216 192.598 95.4937 192.14 96.9632C191.66 98.4111 190.839 99.7222 189.745 100.786C188.671 101.84 187.424 102.701 186.058 103.332C184.702 103.972 183.264 104.419 181.784 104.661C180.311 104.911 178.814 104.984 177.324 104.878C175.835 104.76 174.367 104.462 172.951 103.988C171.533 103.52 170.196 102.835 168.988 101.957C167.772 101.082 166.751 99.9634 165.991 98.6725C165.228 97.3848 164.856 95.9037 164.918 94.4087C164.981 92.9136 165.475 91.4687 166.342 90.2489L166.354 90.2664Z" fill="#263238"/>
<path d="M183.511 94.651C183.511 94.3719 183.594 94.0992 183.749 93.8672C183.904 93.6352 184.125 93.4543 184.382 93.3476C184.64 93.2408 184.924 93.2128 185.197 93.2673C185.471 93.3217 185.722 93.4561 185.92 93.6534C186.117 93.8507 186.251 94.1021 186.306 94.3757C186.36 94.6494 186.332 94.933 186.226 95.1908C186.119 95.4486 185.938 95.669 185.706 95.824C185.474 95.979 185.201 96.0617 184.922 96.0617C184.737 96.0617 184.553 96.0252 184.382 95.9543C184.211 95.8834 184.056 95.7795 183.925 95.6485C183.794 95.5175 183.69 95.362 183.619 95.1908C183.548 95.0197 183.511 94.8362 183.511 94.651Z" fill="#263238"/>
<path d="M177.202 94.651C177.202 94.3719 177.285 94.0992 177.44 93.8672C177.595 93.6352 177.815 93.4543 178.073 93.3476C178.331 93.2408 178.615 93.2128 178.888 93.2673C179.162 93.3217 179.413 93.4561 179.611 93.6534C179.808 93.8507 179.942 94.1021 179.997 94.3757C180.051 94.6494 180.023 94.933 179.916 95.1908C179.81 95.4486 179.629 95.669 179.397 95.824C179.165 95.979 178.892 96.0617 178.613 96.0617C178.428 96.0617 178.244 96.0252 178.073 95.9543C177.902 95.8834 177.747 95.7795 177.616 95.6485C177.485 95.5175 177.381 95.362 177.31 95.1908C177.239 95.0197 177.202 94.8362 177.202 94.651Z" fill="#263238"/>
<path d="M170.892 94.6508C170.891 94.3701 170.973 94.0954 171.128 93.8615C171.283 93.6277 171.504 93.4452 171.763 93.3373C172.023 93.2293 172.308 93.2008 172.583 93.2552C172.859 93.3097 173.112 93.4447 173.31 93.6432C173.508 93.8417 173.643 94.0947 173.698 94.37C173.752 94.6453 173.724 94.9307 173.616 95.1898C173.508 95.4488 173.326 95.67 173.092 95.8252C172.858 95.9805 172.583 96.0627 172.302 96.0615C171.928 96.0615 171.569 95.9129 171.305 95.6483C171.04 95.3838 170.892 95.0249 170.892 94.6508Z" fill="#263238"/>
<path d="M118.074 207.488C118.074 207.488 116.277 232.402 116.277 232.42C116.277 237.296 116.318 241.575 116.558 243.788C116.556 243.799 116.556 243.811 116.558 243.823C116.558 244.345 116.678 244.86 116.91 245.327C116.91 245.327 116.91 245.327 116.91 245.362C118.355 246.352 157.336 247.704 158.712 247.277C160.087 246.849 159.022 242.91 157.541 241.651C156.06 240.392 141.367 233.21 141.367 233.21L142.924 208.308L118.074 207.488Z" fill="#C29EA0"/>
<path d="M116.277 227.182V232.421C116.277 237.297 116.318 241.576 116.558 243.789C116.556 243.8 116.556 243.812 116.558 243.824C116.616 244.338 116.734 244.843 116.91 245.328C116.91 245.328 116.91 245.328 116.91 245.364C118.355 246.353 157.336 247.705 158.712 247.278C160.087 246.85 159.022 242.911 157.541 241.652C156.06 240.394 141.367 233.211 141.367 233.211L141.437 227.896L116.277 227.182Z" fill="#F2F2F7"/>
<path d="M158.748 247.277C157.372 247.687 118.391 246.352 116.939 245.363C116.383 244.994 116.249 239.298 116.278 232.42C116.278 232.35 116.278 232.274 116.278 232.203L141.449 232.789V233.216C141.449 233.216 156.143 240.399 157.624 241.663C159.105 242.928 160.129 246.867 158.748 247.277Z" fill="#74171C"/>
<path d="M158.361 245.749C151.793 245.363 125.281 244.426 118.76 244.543C118.707 244.543 118.707 244.579 118.76 244.584C125.258 245.111 151.781 245.831 158.355 245.855C158.496 245.861 158.501 245.755 158.361 245.749Z" fill="#263238"/>
<path d="M143.528 233.356C140.958 232.771 137.779 233.075 135.742 234.849C135.666 234.919 135.742 235.03 135.847 235.007C138.346 234.302 140.913 233.866 143.504 233.707C143.551 233.711 143.597 233.695 143.632 233.664C143.667 233.634 143.688 233.59 143.692 233.544C143.695 233.497 143.679 233.451 143.648 233.416C143.618 233.381 143.574 233.359 143.528 233.356Z" fill="#263238"/>
<path d="M145.355 234.545C142.785 233.96 139.612 234.264 137.569 236.038C137.493 236.108 137.569 236.219 137.674 236.196C140.173 235.486 142.739 235.045 145.331 234.879C145.353 234.88 145.375 234.878 145.396 234.871C145.417 234.864 145.436 234.853 145.453 234.838C145.469 234.824 145.483 234.806 145.493 234.787C145.502 234.767 145.508 234.746 145.51 234.724C145.511 234.702 145.509 234.68 145.502 234.659C145.495 234.638 145.484 234.619 145.469 234.602C145.455 234.586 145.437 234.572 145.418 234.562C145.398 234.553 145.377 234.547 145.355 234.545Z" fill="#263238"/>
<path d="M147.156 235.733C144.587 235.147 141.414 235.452 139.377 237.225C139.295 237.296 139.377 237.407 139.476 237.383C141.981 236.666 144.556 236.218 147.156 236.049C147.191 236.039 147.222 236.019 147.243 235.99C147.265 235.961 147.277 235.927 147.277 235.891C147.277 235.855 147.265 235.82 147.243 235.791C147.222 235.763 147.191 235.742 147.156 235.733Z" fill="#263238"/>
<path d="M114.779 233.498L142.064 232.948C142.064 232.948 145.389 183.846 144.774 167.478C144.095 149.694 136.461 96.7872 136.461 96.7872H113.415C113.415 96.7872 119.304 149.905 119.433 167.695C119.544 184.185 114.779 233.498 114.779 233.498Z" fill="#AEAEB2"/>
<path d="M131.938 96.7872L118.093 144.683C116.454 122.017 113.41 96.7872 113.41 96.7872H131.938Z" fill="#263238"/>
<path d="M117.789 99.3971L119.253 115.202L120.611 131.008C121.477 141.545 122.303 152.082 122.952 162.648C123.105 165.288 123.198 167.916 123.163 170.597C123.128 173.278 122.999 175.866 122.865 178.529C122.588 183.817 122.248 189.096 121.846 194.364C121.444 199.632 121.017 204.901 120.564 210.169L119.095 225.975L120.265 210.169C120.656 204.897 121.026 199.629 121.378 194.364C121.711 189.096 122.068 183.827 122.314 178.559C122.439 175.92 122.529 173.28 122.584 170.638C122.584 168.004 122.507 165.37 122.349 162.736C121.764 152.199 120.939 141.662 120.166 131.096L117.789 99.3971Z" fill="#263238"/>
<path d="M140.923 228.398C136.662 228.362 137.885 228.31 133.629 228.321C131.54 228.321 117.824 228.374 115.898 228.72C115.857 228.72 115.857 228.802 115.898 228.807C117.853 229.106 131.545 228.807 133.629 228.772C137.891 228.679 136.667 228.661 140.923 228.521C140.936 228.516 140.948 228.508 140.956 228.497C140.964 228.486 140.968 228.473 140.968 228.459C140.968 228.445 140.964 228.432 140.956 228.421C140.948 228.41 140.936 228.402 140.923 228.398Z" fill="#263238"/>
<path d="M73.7204 194.131C73.7204 194.131 60.5551 215.52 60.5493 215.538C58.4068 219.923 56.6155 223.804 55.8662 225.899C55.8637 225.911 55.8637 225.923 55.8662 225.934C55.6394 226.407 55.5232 226.926 55.5267 227.451C55.5267 227.451 55.5267 227.48 55.5267 227.486C56.4223 229.025 90.96 247.114 92.3766 247.342C93.7932 247.57 94.5484 243.543 93.7698 241.775C92.9913 240.007 82.8524 227.14 82.8524 227.14L95.7953 205.651L73.7204 194.131Z" fill="#C29EA0"/>
<path d="M55.5268 227.451C55.5244 227.464 55.5244 227.478 55.5268 227.492C56.4225 229.025 90.9601 247.114 92.3768 247.342C93.7934 247.57 94.5485 243.543 93.77 241.775C92.9914 240.007 82.8584 227.14 82.8584 227.14L85.1648 223.306C79.5159 220.297 69.2541 215.011 62.8793 211.739C61.4919 213.987 60.5377 215.526 60.5377 215.532C58.3952 219.917 56.5981 223.798 55.8546 225.894C55.8521 225.905 55.8521 225.917 55.8546 225.929C55.6234 226.402 55.5109 226.924 55.5268 227.451Z" fill="#F2F2F7"/>
<path d="M92.3766 247.342C90.9599 247.119 56.4223 229.025 55.5325 227.486C55.1929 226.9 57.5345 221.725 60.5492 215.538L60.6429 215.345L83.0631 226.777L82.8582 227.152C82.8582 227.152 92.9795 239.995 93.7639 241.786C94.5483 243.578 93.7932 247.576 92.3766 247.342Z" fill="#74171C"/>
<path d="M92.7165 245.796C86.968 242.606 63.4824 230.26 57.5583 227.538C57.5056 227.538 57.488 227.538 57.5583 227.573C63.1897 230.863 86.7748 243.021 92.6814 245.895C92.7633 245.954 92.8101 245.866 92.7165 245.796Z" fill="#263238"/>
<path d="M84.6893 228.199C82.6229 226.572 79.6375 225.454 77.0325 226.168C76.9271 226.197 76.9681 226.338 77.0325 226.355C79.5969 226.797 82.1068 227.511 84.5196 228.486C84.5576 228.509 84.603 228.515 84.6459 228.504C84.6887 228.493 84.7254 228.466 84.7479 228.428C84.7704 228.39 84.7769 228.344 84.7659 228.301C84.7549 228.258 84.7274 228.222 84.6893 228.199Z" fill="#263238"/>
<path d="M85.8254 230.061C83.759 228.434 80.7677 227.316 78.1627 228.036C78.0632 228.036 78.1042 228.206 78.192 228.217C80.7605 228.658 83.2744 229.372 85.6908 230.348C85.725 230.351 85.7591 230.343 85.7887 230.325C85.8183 230.308 85.842 230.282 85.8566 230.251C85.8711 230.22 85.876 230.185 85.8704 230.151C85.8648 230.118 85.8491 230.086 85.8254 230.061Z" fill="#263238"/>
<path d="M86.9558 231.951C84.8894 230.324 81.9039 229.206 79.2931 229.92C79.1936 229.949 79.2346 230.09 79.3224 230.107C81.883 230.546 84.3892 231.259 86.7977 232.232C86.834 232.245 86.8734 232.244 86.9093 232.231C86.9451 232.217 86.9749 232.191 86.9937 232.158C87.0125 232.124 87.019 232.085 87.0121 232.048C87.0051 232.01 86.9852 231.976 86.9558 231.951Z" fill="#263238"/>
<path d="M134.103 96.7629C134.004 97.2371 132.388 104.718 130.72 111.14C129.508 115.823 128.255 119.95 127.541 120.377C126.727 120.857 122.77 122.614 121.441 123.164C121.441 123.164 112.543 167.594 107.843 181.369C103.511 194.083 85.5689 228.065 85.5689 228.065L59.5369 214.911C59.5369 214.911 79.838 180.438 81.9981 174.262C85.3113 164.668 97.7215 117.831 97.7215 117.831C97.7215 117.831 97.6278 103.167 102.568 96.7571L134.103 96.7629Z" fill="#AEAEB2"/>
<path d="M85.1763 223.014C81.4591 220.935 82.5538 221.48 78.8132 219.443C76.9809 218.448 64.9396 211.909 63.0722 211.277C63.0618 211.274 63.0508 211.275 63.0411 211.279C63.0313 211.284 63.0233 211.291 63.0185 211.301C63.0137 211.311 63.0124 211.322 63.0147 211.332C63.017 211.342 63.0228 211.352 63.0312 211.359C64.6001 212.529 76.7468 218.881 78.6025 219.841C82.3782 221.808 81.3186 221.199 85.1178 223.125C85.188 223.172 85.2466 223.049 85.1763 223.014Z" fill="#263238"/>
<path d="M104.424 113.751C105.138 113.57 105.899 113.511 106.631 113.394C107.217 113.3 107.802 113.201 108.387 113.072C109.491 112.868 110.536 112.425 111.449 111.772C112.456 110.988 112.971 109.794 113.457 108.652C113.744 107.973 114.042 107.3 114.346 106.627C114.493 106.299 114.639 105.977 114.791 105.655C114.997 105.276 115.181 104.885 115.342 104.484C115.342 104.432 115.453 104.484 115.429 104.484C115.33 104.76 115.248 105.041 115.184 105.327C115.084 105.655 114.99 105.983 114.891 106.311C114.709 106.896 114.534 107.482 114.341 108.067C114.05 109.135 113.633 110.165 113.1 111.134C112.023 112.844 110.102 113.534 108.182 113.774C107.632 113.845 107.076 113.886 106.52 113.915C105.823 113.976 105.121 113.976 104.424 113.915C104.411 113.906 104.4 113.894 104.393 113.879C104.385 113.865 104.381 113.849 104.381 113.833C104.381 113.817 104.385 113.801 104.393 113.787C104.4 113.772 104.411 113.76 104.424 113.751Z" fill="#263238"/>
<path d="M129.637 119.353C126.814 120.381 124.086 121.652 121.483 123.152C121.463 123.164 121.448 123.182 121.441 123.204C121.434 123.226 121.436 123.25 121.445 123.271C121.455 123.292 121.471 123.308 121.492 123.318C121.513 123.327 121.537 123.329 121.559 123.322C124.304 122.151 127.108 120.98 129.789 119.681C129.828 119.658 129.858 119.621 129.871 119.578C129.885 119.535 129.882 119.488 129.863 119.447C129.844 119.406 129.81 119.374 129.768 119.356C129.726 119.339 129.68 119.338 129.637 119.353Z" fill="#263238"/>
<path d="M130.466 100.533C130.466 100.433 130.29 100.416 130.29 100.533C130.291 103.6 130.136 106.666 129.828 109.718C129.699 111.134 128.564 118.955 126.111 118.387C125.695 118.288 125.49 117.884 125.426 117.263C125.432 116.455 125.54 115.65 125.748 114.869C126.023 113.23 126.24 111.585 126.38 109.934C126.666 106.854 126.633 103.752 126.281 100.679C126.276 100.662 126.266 100.647 126.251 100.636C126.237 100.625 126.22 100.619 126.202 100.619C126.184 100.619 126.166 100.625 126.152 100.636C126.138 100.647 126.127 100.662 126.123 100.679C126.198 104.952 125.947 109.224 125.373 113.458C125.069 115.489 124.044 118.551 126.169 118.867C128.294 119.183 129.74 114.055 130.004 112.65C130.685 108.649 130.841 104.575 130.466 100.533Z" fill="#263238"/>
<path d="M126.177 118.581C125.946 119.108 125.751 119.65 125.592 120.203C125.435 120.628 125.358 121.079 125.364 121.532C125.366 121.551 125.374 121.568 125.387 121.582C125.4 121.596 125.416 121.606 125.435 121.61C125.453 121.615 125.472 121.614 125.49 121.607C125.507 121.6 125.523 121.588 125.533 121.573C125.791 121.171 125.988 120.733 126.119 120.273C126.306 119.77 126.499 119.272 126.704 118.769C126.729 118.699 126.725 118.622 126.693 118.555C126.661 118.488 126.604 118.437 126.534 118.412C126.465 118.387 126.388 118.391 126.321 118.423C126.254 118.454 126.202 118.512 126.177 118.581Z" fill="#263238"/>
<path d="M66.5551 210.615C70.2606 203.643 74.0831 196.729 77.9174 189.828C79.8082 186.421 81.7751 183.055 83.5839 179.607C85.2752 176.189 86.647 172.623 87.6816 168.953C89.9763 161.499 92.1481 154.012 94.1969 146.492C96.2458 138.971 98.1697 131.42 99.9688 123.837C100.42 121.941 100.917 120.044 101.28 118.13C101.606 116.192 101.606 114.214 101.28 112.276C101.001 110.473 100.985 108.639 101.233 106.832C101.526 105.031 101.953 103.254 102.509 101.517C102.796 100.603 103.095 99.6901 103.423 98.7828C103.43 98.7618 103.445 98.7445 103.464 98.7346C103.484 98.7247 103.507 98.7231 103.528 98.7301C103.549 98.7371 103.566 98.7521 103.576 98.7719C103.586 98.7916 103.588 98.8145 103.581 98.8354C102.457 102.506 101.309 106.217 101.555 110.11C101.666 111.977 102.141 113.815 102.141 115.695C102.023 117.563 101.707 119.413 101.198 121.215C99.4303 128.84 97.5297 136.437 95.4965 144.004C93.4632 151.571 91.3168 159.101 89.0572 166.594C87.9509 170.241 86.9206 173.94 85.3518 177.417C83.7829 180.895 81.7926 184.196 79.9252 187.527C76.0559 194.405 72.1572 201.266 68.1707 208.074C67.6673 208.933 67.16 209.793 66.6487 210.656C66.6078 210.726 66.5258 210.673 66.5551 210.615Z" fill="#263238"/>
<path d="M122.514 62.7754C128.906 76.4558 139.326 93.0924 145.004 93.3968C145.987 93.4436 149.951 92.9812 151.566 89.2991C154.3 83.0823 156.893 70.6722 157.274 64.7657C157.443 62.149 139.853 59.4621 139.314 62.2134C138.553 66.0711 138.143 70.2156 137.728 70.1688C137.037 70.0868 134.139 65.7433 127.343 58.5255C118.896 49.534 120.131 57.6708 122.514 62.7754Z" fill="#C29EA0"/>
<path d="M159.848 57.6941C159.392 61.3762 155.51 68.5472 153.912 69.9111C152.314 71.2751 139.904 65.1168 139.488 62.9743C139.073 60.8318 141.561 48.5739 144.271 45.9279C146.981 43.282 160.316 53.8774 159.848 57.6941Z" fill="#C29EA0"/>
<path d="M139.547 60.8089C138.782 57.9092 137.599 55.1365 136.034 52.5784C134.061 49.5988 130.766 45.3957 132.352 44.2718C135.56 41.9712 143.714 52.4671 143.714 52.4671C143.714 52.4671 146.565 57.6712 143.592 60.2352C143.035 60.6932 142.363 60.9891 141.65 61.0903C140.936 61.1915 140.208 61.0941 139.547 60.8089Z" fill="#C29EA0"/>
<path d="M147.258 58.2573L151.525 56.308L145.888 43.9564L140.491 46.4209L147.258 58.2573Z" fill="#74171C"/>
<path d="M140.491 46.415L143.072 50.9342L147.258 58.2573L151.525 56.3139L145.888 43.9564L140.491 46.415Z" fill="#74171C"/>
<path opacity="0.1" d="M140.491 46.415L143.072 50.9342L148.037 48.6688L145.888 43.9564L140.491 46.415Z" fill="#1C1C1E"/>
<path d="M140.817 48.4582L147.533 45.3947L145.206 40.2925L138.49 43.356L140.817 48.4582Z" fill="#48484A"/>
<path d="M133.141 43.5573L138.597 41.6958L134.827 33.436L129.845 36.3395L133.141 43.5573Z" fill="#636366"/>
<path d="M136.766 30.5793L142.327 42.767L151.558 39.8167L175.331 38.0196L161.984 8.75621L145.043 25.5333L136.766 30.5793Z" fill="#AEAEB2"/>
<path d="M164.409 25.3121C168.115 33.4372 173.231 39.051 175.842 37.8627C178.453 36.6744 177.569 29.1229 173.863 21.0036C170.158 12.8843 165.036 7.2588 162.425 8.45299C159.814 9.64717 160.704 17.2103 164.409 25.3121Z" fill="#EBEBEB"/>
<path opacity="0.2" d="M175.216 35.8738C177.355 34.8984 176.422 28.2633 173.134 21.0538C169.845 13.8444 165.446 8.79075 163.307 9.76618C161.169 10.7416 162.101 17.3768 165.39 24.5862C168.679 31.7956 173.078 36.8493 175.216 35.8738Z" fill="#F2F2F7"/>
<path d="M166.023 24.2873C166.462 25.2473 166.919 26.1722 167.393 27.0445C167.98 27.1973 168.599 27.1803 169.177 26.9955C169.756 26.8106 170.27 26.4655 170.659 26.0002C171.049 25.535 171.299 24.9686 171.38 24.3669C171.461 23.7653 171.369 23.1531 171.116 22.6014L170.484 21.214C170.233 20.6652 169.832 20.1983 169.327 19.8671C168.823 19.5358 168.235 19.3536 167.632 19.3414C167.028 19.3292 166.434 19.4874 165.916 19.798C165.399 20.1085 164.979 20.5587 164.706 21.097C165.086 22.1389 165.531 23.2102 166.023 24.2873Z" fill="#AEAEB2"/>
<path d="M137.915 45.5949L148.463 42.0006L141.181 26.0314L131.546 31.6393L137.915 45.5949Z" fill="#48484A"/>
<path opacity="0.2" d="M137.915 45.5949L148.463 42.0006L141.181 26.0314L131.546 31.6393L137.915 45.5949Z" fill="#636366"/>
<path opacity="0.2" d="M161.527 11.3851C161.237 12.5659 161.161 13.7894 161.305 14.9969C161.422 16.2058 161.633 17.4036 161.937 18.5795C162.072 19.1649 162.265 19.7503 162.429 20.3357C162.593 20.921 162.815 21.5064 163.014 22.0508C163.213 22.5952 163.441 23.1865 163.681 23.7426C163.921 24.2987 164.156 24.8607 164.407 25.4109C165.409 27.6296 166.612 29.7518 168.001 31.7506C168.7 32.7419 169.483 33.6703 170.343 34.5254C171.193 35.3954 172.216 36.0775 173.346 36.5274C172.251 36.0206 171.269 35.2978 170.46 34.4024C169.628 33.5351 168.876 32.5947 168.212 31.5926C166.86 29.5955 165.685 27.484 164.7 25.2821C163.665 23.1078 162.815 20.8499 162.159 18.5327C161.827 17.3828 161.586 16.2083 161.439 15.0204C161.256 13.8128 161.285 12.5824 161.527 11.3851Z" fill="#1C1C1E"/>
<path d="M140.916 50.8333C141.718 52.6246 143.375 50.6518 143.375 50.6518C143.375 50.6518 141.677 54.0705 143.223 55.5983C144.768 57.1262 146.629 54.6149 146.77 54.4275C146.682 54.609 145.201 57.7876 146.91 59.1691C148.62 60.5507 150.189 57.8052 150.282 57.6237C150.282 57.8228 149.908 60.4394 151.453 61.1887C154.093 62.4824 155.164 55.809 157.149 54.4978C157.149 54.4978 159.754 57.6062 159.853 57.6823C159.853 57.6823 161.024 51.3601 159.081 48.7786C158.806 48.3995 158.411 48.1252 157.96 48.0007C157.509 47.8762 157.029 47.909 156.599 48.0937C156.599 48.0937 157.184 46.0975 155.884 44.9677C155.211 44.3823 153.689 44.9677 153.689 44.9677C153.8 44.509 153.781 44.0287 153.637 43.5795C153.492 43.1303 153.227 42.7296 152.87 42.4213C151.892 41.6779 150.528 42.3569 150.528 42.3569C150.528 42.3569 150.2 40.6008 148.953 40.1851C146.419 39.2954 139.201 46.9697 140.916 50.8333Z" fill="#C29EA0"/>
<path d="M150.277 42.4338C150.283 42.4291 150.288 42.4222 150.289 42.4145C150.29 42.4068 150.288 42.399 150.283 42.3928C150.278 42.3866 150.272 42.3825 150.264 42.3814C150.256 42.3803 150.248 42.3823 150.242 42.387C147.127 44.4058 144.698 47.3228 143.276 50.7521C143.235 50.8633 143.393 50.9804 143.463 50.8633C145.313 47.7371 147.608 44.8974 150.277 42.4338Z" fill="#263238"/>
<path d="M153.702 44.916C153.731 44.916 153.702 44.8399 153.65 44.8633C150.24 47.1222 147.748 50.5247 146.625 54.4577C146.59 54.5982 146.695 54.7563 146.748 54.5982C147.632 51.964 151.167 47.1931 153.702 44.916Z" fill="#263238"/>
<path d="M150.312 57.9403C151.447 54.106 153.695 51.021 156.464 48.1819C156.499 48.1468 156.464 48.1 156.406 48.1234C154.649 49.1419 153.098 51.1322 152.004 52.8064C150.958 54.3229 150.328 56.087 150.177 57.9227C150.171 57.9754 150.288 58.0222 150.312 57.9403Z" fill="#263238"/>
<path d="M143.31 50.6692C143.263 50.8038 143.509 50.7336 143.462 50.8624C143.269 51.4477 142.385 54.9132 143.462 55.5806C144.34 56.1133 145.663 55.3054 146.056 54.7961L147.027 53.5083L146.559 55.0537C146.344 55.7389 146.243 56.4548 146.261 57.1728C146.252 57.5 146.312 57.8253 146.437 58.1278C146.562 58.4303 146.749 58.7032 146.986 58.929C147.212 59.1404 147.502 59.268 147.811 59.2903C148.119 59.3127 148.425 59.2285 148.678 59.0519C149.238 58.6434 149.685 58.0996 149.978 57.4714L150.838 55.7679L150.581 57.6528C150.513 58.1775 150.513 58.7087 150.581 59.2334C150.619 59.7344 150.804 60.2131 151.113 60.609C151.26 60.7804 151.452 60.9074 151.667 60.9757C151.882 61.0439 152.112 61.0508 152.331 60.9954C152.803 60.7984 153.209 60.4716 153.502 60.0529C154.148 59.1558 154.722 58.2083 155.217 57.2196C155.486 56.7338 155.755 56.2362 156.054 55.7562C156.321 55.2592 156.69 54.8242 157.137 54.48C156.736 54.8649 156.414 55.3242 156.189 55.8323C155.931 56.3299 155.703 56.8391 155.474 57.3484C155.033 58.3908 154.496 59.3902 153.871 60.3339C153.538 60.8494 153.062 61.2564 152.501 61.5046C152.181 61.6119 151.837 61.6231 151.512 61.5367C151.186 61.4503 150.893 61.2702 150.668 61.0188C150.27 60.5396 150.024 59.9527 149.96 59.3329C149.885 58.7499 149.885 58.1597 149.96 57.5767L150.546 57.7582C150.214 58.5053 149.691 59.1516 149.029 59.6314C148.657 59.891 148.205 60.0112 147.753 59.9709C147.32 59.9142 146.912 59.731 146.583 59.4441C146.278 59.1528 146.038 58.8004 145.878 58.4101C145.719 58.0197 145.644 57.6001 145.658 57.1787C145.651 56.3832 145.775 55.592 146.026 54.8371L146.53 55.0947C146.015 55.7269 144.633 56.7923 143.17 56.1367C141.39 55.0303 142.977 51.3248 143.31 50.6692Z" fill="#263238"/>
<path d="M143.376 50.6522C143.06 50.8994 142.709 51.0968 142.334 51.2376C142.183 51.2992 142.019 51.3203 141.858 51.2987C141.696 51.2771 141.544 51.2137 141.415 51.1147C141.166 50.8531 140.998 50.5261 140.929 50.1722C140.835 49.7917 140.759 49.3819 140.689 48.9546C140.54 49.3668 140.479 49.8052 140.507 50.2424C140.514 50.7303 140.714 51.1955 141.063 51.5361C141.264 51.702 141.512 51.7998 141.772 51.8156C142.032 51.8314 142.29 51.7643 142.509 51.6239C142.895 51.4018 143.199 51.061 143.376 50.6522Z" fill="#263238"/>
<path d="M160.117 69.5014L139.266 61.5401C139.266 61.5401 137.843 69.8292 137.598 69.8701C137.352 69.9111 131.264 61.0601 124.719 55.6102C118.175 50.1603 119.053 56.939 121.037 62.6348C123.589 69.9579 134.191 92.9987 139.032 94.6085C143.873 96.2183 151.325 92.8523 152.402 90.8093C153.883 87.9936 160.117 69.5014 160.117 69.5014Z" fill="#74171C"/>
<path opacity="0.1" d="M144.816 89.3109V86.8113H147.491V85.6054H144.816V83.1468H147.491V82.8131H141.304V83.1468H143.593V85.6054H141.304V86.823H143.593V89.3226H134.08C134.15 89.4397 134.226 89.5509 134.302 89.6563H152.912C152.951 89.5509 152.998 89.4397 153.052 89.3226L144.816 89.3109ZM130.24 82.8014L130.421 83.1351H155.353C155.394 83.0239 155.435 82.9126 155.47 82.8014H130.24ZM154.334 76.2861V73.8333H154.001V76.2861H151.308V73.8333H150.084V76.2861H126.915C126.968 76.3973 127.02 76.5144 127.079 76.6256H157.694C157.73 76.5144 157.771 76.409 157.806 76.2978L154.334 76.2861ZM137.657 69.8C137.657 69.8586 137.616 69.8937 137.598 69.8937C137.581 69.8937 137.546 69.8644 137.487 69.8H125.346V70.1396H130.615V72.6391H131.832V70.1396H134.455V72.6391H131.832V73.8567H134.455V76.3095H134.794V73.8567H137.101V76.3095H134.794V76.649H147.479V76.3095H144.816V73.8567H147.491V76.3095H147.825V73.8567H156.576V72.6391H154.334V70.1396H159.913C159.96 70.0049 160.001 69.8937 160.03 69.8H137.657ZM143.598 70.1396V72.6391H141.304V70.1396H143.598ZM140.97 70.1396V72.6391H138.324V70.1396H140.97ZM134.8 72.6391V70.1396H137.106V72.6391H134.8ZM138.312 76.3095V73.8567H140.958V76.3095H138.312ZM143.581 76.3095H141.304V73.8567H143.593L143.581 76.3095ZM144.793 72.6391V70.1396H147.468V72.6391H144.793ZM147.801 72.6391V70.1396H150.084V72.6391H147.801ZM153.977 72.6391H151.284V70.1396H153.977V72.6391ZM124.041 70.1396H124.111V69.8H123.894C123.959 69.8878 124.006 70.0049 124.058 70.1161L124.041 70.1396ZM143.774 63.2906H138.962C138.962 63.3959 138.921 63.513 138.904 63.6301H144.681L143.774 63.2906ZM132.219 63.2906H125.346V63.6301H132.523L132.219 63.2906ZM121.225 63.2906L121.348 63.6301H124.111V63.2906H121.225ZM126.002 56.7811H125.329V57.1148H126.365L126.002 56.7811ZM119.562 56.7811C119.562 56.8923 119.562 57.0035 119.562 57.1148H124.058V56.7811H119.562ZM153.954 67.1892V69.8H151.261V67.3414H150.084V76.2861H147.485V79.1018H144.816V76.6256H143.604V82.8014H144.816V80.3369H147.491V82.819H147.825V80.3369H150.084V82.819H151.302V80.3369H153.995V86.8932C154.005 86.8653 154.017 86.838 154.03 86.8113C154.124 86.5479 154.229 86.2786 154.328 85.9976V67.2653L153.954 67.1892ZM147.778 79.1252V76.649H150.084V79.1252H147.778ZM153.954 79.1252H151.261V76.649H153.954V79.1252ZM153.954 76.3095H151.261V73.8567H153.954V76.3095ZM153.954 72.6391H151.261V70.1396H153.954V72.6391ZM147.444 64.7013V79.1252H144.816V76.649H143.604V82.8248H144.816V80.3369H147.491V93.9471L147.825 93.8242V64.8067L147.444 64.7013ZM141.304 79.1018V62.3188L140.964 62.19V94.9715H141.304V80.3369H143.593V79.1193L141.304 79.1018ZM141.304 79.1018V76.6256H140.964V79.1018H138.318V76.6256H137.101V79.1018H134.794V66.3872C134.73 66.2994 134.66 66.2175 134.589 66.1297L134.455 65.9599V69.8H131.832V67.3414H130.615V69.8H128.273V70.1396H130.615V72.6391H131.832V70.1396H134.455V72.6391H131.832V73.8567H134.455V89.908L134.794 90.3997V86.8347H137.101V89.3343H138.318V86.8347H140.964V89.3343H141.304V80.3369H143.593V79.1193L141.304 79.1018ZM134.8 80.3369H137.106V82.819H134.8V80.3369ZM134.8 85.6054V83.1468H137.106V85.6054H134.8ZM140.97 85.6054H138.324V83.1468H140.97V85.6054ZM140.97 82.8131H138.324V80.3369H140.97V82.8131ZM128.285 72.6274V58.9353L127.951 58.6016V63.2847H125.346V63.6242H127.951V78.4169L128.285 79.0842V73.8509H130.626V76.3036H131.844V72.6333L128.285 72.6274ZM121.442 53.6785V63.8174L121.775 64.6838V53.7605C121.666 53.7227 121.555 53.6914 121.442 53.6668V53.6785ZM147.819 92.0915V89.6446H150.084V89.3109H144.816V86.8113H147.491V85.6054H144.816V83.1468H147.491V82.8131H141.304V83.1468H143.593V85.6054H141.304V86.823H143.593V89.3226H141.304V89.6563H143.593V92.0915H136.088C136.439 92.5246 136.779 92.911 137.106 93.2622L137.171 93.3266H149.007C149.394 93.1452 149.751 92.9578 150.084 92.7705C150.418 92.5832 150.81 92.3256 151.115 92.109L147.819 92.0915ZM144.81 92.0915V89.6446H147.485V92.0798L144.81 92.0915ZM151.302 85.6054V83.1468H153.995V82.8131H141.304V83.1468H143.593V85.6054H131.797C131.808 85.6319 131.822 85.6574 131.838 85.6815C132.06 86.0718 132.283 86.4523 132.505 86.823H154.03C154.124 86.5596 154.229 86.2903 154.328 86.0093L154.481 85.6054H151.302ZM144.816 85.6054V83.1468H147.491V85.6054H144.816ZM147.825 85.6054V83.1468H150.084V85.6054H147.825ZM128.308 79.1135C128.513 79.5233 128.724 79.9272 128.929 80.3311H156.389C156.448 80.1496 156.512 79.974 156.576 79.7925L156.816 79.1135H128.308ZM125.352 72.6274V72.9787C125.481 73.2655 125.615 73.564 125.756 73.845H134.466V76.2978H134.806V73.845H137.112V76.2978H134.806V76.6373H147.491V76.2978H144.816V73.845H147.491V76.2978H147.825V73.845H158.643C158.795 73.4177 158.935 73.0079 159.064 72.6274H125.352ZM138.33 76.2978V73.845H140.976V76.2978H138.33ZM143.598 76.2978H141.304V73.845H143.593L143.598 76.2978ZM154.328 67.3004L153.995 67.1775L151.302 66.1472H138.424C138.383 66.358 138.342 66.5629 138.307 66.7677C138.271 66.9726 138.23 67.1658 138.189 67.3531H140.952V69.8H138.307V70.1396H140.952V72.6391H138.307V73.8567H140.952V76.3095H138.307V76.649H147.468V76.3095H144.816V73.8567H147.491V76.3095H147.825V73.8567H150.084V72.6391H147.819V70.1396H150.084V69.8H147.819V67.3414H154.463L154.328 67.3004ZM141.304 67.3414H143.593V69.8H141.304V67.3414ZM141.304 70.1161H143.593V72.6157H141.304V70.1161ZM143.593 76.2861H141.304V73.8333H143.593V76.2861ZM147.479 72.6157H144.816V70.1161H147.491L147.479 72.6157ZM147.479 69.7766H144.816V67.3414H147.491L147.479 69.7766ZM134.794 66.3872C134.73 66.2994 134.66 66.2175 134.589 66.1297H125.34V67.3414H135.549L134.794 66.3872ZM122.864 67.3414H124.128V66.1297H122.372C122.519 66.5219 122.688 66.9258 122.864 67.3414ZM128.964 59.6378H125.346V60.8554H130.105C129.731 60.4339 129.356 60.0417 128.964 59.6378ZM120.113 59.6378C120.212 60.0417 120.323 60.4456 120.446 60.8554H124.128V59.6378H120.113ZM121.775 53.7839C121.666 53.7461 121.555 53.7149 121.442 53.6903C121.135 53.5744 120.795 53.583 120.494 53.7143C120.193 53.8455 119.956 54.0889 119.832 54.3927H123.005C122.619 54.1371 122.207 53.925 121.775 53.7605V53.7839ZM156.57 68.1727V76.649H157.694C157.73 76.5378 157.771 76.4324 157.806 76.3212V68.6293L156.57 68.1727ZM156.57 79.1252V79.8042L156.81 79.1252H156.57ZM151.302 66.1531L150.084 65.7023V76.3154H147.485V79.1311H144.816V76.6549H143.604V82.8307H144.816V80.3369H147.491V89.3284H147.825V86.8289H150.084V92.7588C150.465 92.5364 150.81 92.3139 151.115 92.0973L151.302 91.9568V66.1297V66.1531ZM150.084 85.6054H147.819V83.1468H150.084V85.6054ZM150.084 82.8131H147.819V80.3369H150.084V82.8131ZM150.084 79.1135H147.819V76.6373H150.084V79.1135ZM144.681 63.6184L143.792 63.2788L143.598 63.2086V66.1355H141.304V67.3473H143.593V69.8H141.304V70.1396H143.593V72.6391H141.304V73.8567H143.593V76.3095H141.304V76.649H143.593V94.9306C143.996 94.8779 144.406 94.8076 144.804 94.7257V63.7003L144.681 63.6184ZM141.304 79.1018V76.6256H140.964V79.1018H138.318V66.7502C138.277 66.9492 138.242 67.1482 138.201 67.3356C138.059 68.156 137.875 68.9688 137.651 69.7708C137.651 69.8293 137.61 69.8644 137.592 69.8644C137.575 69.8644 137.54 69.8351 137.481 69.7708C137.346 69.6254 137.219 69.4729 137.101 69.3142V93.2154L137.165 93.2798C137.522 93.6404 137.914 93.964 138.336 94.2457V89.6446H140.982V92.0798H141.304V80.3369H143.593V79.1193L141.304 79.1018ZM140.964 89.3109H138.318V86.8113H140.964V89.3109ZM140.964 85.5937H138.318V83.1351H140.964V85.5937ZM140.964 82.8014H138.318V80.3369H140.964V82.8014ZM141.304 79.1018V76.6256H140.964V79.1018H138.318V76.6256H137.101V79.1018H134.794V76.2861H131.832V62.8222C131.44 62.3656 131.03 61.9032 130.615 61.4407V66.1238H128.273V63.6008H127.939V67.3356H130.609V69.8H128.267V70.1396H130.609V83.5331C131.001 84.2473 131.393 84.9439 131.779 85.6171C131.791 85.6436 131.805 85.6691 131.82 85.6932V83.1585H134.443V85.6054H134.782V83.1468H137.089V85.6054H138.307V83.1468H140.952V85.6054H141.304V80.3369H143.593V79.1193L141.304 79.1018ZM131.832 76.6256H134.455V79.1018H131.832V76.6256ZM131.832 82.8014V80.3369H134.455V82.819L131.832 82.8014ZM134.794 82.8014V80.3369H137.101V82.819L134.794 82.8014ZM140.964 82.8014H138.318V80.3369H140.964V82.8014ZM127.951 67.3414V69.8H125.346V70.1396H127.951V72.6391H128.285V67.3707L127.951 67.3414ZM125.346 66.1297V67.3414H127.951V66.1297H125.346ZM121.775 60.8612H124.117V59.6436H121.775V60.8612Z" fill="#1C1C1E"/>
<path opacity="0.1" d="M125.346 56.1606V72.6158H125.182C124.819 71.8138 124.462 71.0353 124.128 70.2743V55.1655L124.714 55.6221L125.346 56.1606Z" fill="#1C1C1E"/>
<path d="M157.414 72.0246C156.723 71.6558 150.214 69.285 148.785 68.7992L144.506 67.3474C143.031 66.8557 141.55 66.2762 140.04 65.8957C140.027 65.8957 140.015 65.8995 140.005 65.9067C139.995 65.9139 139.988 65.924 139.984 65.9357C139.98 65.9473 139.98 65.9599 139.984 65.9717C139.987 65.9834 139.995 65.9937 140.005 66.001C141.415 66.6508 142.931 67.125 144.389 67.6635L148.715 69.2499C150.155 69.7709 156.647 71.9778 157.39 72.1241C157.455 72.1417 157.461 72.048 157.414 72.0246Z" fill="#263238"/>
<path opacity="0.1" d="M147.908 93.801C145.162 94.8898 141.685 95.5162 139.01 94.6264C134.169 93.0224 123.567 69.9817 121.015 62.6585C119.768 59.0818 118.949 55.0485 120.149 53.948L147.908 93.801Z" fill="#1C1C1E"/>
<path d="M137.604 69.9756C137.464 71.0995 137.388 72.2293 137.329 73.3591C137.271 74.4889 137.253 75.6245 137.259 76.7543C137.265 77.8841 137.3 79.0198 137.394 80.1496C137.474 81.2805 137.617 82.4061 137.821 83.5214C137.821 82.936 137.78 82.3916 137.78 81.8296C137.78 81.2676 137.78 80.6998 137.745 80.1379L137.716 76.7543L137.681 73.365V71.6732C137.634 71.1054 137.634 70.5434 137.604 69.9756Z" fill="#263238"/>
<path d="M97.5914 109.022C97.6968 109.127 138.937 106.481 139.294 106.019C139.517 105.72 128.488 61.2485 124.724 55.781C122.968 53.2697 116.452 52.7019 113.742 55.2483C106.969 61.6056 102.257 82.2111 101.262 88.3869C99.6168 98.5667 97.2109 108.641 97.5914 109.022Z" fill="#74171C"/>
<path opacity="0.1" d="M99.3953 98.6941V108.938L98.1777 109.003V104.905C98.3065 104.232 98.4528 103.488 98.6109 102.692C98.6109 102.581 98.6519 102.47 98.6753 102.353C98.8333 101.551 99.0031 100.702 99.1787 99.8063C99.249 99.4258 99.3192 99.0687 99.3953 98.6941ZM104.734 73.8328L104.664 74.0611V108.599L105.881 108.523V70.2268C105.612 71.0073 105.355 71.8035 105.109 72.6152C105.009 73.0191 104.857 73.4289 104.734 73.8328ZM112.344 56.7571L112.092 57.0908C111.764 57.524 111.443 57.9806 111.132 58.4723V108.23L112.35 108.154V56.7571H112.344ZM117.612 53.6605V107.779L118.83 107.691V53.5902C118.433 53.5911 118.036 53.6145 117.642 53.6605H117.612ZM125.222 56.7571C125.06 56.4167 124.874 56.0881 124.666 55.7737C124.503 55.5325 124.306 55.3157 124.081 55.1298V107.323L125.299 107.241V56.8976L125.222 56.7571ZM131.738 76.6251C131.709 76.5139 131.673 76.4026 131.644 76.2856L130.948 73.8328C130.825 73.423 130.708 73.0191 130.59 72.6152C130.584 72.5811 130.574 72.5477 130.561 72.5157V106.848L131.779 106.749V76.7656C131.826 76.7187 131.808 76.6719 131.796 76.6251H131.738ZM137.826 99.7829C137.732 99.3965 137.633 98.9926 137.533 98.5711C137.375 97.9565 137.217 97.3067 137.047 96.6335V106.304L137.363 106.275L138.265 106.175V101.586L137.826 99.7829ZM121.775 53.9941L121.441 53.9122C120.596 53.7079 119.729 53.6077 118.859 53.6136C118.452 53.6133 118.046 53.6368 117.642 53.6839C116.825 53.7618 116.024 53.9591 115.265 54.2693L115.054 54.3629H122.887C122.525 54.2138 122.154 54.0906 121.775 53.9941ZM126.499 59.6606H110.447C110.219 60.0528 109.997 60.4568 109.774 60.8782H126.943C126.791 60.4333 126.668 60.0236 126.499 59.6372V59.6606ZM128.694 66.1526H107.38C107.222 66.5506 107.064 66.9545 106.912 67.3643H129.074C128.945 66.9311 128.823 66.5272 128.694 66.1291V66.1526ZM130.649 72.6386H105.109C104.98 73.0425 104.857 73.4523 104.734 73.8562H131.006C130.883 73.423 130.766 73.0191 130.649 72.6152V72.6386ZM132.487 79.1247H103.253C103.148 79.5403 103.048 79.9442 102.949 80.3423H132.803L132.487 79.1247ZM134.46 86.4068L134.278 85.6049H101.778C101.69 86.0381 101.614 86.442 101.538 86.8225H134.571L134.46 86.4068ZM135.947 92.1026H100.636C100.56 92.5124 100.49 92.9163 100.414 93.3202H136.257C136.157 92.8988 136.035 92.489 135.947 92.0792V92.1026ZM137.592 98.5946H99.3953V98.7175C99.3192 99.0863 99.249 99.4492 99.1787 99.8063H137.884C137.791 99.3965 137.691 98.9926 137.592 98.5711V98.5946ZM139.131 105.081H98.1543C98.0723 105.52 97.9904 105.924 97.9201 106.298H137.434L138.335 106.199C138.664 106.184 138.991 106.129 139.307 106.035C139.275 105.705 139.217 105.378 139.131 105.057V105.081ZM101.907 108.815H102.246V83.3921C102.123 83.9482 102.006 84.4751 101.907 84.9785V108.815ZM108.598 63.29C108.545 63.4013 108.492 63.5125 108.445 63.6296H108.416V108.411H108.756V62.9212L108.598 63.29ZM115.037 54.3922L114.908 54.4566V107.978H115.248V54.2751L115.037 54.3922ZM121.423 53.9122V107.539L121.757 107.51V53.9941L121.423 53.9122ZM127.933 63.8637V107.1H128.266V64.8237C128.173 64.4784 128.062 64.1388 127.95 63.811L127.933 63.8637ZM134.553 86.8634L134.442 86.4361V106.591H134.782V87.6771L134.553 86.8634ZM125.328 56.9386L125.263 56.8098H112.367L112.116 57.1435H125.445L125.328 56.9386ZM127.757 63.3193H108.598C108.545 63.4305 108.492 63.5417 108.445 63.6588H127.88L127.757 63.3193ZM129.812 69.7995H106.034C105.998 69.9107 105.957 70.0219 105.916 70.139H129.917C129.882 69.9985 129.847 69.8873 129.812 69.7995ZM131.703 76.309H104.02C103.991 76.426 103.961 76.5373 103.926 76.6485H131.796C131.767 76.5139 131.732 76.4026 131.703 76.2856V76.309ZM133.5 82.8243H102.381C102.381 82.9355 102.328 83.0467 102.305 83.158H133.588L133.5 82.8243ZM135.227 89.3338H101.11C101.11 89.445 101.075 89.5562 101.052 89.6674H135.314L135.227 89.3338ZM136.895 95.8432H99.9456C99.9456 95.9545 99.9046 96.0715 99.8812 96.1828H136.983C136.959 96.0481 136.93 95.931 136.895 95.8198V95.8432ZM138.505 102.353H98.6987C98.6987 102.47 98.6577 102.581 98.6343 102.692H138.604C138.558 102.581 138.528 102.446 138.505 102.329V102.353ZM97.5279 108.868C97.5206 108.927 97.533 108.987 97.5631 109.038C97.5631 109.038 97.7738 109.038 98.1484 109.038L99.366 108.973L100.97 108.88L97.5279 108.868Z" fill="#1C1C1E"/>
<path d="M89.5323 107.266C89.5756 106.633 89.6895 106.006 89.8718 105.399C90.0357 104.813 90.2172 104.175 90.4045 103.572C90.7909 102.355 91.2065 101.155 91.6397 99.9545C92.5119 97.5603 93.4309 95.1778 94.3793 92.807C96.311 88.0771 103.675 70.0707 106.169 65.5574C107.427 63.3036 108.733 61.0675 110.208 58.9074C110.939 57.8019 111.745 56.7477 112.62 55.7522C112.854 55.4837 113.109 55.2332 113.381 55.0029C113.674 54.7727 113.992 54.5763 114.329 54.4175C115.012 54.088 115.751 53.8894 116.507 53.8321C118.011 53.7092 120.733 53.4224 122.08 53.8321L122.577 54.0019C122.782 54.0698 122.978 54.1601 123.163 54.2712C123.506 54.4971 123.793 54.7996 124 55.1551C124.339 55.7655 124.56 56.435 124.649 57.1278C124.823 58.4142 124.856 59.7154 124.749 61.0089C124.661 62.2851 124.503 63.5495 124.316 64.8081C123.924 67.3252 123.403 69.8131 122.817 72.2893C122.232 74.7655 121.588 77.2182 120.88 79.6651C119.481 84.5531 117.953 89.4001 116.308 94.2236C114.663 99.0472 112.936 103.841 111.069 108.589C112.684 103.765 114.282 98.936 115.752 94.0773C117.221 89.2186 118.714 84.3599 120.007 79.4427C121.355 74.5748 122.443 69.639 123.268 64.6559C123.444 63.4149 123.59 62.1738 123.666 60.927C123.761 59.7031 123.724 58.4725 123.555 57.2566C123.478 56.6836 123.295 56.1299 123.016 55.6234C122.889 55.4113 122.717 55.2295 122.513 55.0907C122.254 54.9616 121.984 54.8577 121.705 54.7804C120.458 54.3824 117.865 54.7219 116.618 54.8273C116.009 54.87 115.413 55.0268 114.862 55.2897C114.6 55.4187 114.352 55.5757 114.124 55.758C113.892 55.9519 113.675 56.1633 113.475 56.3902C112.628 57.3465 111.846 58.3575 111.133 59.4167C109.675 61.5299 108.364 63.7368 107.1 65.9671C104.577 70.4336 96.9374 88.282 94.9061 92.9651C93.8817 95.3066 92.8807 97.6481 91.9324 100.025C91.4582 101.196 91.0016 102.396 90.5743 103.596C90.3577 104.181 90.1469 104.766 89.9596 105.399C89.7495 106.004 89.6062 106.63 89.5323 107.266Z" fill="#AEAEB2"/>
<path d="M111.258 108.303L90.3872 105.944L88.9536 118.624L109.824 120.984L111.258 108.303Z" fill="#263238"/>
<path d="M96.4636 106.076L92.7874 105.66L92.7255 106.207L96.4018 106.623L96.4636 106.076Z" fill="#263238"/>
<path d="M95.8222 105.478L93.5014 105.215L93.4395 105.762L95.7603 106.025L95.8222 105.478Z" fill="#263238"/>
<path d="M107.247 107.863L101.691 107.23L102.47 105.591L106.86 106.089L107.247 107.863Z" fill="#263238"/>
<path d="M105.824 105.887L103.031 105.576L102.917 106.596L105.711 106.907L105.824 105.887Z" fill="#F2F2F7"/>
<path d="M89.6477 107.575L89.5306 108.582L90.0457 108.822L89.9989 109.255L89.1618 108.857L89.3491 107.218L90.2506 107.019L90.2038 107.452L89.6477 107.575Z" fill="#263238"/>
<path d="M111.59 110.056L111.478 111.063L110.922 111.18L110.875 111.613L111.777 111.414L111.958 109.775L111.127 109.383L111.08 109.81L111.59 110.056Z" fill="#263238"/>
<path d="M96.1635 108.659C96.1952 110.188 96.1208 111.718 95.9411 113.237C95.7814 114.759 95.5114 116.267 95.1333 117.75C95.0854 114.688 95.4317 111.632 96.1635 108.659Z" fill="#455A64"/>
<path d="M103.143 119.288C102.119 119.173 101.152 118.756 100.365 118.091C99.5777 117.426 99.0053 116.542 98.7202 115.552C98.4352 114.562 98.4502 113.509 98.7635 112.527C99.0769 111.545 99.6743 110.678 100.48 110.036C101.286 109.394 102.265 109.005 103.292 108.919C104.319 108.833 105.348 109.054 106.25 109.553C107.152 110.052 107.885 110.807 108.357 111.723C108.83 112.639 109.02 113.675 108.904 114.699C108.827 115.378 108.617 116.036 108.287 116.635C107.956 117.234 107.51 117.761 106.975 118.188C106.44 118.614 105.826 118.93 105.169 119.119C104.511 119.308 103.823 119.365 103.143 119.288ZM104.279 109.231C103.313 109.122 102.335 109.301 101.471 109.747C100.607 110.193 99.8937 110.885 99.4226 111.736C98.9516 112.587 98.7435 113.558 98.8247 114.527C98.9058 115.497 99.2726 116.42 99.8786 117.181C100.485 117.942 101.303 118.506 102.229 118.801C103.156 119.097 104.149 119.112 105.084 118.843C106.019 118.574 106.853 118.034 107.48 117.291C108.108 116.548 108.502 115.636 108.611 114.669C108.756 113.374 108.381 112.074 107.569 111.055C106.757 110.036 105.574 109.38 104.279 109.231Z" fill="#37474F"/>
<path d="M107.708 114.565C107.619 115.354 107.298 116.099 106.785 116.705C106.273 117.312 105.591 117.752 104.828 117.971C104.065 118.189 103.253 118.176 102.497 117.933C101.741 117.691 101.074 117.229 100.581 116.607C100.088 115.984 99.7906 115.229 99.7268 114.438C99.663 113.646 99.8356 112.854 100.223 112.161C100.61 111.467 101.194 110.905 101.902 110.544C102.609 110.183 103.408 110.04 104.196 110.134C105.249 110.257 106.21 110.793 106.868 111.624C107.527 112.454 107.829 113.512 107.708 114.565Z" fill="#455A64"/>
<path d="M110.279 109.284C110.273 109.34 110.256 109.393 110.229 109.442C110.202 109.491 110.166 109.534 110.122 109.569C110.079 109.603 110.029 109.629 109.975 109.645C109.922 109.66 109.866 109.665 109.81 109.659C109.755 109.653 109.701 109.636 109.653 109.609C109.604 109.582 109.561 109.546 109.526 109.502C109.491 109.459 109.465 109.409 109.45 109.356C109.434 109.302 109.43 109.246 109.436 109.191C109.45 109.08 109.508 108.98 109.595 108.911C109.682 108.842 109.793 108.81 109.904 108.822C110.015 108.834 110.117 108.889 110.187 108.976C110.257 109.062 110.29 109.173 110.279 109.284Z" fill="#74171C"/>
<path d="M110.16 58.3032C97.8259 68.6177 81.3825 91.2194 83.5484 96.3532C85.9661 102.043 103.153 87.5724 103.182 86.6417C103.182 85.9334 110.113 71.9075 115.306 61.7219C120.498 51.5362 113.204 55.7509 110.16 58.3032Z" fill="#C29EA0"/>
<path d="M103.283 86.6532C103.915 85.1429 113.234 66.6682 115.98 60.8027C118.725 54.9371 116.899 52.8707 110.249 57.8406C103.599 62.8105 88.4021 80.0852 84.3981 89.6562C80.5346 98.8702 85.4225 99.3385 92.295 95.5862C97.9205 92.5071 103.283 86.6532 103.283 86.6532Z" fill="#74171C"/>
<path opacity="0.1" d="M89.2042 92.0801V93.2977H91.6745V92.0801H89.2042ZM86.4002 95.8207V96.1427H91.1711C91.335 96.0666 91.5047 95.9788 91.6745 95.8851L91.8384 95.8031L86.4002 95.8207ZM91.6686 92.0801H89.2042V93.2977H91.6745L91.6686 92.0801ZM89.1983 92.0801V93.2977H91.6686V92.0801H89.1983ZM83.1045 95.8207C83.1212 95.9367 83.1507 96.0506 83.1923 96.1602H85.1767V95.8207H83.1045ZM95.7078 89.3112V86.8116H98.1547V85.6058H95.3741V89.3229H86.4177V89.6566H100.256L100.613 89.3229L95.7078 89.3112ZM84.5211 89.3112L84.3806 89.6449H85.1767V89.3112H84.5211ZM102.223 82.8018V80.3373H104.641V79.1197H99.3723V80.3373H101.884V82.8193H99.3723V80.3373H98.1547V82.8193H88.2032L87.9866 83.153H91.6803V85.6058H89.2042V86.8234H91.6745V89.3229H92.8862V86.8234H95.38V85.6058H92.8862V83.1471H95.38V85.6058H95.7136V83.1471H105.01C105.062 83.0359 105.115 82.9247 105.173 82.8135L102.223 82.8018ZM89.2042 89.3112V89.6449H91.6745V89.3112H89.2042ZM102.229 76.2864V73.8337H101.889V76.2864H92.9038L92.6404 76.626H95.3975V79.1021H92.9038V80.3373H99.3957V76.6435H108.212C108.27 76.5323 108.329 76.4211 108.381 76.304L102.229 76.2864ZM95.7136 79.1021V76.626H98.1605V79.1021H95.7136ZM108.738 66.13V67.3418H111.139V66.13H108.738ZM108.738 69.777V67.3418H108.399V69.8004H98.2483L98.1781 69.8823C98.102 69.9701 98.0318 70.0579 97.9557 70.1399H101.907V72.6395H99.3957V73.8571H102.247V70.1399H111.449L111.619 69.8004L108.738 69.777ZM111.139 66.13H108.738V67.3418H111.139V66.13ZM108.738 66.13V67.3418H111.139V66.13H108.738ZM99.3723 76.2864V76.626H101.884V76.2864H99.3723ZM104.237 63.2675L103.903 63.607H108.393V66.13H105.858V67.3418H108.733V63.607H114.586C114.645 63.4899 114.703 63.3787 114.756 63.2675H104.237ZM111.771 56.758L111.267 57.0917H117.156C117.156 56.9746 117.156 56.8634 117.156 56.758H111.771ZM114.903 55.1833V63.0216L115.242 62.3133V55.1014C115.135 55.1163 115.03 55.1378 114.926 55.1658L114.903 55.1833ZM108.393 59.3337V66.13H105.858V67.3418H108.393V76.2396L108.733 75.5606V59.041L108.393 59.3337ZM102.223 79.1021V65.3573L101.884 65.7144V72.6161H99.3723V73.8337H101.884V79.1021H99.3723V80.3373H101.884V88.0644L102.223 87.7307V80.3373H104.641V79.1197L102.223 79.1021ZM98.1781 80.3373V82.8193H99.3957V80.3373H98.1781ZM98.1781 83.153V82.8193H95.7312V72.7273L95.3975 73.1312V79.0787H92.9038V80.3373H95.3975V93.6372L95.7312 93.3914V86.8116H98.1781V85.6058H95.7312V83.1471L98.1781 83.153ZM89.2042 89.3112V81.309L88.8646 81.8066V89.3112H86.4002V89.6449H88.8646V97.1495L89.2042 97.0325V89.6449H91.6745V89.3112H89.2042ZM92.8862 92.0801V89.6449H95.38V89.3112H91.6745V92.0801H86.406V93.2977H95.8249C96.3693 92.8996 96.902 92.4899 97.4113 92.0801H92.8862ZM83.5201 92.0801C83.3913 92.5133 83.2859 92.9172 83.2098 93.2977H85.2001V92.0801H83.5201ZM99.3957 85.6058V83.1471H101.907V82.8135H99.3957V80.3373H98.1781V85.6058H86.4704C86.4468 85.6395 86.4253 85.6747 86.406 85.7111V86.8234H88.8705V89.3229H86.406V89.6566H91.6745V89.3229H89.2042V86.8234H91.6745V89.3229H92.8862V86.8234H103.136L103.283 86.6653C103.353 86.5014 103.523 86.1326 103.78 85.6058H99.3957ZM99.3957 79.1138V80.3373H101.907V79.1197L99.3957 79.1138ZM90.7906 79.1138C90.4862 79.5236 90.2052 79.9275 89.9125 80.3314H106.379L106.965 79.1138H90.7906ZM105.882 69.8004V70.1399H108.416V69.8004H105.882ZM105.882 72.6395V70.1399H104.664V72.6395H95.8424L95.7312 72.7741L95.3975 73.178L94.8121 73.8571H98.1488V76.3098H95.7019V76.6494H98.1488V79.1255H95.7019V80.3373H99.3664V76.6435H101.878V76.304H99.3664V73.8512H109.576L110.161 72.6336L105.882 72.6395ZM108.416 69.8004H105.882V70.1399H108.416V69.8004ZM105.882 69.8004V70.1399H108.416V69.8004H105.882ZM101.497 66.13C101.13 66.5203 100.762 66.9242 100.391 67.3418H104.641V69.8004H102.223V70.1399H105.858V67.3418H112.795L113.381 66.13H101.497ZM108.733 63.2675V63.607H111.133V63.2675H108.733ZM108.048 59.6381C107.62 60.0128 107.17 60.4225 106.707 60.8557H115.956V60.803C116.144 60.3991 116.313 60.0069 116.454 59.6323L108.048 59.6381ZM108.733 63.607H111.133V63.2675H108.733V63.607ZM108.733 63.2675V63.607H111.133V63.2675H108.733ZM111.771 56.758L111.267 57.0917L111.133 57.1853V70.7136C111.226 70.5145 111.326 70.3155 111.425 70.1282L111.595 69.7887C111.847 69.2677 112.104 68.7584 112.35 68.255V56.3834C112.186 56.5004 111.993 56.6234 111.794 56.758H111.771ZM104.641 62.8636V69.8004H102.223V70.1399H104.641V72.6395H102.223V73.8571H104.641V76.3098H102.223V73.8571H101.884V79.1255H102.223V76.6494H104.641V83.8086L104.963 83.1589C105.015 83.0476 105.068 82.9364 105.127 82.8252L105.858 81.3442V61.6635C105.484 62.044 105.08 62.4479 104.664 62.8636H104.641ZM99.3723 76.626H101.884V76.2864H99.3723V68.4774C98.9859 68.9047 98.6054 69.3379 98.2015 69.777L98.1313 69.8589V76.2981H95.6844V76.6377H98.1313V79.1138H95.6844V80.3373H98.1313V91.4596C98.5586 91.1084 98.9625 90.7571 99.3489 90.4176V83.1354H101.86V82.8018H99.3489L99.3723 76.626ZM98.1781 80.3373V82.8193H99.3957V80.3373H98.1781ZM95.7312 82.8193V80.3373H95.3975V82.8193H92.9038V76.2864L92.6404 76.626C92.3165 77.0435 92.0003 77.4592 91.692 77.8728V85.6058H89.2042V86.8234H91.6745V95.9144L91.8384 95.8324L92.2774 95.5983L92.8628 95.2529V89.6449H95.3565V89.3112H92.8628V86.8116H95.3565V85.6058H92.8628V83.1471H95.3565V85.6058H95.6902V83.1471H98.1371V82.8135L95.7312 82.8193ZM88.8822 89.6625V92.0977H86.4177V93.3153H88.8822V95.8383H89.2042V89.6449L88.8822 89.6625ZM88.8822 93.3153V95.8383H89.2042V93.3153H88.8822Z" fill="#1C1C1E"/>
<path opacity="0.1" d="M86.4166 95.8206V97.7582C86.0121 97.8053 85.6035 97.8053 85.199 97.7582V95.8323L86.4166 95.8206Z" fill="#1C1C1E"/>
<path opacity="0.1" d="M86.4166 85.6992V95.8205H85.199V87.9471C85.3805 87.5841 85.5795 87.2095 85.7844 86.829C85.9893 86.4485 86.1942 86.0738 86.4166 85.6992Z" fill="#1C1C1E"/>
<path d="M110.863 71.4459C111.101 70.9989 111.39 70.5805 111.723 70.1991C112.05 69.8138 112.417 69.4645 112.818 69.1571C112.578 69.6014 112.29 70.0177 111.957 70.3981C111.634 70.788 111.266 71.1396 110.863 71.4459Z" fill="#263238"/>
<path d="M104.387 83.9609C105.008 82.5267 105.675 81.116 106.343 79.711C107.01 78.3061 107.724 76.9188 108.409 75.5197C109.094 74.1206 109.832 72.7508 110.569 71.381C111.307 70.0112 112.05 68.6414 112.84 67.2833C112.22 68.7117 111.553 70.1225 110.885 71.5274C110.218 72.9323 109.51 74.3197 108.819 75.7187C108.128 77.1178 107.396 78.4876 106.659 79.8574C105.921 81.2272 105.178 82.6146 104.387 83.9609Z" fill="#263238"/>
<path d="M121.557 60.1235C119.485 60.8201 115.065 57.7 113.362 55.2121C113.245 55.0365 113.362 53.1223 113.362 50.7808C113.362 49.3641 113.333 47.7836 113.198 46.3494L122.424 47.7016C122.078 49.5497 121.958 51.4327 122.067 53.3096C122.089 53.5078 122.128 53.7036 122.184 53.895C122.184 53.895 122.184 53.9536 122.184 53.9887C122.517 55.0951 123.553 59.4503 121.557 60.1235Z" fill="#C29EA0"/>
<path d="M122.207 53.8951C122.205 53.9263 122.205 53.9576 122.207 53.9887C121.904 54.0599 121.597 54.1068 121.288 54.1292C116.054 54.4922 114.234 48.2169 113.83 46.4373L116.13 46.7768L122.435 47.7076C122.083 49.5528 121.961 51.4345 122.072 53.3097C122.097 53.5089 122.142 53.705 122.207 53.8951Z" fill="#263238"/>
<path d="M122.121 53.4857L121.178 59.1113L113.322 53.995L111.958 56.4887C111.958 56.4887 120.517 65.5095 120.458 65.0295L121.629 60.1064L125.381 62.5358L123.432 54.8028L122.121 53.4857Z" fill="#F2F2F7"/>
<path d="M124.614 58.6422C124.251 57.3777 123.918 56.0899 123.496 54.843C123.496 54.802 123.402 54.7962 123.402 54.843C123.402 56.1426 124.842 60.972 125.094 62.1486C124.936 62.0432 121.646 60.0471 121.629 60.0939C121.318 60.9018 120.458 64.4902 120.423 64.8063C119.059 63.3604 113.931 58.2031 112.415 56.9211C112.411 56.9165 112.405 56.9128 112.4 56.9102C112.394 56.9075 112.388 56.906 112.382 56.9057C112.369 56.9052 112.357 56.9097 112.347 56.9182C112.338 56.9267 112.333 56.9386 112.332 56.9513C112.331 56.9639 112.336 56.9762 112.345 56.9855C113.603 58.5368 120.411 65.5146 120.487 65.4736C120.966 63.7621 121.357 62.027 121.658 60.2754C122.243 60.7378 125.633 63.0618 125.598 62.8686C125.347 61.443 125.018 60.0321 124.614 58.6422Z" fill="#263238"/>
<path d="M111.215 35.9243C110.518 39.2844 113.123 48.5628 115.646 50.4477C119.299 53.1873 124.843 52.9648 127.055 48.6915C129.204 44.5295 125.592 32.4998 122.823 30.8256C118.737 28.3494 112.233 30.9603 111.215 35.9243Z" fill="#C29EA0"/>
<path d="M121.032 40.9768C121.032 40.9768 120.991 41.0178 120.996 41.047C121.19 41.6676 121.307 42.411 120.797 42.8032C121.476 42.5164 121.313 41.5329 121.032 40.9768Z" fill="#263238"/>
<path d="M120.287 40.4794C119.262 40.6784 119.736 42.7156 120.691 42.5341C121.645 42.3526 121.153 40.3096 120.287 40.4794Z" fill="#263238"/>
<path d="M124.532 40.0981C124.532 40.0981 124.585 40.0981 124.591 40.1391C124.719 40.7772 124.971 41.4855 125.592 41.5616C125.592 41.5616 125.621 41.5967 125.592 41.5967C124.878 41.6611 124.55 40.7186 124.532 40.0981Z" fill="#263238"/>
<path d="M124.94 39.3075C125.935 38.9914 126.491 41.011 125.566 41.3037C124.642 41.5964 124.103 39.571 124.94 39.3075Z" fill="#263238"/>
<path d="M119.399 39.9459C119.685 39.9605 119.973 39.9605 120.259 39.9459C120.562 39.99 120.871 39.9324 121.137 39.782C121.212 39.719 121.263 39.633 121.283 39.5376C121.303 39.4422 121.291 39.3429 121.249 39.2552C121.139 39.0894 120.986 38.957 120.807 38.8724C120.627 38.7877 120.428 38.7541 120.23 38.7751C119.83 38.7463 119.434 38.8674 119.118 39.1147C119.047 39.1763 118.996 39.2578 118.971 39.3486C118.946 39.4393 118.949 39.5354 118.98 39.6245C119.01 39.7137 119.066 39.7918 119.14 39.849C119.215 39.9063 119.305 39.94 119.399 39.9459Z" fill="#263238"/>
<path d="M125.339 37.4929C125.052 37.5076 124.765 37.5076 124.478 37.4929C124.172 37.5278 123.863 37.4598 123.6 37.2997C123.529 37.2345 123.481 37.1475 123.464 37.0522C123.447 36.957 123.462 36.8588 123.507 36.7729C123.62 36.613 123.775 36.4867 123.954 36.4074C124.133 36.3281 124.331 36.2986 124.525 36.3221C124.926 36.3061 125.318 36.4397 125.626 36.6968C125.686 36.7605 125.727 36.8397 125.745 36.9256C125.763 37.0114 125.757 37.1005 125.727 37.183C125.697 37.2655 125.645 37.3382 125.577 37.3929C125.508 37.4476 125.426 37.4822 125.339 37.4929Z" fill="#263238"/>
<path d="M121.85 44.834C122.067 45.047 122.327 45.2122 122.612 45.319C122.898 45.4259 123.202 45.472 123.506 45.4545C123.773 45.4458 124.037 45.3985 124.291 45.314L124.431 45.2613L124.566 45.2086C124.598 45.1937 124.625 45.1684 124.642 45.1367C124.659 45.1049 124.665 45.0685 124.659 45.033C124.663 45.0117 124.663 44.99 124.659 44.9686V44.9159C124.56 44.4242 124.337 43.6925 124.337 43.6925C124.536 43.7393 125.508 43.9383 125.467 43.6925C124.903 41.5132 124.118 39.3969 123.126 37.3762C123.091 37.3118 122.991 37.3762 123.014 37.4172C123.524 39.4367 124.39 41.3509 124.94 43.3705C124.585 43.2937 124.22 43.27 123.857 43.3003C123.793 43.3354 124.308 44.6993 124.332 44.9218C123.942 45.0559 123.529 45.11 123.117 45.0808C122.706 45.0516 122.305 44.9398 121.937 44.752C121.838 44.7403 121.797 44.793 121.85 44.834Z" fill="#263238"/>
<path d="M123.994 45.2784C123.786 45.667 123.481 45.9956 123.11 46.2326C122.903 46.3542 122.664 46.4093 122.425 46.3906C121.898 46.3379 121.81 45.8813 121.839 45.4716C121.857 45.2546 121.901 45.0405 121.968 44.8335C122.578 45.1959 123.288 45.3519 123.994 45.2784Z" fill="#263238"/>
<path d="M123.11 46.2319C122.903 46.3535 122.664 46.4087 122.425 46.39C121.898 46.3373 121.81 45.8807 121.839 45.4709C122.106 45.4384 122.375 45.4956 122.605 45.6335C122.835 45.7713 123.013 45.9819 123.11 46.2319Z" fill="#FF98B9"/>
<path d="M126.042 34.6775C123.314 37.4523 117.379 34.6249 117.379 34.6249C117.267 35.3885 116.913 36.096 116.368 36.6422C115.822 37.1884 115.116 37.5444 114.352 37.6572C114.352 37.6572 114.99 43.23 113.55 43.5578C113.006 43.6749 112.444 43.312 111.923 42.6798C111.238 40.0397 110.904 37.4113 111.209 35.9361C112.233 30.9721 119.024 27.9808 123.11 30.4452C123.859 30.8843 125.299 33.0502 126.042 34.6775Z" fill="#263238"/>
<path d="M114.375 42.9248C114.375 42.9248 111.898 40.1209 110.605 41.0399C109.311 41.959 111.407 46.1854 113.099 46.6069C113.312 46.6759 113.537 46.701 113.76 46.6809C113.983 46.6607 114.2 46.5956 114.397 46.4896C114.595 46.3835 114.768 46.2386 114.908 46.0636C115.048 45.8886 115.152 45.6871 115.212 45.4713L114.375 42.9248Z" fill="#C29EA0"/>
<path d="M111.221 42.2342V42.281C112.391 42.6147 113.129 43.5981 113.673 44.6226C113.594 44.5162 113.493 44.4283 113.376 44.3649C113.26 44.3014 113.131 44.264 112.998 44.2551C112.866 44.2462 112.733 44.266 112.609 44.3133C112.485 44.3606 112.373 44.4341 112.28 44.5289C112.28 44.5289 112.28 44.5992 112.321 44.5874C112.515 44.4976 112.733 44.4713 112.943 44.5123C113.154 44.5533 113.345 44.6595 113.492 44.8157C113.733 45.0723 113.945 45.355 114.124 45.6587C114.194 45.7524 114.37 45.6587 114.317 45.565C114.153 44.1074 112.795 42.2049 111.221 42.2342Z" fill="#263238"/>
<path d="M123.067 30.2747C121.843 30.9771 119.192 32.7391 116.581 34.5421C114.52 35.9704 112.483 37.4222 111.201 38.4057C110.719 38.7379 110.273 39.1206 109.872 39.5471L109.919 39.4476C109.908 39.3022 109.889 39.1576 109.861 39.0145C109.58 37.3227 108.397 31.3108 108.637 30.8483C108.877 30.3859 111.962 30.6142 112.114 30.5498C112.266 30.4854 113.426 25.9253 114.081 25.8667C115.018 25.7672 122.651 30.3273 122.803 30.3683H122.92H122.997L123.067 30.2747Z" fill="#74171C"/>
<path d="M83.9343 96.9799C87.6808 99.3214 95.642 97.6062 112.887 94.053C115.27 93.5612 114.989 75.5197 112.419 75.9061C109.176 76.4036 96.7133 79.032 95.8293 79.3423C88.3306 81.9414 81.3762 95.3701 83.9343 96.9799Z" fill="#C29EA0"/>
<path d="M133.782 72.8552C134.054 73.3597 134.164 73.9351 134.099 74.5043C134.034 75.0734 133.797 75.6092 133.419 76.0397C134.28 76.4916 134.956 77.2311 135.328 78.1295C135.913 79.7393 133.636 81.3608 133.636 81.3608C134.431 82.0158 135.01 82.895 135.298 83.8838C135.702 85.4819 133.642 87.443 133.642 87.443C134.04 88.4491 134.063 89.5649 133.706 90.5865C132.647 93.2734 128.303 94.0988 125.552 94.6081C122.8 95.1174 114.482 94.0929 112.878 94.052L109.278 76.4085C109.278 76.4085 120.939 70.4844 124.264 70.3146C127.068 70.1683 132.676 70.9703 133.782 72.8552Z" fill="#C29EA0"/>
<path d="M133.238 75.7827C130.217 75.1974 127.202 75.5837 124.17 75.7827C124.156 75.7827 124.143 75.7883 124.133 75.7982C124.123 75.808 124.117 75.8215 124.117 75.8354C124.117 75.8494 124.123 75.8628 124.133 75.8727C124.143 75.8826 124.156 75.8881 124.17 75.8881C127.185 75.6657 130.205 76.0403 133.22 75.9408C133.241 75.9431 133.262 75.937 133.279 75.9239C133.295 75.9107 133.306 75.8915 133.308 75.8705C133.31 75.8496 133.304 75.8286 133.291 75.8121C133.278 75.7956 133.259 75.7851 133.238 75.7827Z" fill="#263238"/>
<path d="M133.529 81.1387C132.832 81.0792 132.129 81.1107 131.439 81.2323C130.702 81.3143 129.97 81.4138 129.233 81.5192C127.769 81.7358 126.306 81.9816 124.848 82.2743C124.784 82.2743 124.784 82.3855 124.848 82.3797C126.311 82.169 127.775 81.9758 129.25 81.8294C129.988 81.7514 130.725 81.6811 131.463 81.6187C132.164 81.6036 132.86 81.5113 133.541 81.3436C133.564 81.3368 133.584 81.3226 133.597 81.3032C133.611 81.2837 133.618 81.2602 133.616 81.2365C133.615 81.2127 133.606 81.1901 133.59 81.1724C133.574 81.1546 133.553 81.1427 133.529 81.1387Z" fill="#263238"/>
<path d="M133.576 87.4495C132.945 87.404 132.312 87.4673 131.702 87.6368L129.695 87.9588C128.36 88.1695 127.025 88.3744 125.679 88.5441C125.665 88.5441 125.651 88.5497 125.642 88.5596C125.632 88.5695 125.626 88.5829 125.626 88.5968C125.626 88.6108 125.632 88.6242 125.642 88.6341C125.651 88.644 125.665 88.6495 125.679 88.6495C127.043 88.4915 128.407 88.351 129.777 88.1812C130.45 88.0992 131.117 88.0114 131.784 87.9178C132.402 87.8954 133.011 87.7626 133.582 87.5256C133.589 87.522 133.595 87.5163 133.599 87.5091C133.603 87.502 133.605 87.4938 133.605 87.4855C133.604 87.4773 133.601 87.4695 133.596 87.463C133.591 87.4566 133.584 87.4519 133.576 87.4495Z" fill="#263238"/>
<path d="M110.306 75.5722L102.889 97.3134C102.889 97.3134 87.4352 99.9886 83.841 97.2431C81.4994 95.4343 88.0733 81.3734 96.5614 79.1431L110.306 75.5722Z" fill="#74171C"/>
<path opacity="0.1" d="M99.3951 95.8198V93.2968H101.906V92.0792H99.3951V89.644H101.906V89.3104H95.7306V89.644H98.1775V92.0792H95.7306V89.644H95.3969V92.0792H89.2035V93.2968H91.6739V95.8198H86.4054V96.1418H103.27L103.382 95.8023L99.3951 95.8198ZM92.9032 95.8198V93.2968H95.3969V95.8198H92.9032ZM95.7306 95.8198V93.2968H98.1775V95.8198H95.7306ZM83.3497 96.1418H85.1761V95.8023H83.3497C83.3436 95.9154 83.3436 96.0287 83.3497 96.1418ZM86.3937 89.2928V89.6265H88.8582V92.0617H86.3937V93.2793H89.2035V89.644H91.6739V92.0792H92.8856V89.644H105.483L105.6 89.3104L86.3937 89.2928ZM90.4914 82.7833C90.3743 82.8887 90.2631 82.9999 90.1519 83.117H95.4203V85.6049H92.9266V86.8225H95.4203V89.3221H92.9266V89.6557H95.754V86.8225H101.906V85.6049H99.3951V83.1463H107.725L107.836 82.8126L90.4914 82.7833ZM98.1775 85.6049H95.7306V83.1463H98.1775V85.6049ZM107.544 76.2973L106.232 76.6368H109.944L110.055 76.2973H107.544ZM108.41 76.0748V81.1208L108.679 80.3306L108.75 80.1257V75.987L108.41 76.0748ZM101.901 77.7607V97.4706L102.24 97.4179V77.6612L101.901 77.7607ZM98.1716 89.3221H99.3892V86.8225H98.1716V89.3221ZM95.3911 79.5286V98.2609H95.7247V79.3881L95.3911 79.5286ZM88.8757 84.5219V98.4423C88.9869 98.4423 89.104 98.4423 89.2152 98.4423V84.1239L88.8757 84.5219ZM102.24 92.0909V89.644H104.658V89.3104H95.7306V89.644H98.1775V92.0792H95.7306V89.644H95.3969V92.0792H86.4171V93.2968H104.254L104.664 92.1261L102.24 92.0909ZM99.3892 92.0909V89.644H101.901V92.0792L99.3892 92.0909ZM83.818 93.3085H85.1937V92.0909H84.2512C84.0931 92.5007 83.9351 92.9105 83.8239 93.2968L83.818 93.3085ZM88.0328 85.6049C87.7225 86.0029 87.4474 86.4127 87.143 86.8225H91.7207V89.3221H89.2035V89.6557H91.6739V92.0909H92.8856V89.644H95.713V86.8108H106.472L106.888 85.5932L88.0328 85.6049ZM95.4262 89.3221H92.9324V86.8225H95.4262V89.3221ZM96.7023 79.113L96.5911 79.1422C96.3101 79.2183 96.035 79.3003 95.7598 79.3998L95.4262 79.5286C94.8561 79.753 94.3042 80.0211 93.7754 80.3306H98.2068V82.8126H95.7598V83.1463H98.2068V85.6049H95.7598V86.8225H101.906V85.6049H99.3951V83.1463H104.664V82.8126H102.246V80.3364H108.685L108.755 80.1315L109.101 79.1188L96.7023 79.113ZM101.936 82.8126H99.4244V80.3364H101.936V82.8126ZM104.693 77.0466V85.6049H102.275V83.1463H101.936V89.3221H102.275V86.8225H104.693V92.0909L105.524 89.6557L105.641 89.3221L105.905 88.5494V76.7187L104.693 77.0466ZM98.2068 89.3396H99.4244V86.84H98.2068V89.3396ZM98.2068 78.7442V97.9916L99.4244 97.8453V78.3988L98.2068 78.7442ZM91.7207 81.7706V98.4833C92.1188 98.4833 92.5285 98.4833 92.9324 98.4365V80.875C92.4992 81.1364 92.0856 81.4252 91.6914 81.7413L91.7207 81.7706ZM88.9108 93.3261V95.8491H89.2035V93.3261H88.9108Z" fill="#1C1C1E"/>
<path opacity="0.1" d="M86.4166 87.8777V98.1746C86.0041 98.1073 85.5971 98.0095 85.199 97.8819V90.0143L85.3922 89.6455C85.4508 89.5343 85.5093 89.4231 85.5737 89.3119C85.8313 88.8377 86.1122 88.3577 86.4166 87.8777Z" fill="#1C1C1E"/>
<path d="M88.0314 85.6762C89.6092 83.408 91.6354 81.4874 93.9848 80.0331C97.099 78.1482 108.145 75.9354 110.264 75.5374C110.305 75.5374 110.335 75.5959 110.294 75.6076C108.59 76.1111 96.859 78.8155 94.1604 80.4019C91.8989 81.8841 89.8556 83.6752 88.0899 85.7231C88.0782 85.7582 88.0314 85.7172 88.0314 85.6762Z" fill="#263238"/>
<path d="M97.9834 96.2999C98.6742 93.9057 99.4937 91.5524 100.325 89.1992C101.156 86.8459 101.97 84.5161 102.854 82.1746C103.357 80.8575 103.849 79.5345 104.393 78.2349C104.393 78.1998 104.469 78.2349 104.458 78.2349C103.767 80.6292 102.959 82.9883 102.146 85.3415C101.332 87.6947 100.501 90.0246 99.6459 92.3661C99.16 93.6891 98.6508 95.0062 98.1064 96.3057C98.0771 96.3994 97.9834 96.3701 97.9834 96.2999Z" fill="#263238"/>
<path d="M99.5983 97.7876C100.681 97.5067 101.776 97.3545 102.859 97.2023L102.771 97.2842C102.947 96.8569 103.116 96.4354 103.356 96.0256C103.275 96.4764 103.152 96.9213 103.029 97.3603V97.4247H102.953C101.868 97.6857 100.755 97.8076 99.6393 97.7876H99.5983Z" fill="#263238"/>
</svg>
