<svg width="24" height="24" viewBox="0 0 24 24" fill="none" xmlns="http://www.w3.org/2000/svg">
<path d="M6.71765 3.5H17.3226C17.5939 3.5 17.8141 3.69039 17.8141 3.92499V5.51256H19.5085C19.7798 5.51256 20 5.70295 20 5.93755V20.075C20 20.3096 19.7798 20.5 19.5085 20.5H6.6774C6.40606 20.5 6.18586 20.3096 6.18586 20.075V18.4872H4.49154C4.2202 18.4872 4 18.2971 4 18.0625V5.84973C4 4.55633 5.22197 3.5 6.71765 3.5ZM7.65479 11.5691C7.00841 11.5691 7.00841 10.7191 7.65479 10.7191H14.1593C14.806 10.7191 14.806 11.5691 14.1593 11.5691H7.65479ZM7.65479 16.02C7.00841 16.02 7.00841 15.17 7.65479 15.17H14.1593C14.806 15.17 14.806 16.02 14.1593 16.02H7.65479ZM7.65479 13.7945C7.00841 13.7945 7.00841 12.9446 7.65479 12.9446H14.1593C14.806 12.9446 14.806 13.7945 14.1593 13.7945H7.65479ZM8.31562 5.96744H13.4985C13.7699 5.96744 13.9901 6.15762 13.9901 6.39222V8.94871C13.9901 9.18332 13.7699 9.3737 13.4985 9.3737H8.31562C8.04428 9.3737 7.82408 9.18332 7.82408 8.94871V6.39222C7.82408 6.15762 8.04428 5.96744 8.31562 5.96744ZM13.007 6.81721H8.80715V8.52372H13.007V6.81721ZM17.8141 6.36254V18.0625C17.8141 18.2971 17.5939 18.4872 17.3226 18.4872H7.16894V19.65H19.0169V6.36254H17.8141ZM16.8311 4.34998H6.71765C5.76465 4.34998 4.98307 5.02575 4.98307 5.84973V17.6375H16.8311V4.34998Z" fill="#AEAEB2" stroke="#AEAEB2" stroke-width="0.25"/>
</svg>
