<svg width="24" height="24" viewBox="0 0 24 24" fill="none" xmlns="http://www.w3.org/2000/svg">
<path d="M12 10.5C11.11 10.5 10.24 10.2361 9.49994 9.74162C8.75991 9.24715 8.18314 8.54435 7.84254 7.72208C7.50195 6.89981 7.41283 5.99501 7.58647 5.1221C7.7601 4.24918 8.18869 3.44736 8.81802 2.81802C9.44736 2.18869 10.2492 1.7601 11.1221 1.58647C11.995 1.41283 12.8998 1.50195 13.7221 1.84254C14.5443 2.18314 15.2471 2.75992 15.7416 3.49994C16.2361 4.23996 16.5 5.10999 16.5 6C16.5 7.19348 16.0259 8.33807 15.182 9.18198C14.3381 10.0259 13.1935 10.5 12 10.5ZM12 3C11.4067 3 10.8266 3.17595 10.3333 3.50559C9.83994 3.83524 9.45543 4.30377 9.22836 4.85195C9.0013 5.40013 8.94189 6.00333 9.05765 6.58527C9.1734 7.16722 9.45912 7.70177 9.87868 8.12132C10.2982 8.54088 10.8328 8.8266 11.4147 8.94236C11.9967 9.05811 12.5999 8.9987 13.1481 8.77164C13.6962 8.54458 14.1648 8.16006 14.4944 7.66671C14.8241 7.17337 15 6.59335 15 6C15 5.20435 14.6839 4.44129 14.1213 3.87868C13.5587 3.31607 12.7957 3 12 3Z" fill="#AEAEB2"/>
<path d="M18 22.5H6C5.60218 22.5 5.22064 22.342 4.93934 22.0607C4.65804 21.7794 4.5 21.3978 4.5 21V16.5C4.5 15.1076 5.05312 13.7723 6.03769 12.7877C7.02226 11.8031 8.35761 11.25 9.75 11.25H14.25C15.6424 11.25 16.9777 11.8031 17.9623 12.7877C18.9469 13.7723 19.5 15.1076 19.5 16.5V21C19.5 21.3978 19.342 21.7794 19.0607 22.0607C18.7794 22.342 18.3978 22.5 18 22.5ZM9.75 12.75C8.75544 12.75 7.80161 13.1451 7.09835 13.8483C6.39509 14.5516 6 15.5054 6 16.5V21H18V16.5C18 16.0075 17.903 15.5199 17.7145 15.0649C17.5261 14.61 17.2499 14.1966 16.9017 13.8483C16.5534 13.5001 16.14 13.2239 15.6851 13.0355C15.2301 12.847 14.7425 12.75 14.25 12.75H9.75Z" fill="#AEAEB2"/>
</svg>
