<svg width="301" height="250" viewBox="0 0 301 250" fill="none" xmlns="http://www.w3.org/2000/svg">
<path d="M300.657 219.204H9.87628V220.322H300.657V219.204Z" fill="#E5E5EA"/>
<path d="M267.038 230.493H244.813V230.661H267.038V230.493Z" fill="#E5E5EA"/>
<path d="M187.401 232.318H181.57V232.486H187.401V232.318Z" fill="#E5E5EA"/>
<path d="M244.143 224.266H231.266V224.434H244.143V224.266Z" fill="#E5E5EA"/>
<path d="M29.3248 225.393H0.342896V225.561H29.3248V225.393Z" fill="#E5E5EA"/>
<path d="M39.5509 225.393H35.3033V225.561H39.5509V225.393Z" fill="#E5E5EA"/>
<path d="M116.224 228.225H53.3613V228.393H116.224V228.225Z" fill="#E5E5EA"/>
<path d="M269.326 189.768H139.75C138.734 189.766 137.761 189.362 137.043 188.644C136.324 187.926 135.92 186.952 135.918 185.937V3.79805C135.929 2.78822 136.337 1.82325 137.054 1.1123C137.772 0.401351 138.74 0.00170999 139.75 0H269.326C270.334 0.00349239 271.301 0.404129 272.015 1.11507C272.73 1.82602 273.136 2.78999 273.145 3.79805V185.937C273.145 186.95 272.743 187.923 272.027 188.641C271.311 189.359 270.34 189.765 269.326 189.768ZM139.75 0.134207C138.779 0.135981 137.848 0.52256 137.161 1.20928C136.474 1.896 136.088 2.82688 136.086 3.79805V185.937C136.088 186.908 136.474 187.839 137.161 188.525C137.848 189.212 138.779 189.599 139.75 189.6H269.326C270.298 189.599 271.228 189.212 271.915 188.525C272.602 187.839 272.988 186.908 272.99 185.937V3.79805C272.988 2.82688 272.602 1.896 271.915 1.20928C271.228 0.52256 270.298 0.135981 269.326 0.134207H139.75Z" fill="#E5E5EA"/>
<path d="M181.214 152.036H261.832C261.831 153.46 261.281 154.83 260.296 155.859C259.311 156.887 257.967 157.496 256.544 157.559C247.881 157.954 234.554 159.323 230.327 164.115C222.449 173.053 223.214 204.444 232.648 211.711C235.608 213.992 244.237 218.515 244.237 218.515H198.815C198.815 218.515 206.867 213.899 209.672 211.711C219.067 204.383 219.328 173.012 211.417 164.115C207.357 159.552 194.863 158.075 186.481 157.612C185.057 157.533 183.716 156.911 182.736 155.874C181.756 154.836 181.212 153.463 181.214 152.036Z" fill="#D1D1D6"/>
<path d="M251.845 157.854C243.659 158.525 233.841 160.128 230.325 164.114C229.177 165.491 228.269 167.052 227.641 168.731H214.093C213.46 167.054 212.553 165.494 211.409 164.114C207.879 160.149 197.988 158.518 189.936 157.854H251.845Z" fill="#E6E6E6"/>
<path d="M215.557 152.077L216.65 139.548H200.76L199.667 152.077H215.557Z" fill="#E5E5EA"/>
<path d="M215.556 152.077L216.65 139.548H217.509L216.408 152.077H215.556Z" fill="#E0E0E0"/>
<path d="M214.046 150.801L214.918 140.823H202.269L201.397 150.801H214.046Z" fill="#F0F0F0"/>
<path d="M213.08 149.976L213.805 141.641H203.236L202.511 149.976H213.08Z" fill="#D1D1D6"/>
<path d="M220.71 152.036H236.674L234.903 131.791H218.939L220.71 152.036Z" fill="#E6E6E6"/>
<path d="M220.711 152.036H219.953L218.174 131.791H218.939L220.711 152.036Z" fill="#E0E0E0"/>
<path d="M222.16 149.976H234.87L233.454 133.858H220.751L222.16 149.976Z" fill="#F0F0F0"/>
<path d="M223.085 148.647H233.701L232.526 135.186H221.911L223.085 148.647Z" fill="#D1D1D6"/>
<path d="M228.447 141.239C228.276 141.411 228.073 141.548 227.849 141.641C227.625 141.735 227.385 141.783 227.142 141.783C226.899 141.783 226.659 141.735 226.435 141.641C226.211 141.548 226.008 141.411 225.837 141.239C225.492 140.892 225.299 140.423 225.299 139.934C225.299 139.445 225.492 138.976 225.837 138.629C226.184 138.284 226.653 138.091 227.142 138.091C227.631 138.091 228.1 138.284 228.447 138.629C228.62 138.8 228.756 139.003 228.85 139.227C228.943 139.451 228.991 139.691 228.991 139.934C228.991 140.177 228.943 140.417 228.85 140.641C228.756 140.865 228.62 141.068 228.447 141.239Z" fill="#E5E5EA"/>
<path d="M227.669 143.5C227.794 143.373 227.943 143.273 228.107 143.204C228.271 143.135 228.447 143.1 228.625 143.1C228.803 143.1 228.979 143.135 229.143 143.204C229.308 143.273 229.456 143.373 229.581 143.5C229.776 143.688 229.909 143.929 229.964 144.194C230.019 144.458 229.993 144.733 229.89 144.982C229.786 145.231 229.609 145.444 229.383 145.591C229.157 145.739 228.892 145.814 228.622 145.809C228.352 145.813 228.088 145.736 227.863 145.588C227.638 145.44 227.462 145.228 227.36 144.979C227.257 144.73 227.231 144.456 227.286 144.192C227.342 143.928 227.475 143.687 227.669 143.5Z" fill="#F0F0F0"/>
<path d="M231.145 50.6227C231.145 50.6227 231.93 45.4356 228.145 42.114C224.361 38.7924 224.696 36.8129 225.777 36.5512C226.857 36.2895 227.857 39.6178 229.521 40.5371C229.521 40.5371 229.575 35.7996 227.884 34.0549C226.193 32.3102 225.307 27.8143 226.917 27.7338C228.528 27.6533 228.689 30.4179 229.018 32.3505C229.346 34.2831 231.145 37.0477 231.145 37.0477C231.145 37.0477 231.494 32.8135 232.581 31.0688C233.668 29.3241 230.769 25.3315 231.91 23.5868C233.051 21.8421 235.023 25.1637 234.856 28.9081C234.688 32.6525 232.172 36.6384 232.782 40.5438C232.782 40.5438 233.883 37.7993 234.869 37.551C235.855 37.3027 236.882 35.4842 237.52 34.8132C238.157 34.1421 239.016 36.4706 237.52 38.6314C236.023 40.7921 232.198 46.5697 232.782 51.2468L231.145 50.6227Z" fill="#D1D1D6"/>
<path d="M228.857 48.2604L227.615 56.031C227.526 56.5957 227.56 57.173 227.716 57.7232C227.871 58.2734 228.143 58.7835 228.514 59.2183C228.886 59.6532 229.346 60.0026 229.865 60.2423C230.384 60.4821 230.949 60.6067 231.521 60.6074H232.863C233.434 60.6069 233.999 60.4823 234.518 60.2425C235.036 60.0026 235.497 59.6532 235.867 59.2181C236.238 58.7831 236.51 58.2729 236.664 57.7227C236.819 57.1725 236.852 56.5953 236.762 56.031L235.567 48.2604H228.857Z" fill="#D1D1D6"/>
<path d="M247.612 57.742H160.082V62.238H247.612V57.742Z" fill="#E0E0E0"/>
<path d="M167.966 41.1612H164.108V57.7357H167.966V41.1612Z" fill="#E5E5EA"/>
<path d="M186.615 41.1612H182.756V57.7357H186.615V41.1612Z" fill="#E5E5EA"/>
<path d="M207.788 40.7365L203.986 41.3919L206.801 57.7256L210.603 57.0702L207.788 40.7365Z" fill="#E5E5EA"/>
<path d="M172.751 43.3491H168.892V57.7427H172.751V43.3491Z" fill="#E5E5EA"/>
<path d="M181.61 43.3491H177.751V57.7427H181.61V43.3491Z" fill="#E5E5EA"/>
<path d="M203.981 43.3491H200.122V57.7427H203.981V43.3491Z" fill="#E5E5EA"/>
<path d="M191.681 42.8385L187.914 43.6756L191.037 57.7264L194.803 56.8893L191.681 42.8385Z" fill="#E5E5EA"/>
<path d="M176.079 40.343H174.154V57.7429H176.079V40.343Z" fill="#E5E5EA"/>
<path d="M199.016 40.343H197.09V57.7429H199.016V40.343Z" fill="#E5E5EA"/>
<path d="M160.082 95.8102L247.611 95.8102V91.3143L160.082 91.3143V95.8102Z" fill="#E0E0E0"/>
<path d="M239.721 91.3143H243.58V74.7397H239.721V91.3143Z" fill="#E5E5EA"/>
<path d="M221.079 91.3143H224.937V74.7397H221.079V91.3143Z" fill="#E5E5EA"/>
<path d="M197.1 90.6559L200.902 91.3113L203.718 74.9777L199.915 74.3223L197.1 90.6559Z" fill="#E5E5EA"/>
<path d="M234.943 91.3143H238.801V76.9206H234.943V91.3143Z" fill="#E5E5EA"/>
<path d="M226.084 91.3143H229.942V76.9206H226.084V91.3143Z" fill="#E5E5EA"/>
<path d="M203.713 91.3143H207.571V76.9206H203.713V91.3143Z" fill="#E5E5EA"/>
<path d="M212.902 90.4645L216.669 91.3016L219.792 77.2507L216.025 76.4136L212.902 90.4645Z" fill="#E5E5EA"/>
<path d="M231.614 91.3074H233.54V73.9075H231.614V91.3074Z" fill="#E5E5EA"/>
<path d="M208.678 91.3074H210.604V73.9075H208.678V91.3074Z" fill="#E5E5EA"/>
<path d="M168.478 91.1667H187.267V78.1956H168.478V91.1667Z" fill="#E5E5EA"/>
<path d="M132.9 250C204.756 250 263.007 246.599 263.007 242.404C263.007 238.209 204.756 234.808 132.9 234.808C61.044 234.808 2.79333 238.209 2.79333 242.404C2.79333 246.599 61.044 250 132.9 250Z" fill="#C7C7CC"/>
<path d="M218.873 33.6054H116.339C112.485 33.6054 109.36 36.7299 109.36 40.5842V236.157C109.36 240.011 112.485 243.135 116.339 243.135H218.873C222.727 243.135 225.851 240.011 225.851 236.157V40.5842C225.851 36.7299 222.727 33.6054 218.873 33.6054Z" fill="#270809"/>
<path opacity="0.4" d="M218.926 33.5517H116.392C112.537 33.5517 109.413 36.6761 109.413 40.5304V236.103C109.413 239.957 112.537 243.082 116.392 243.082H218.926C222.78 243.082 225.904 239.957 225.904 236.103V40.5304C225.904 36.6761 222.78 33.5517 218.926 33.5517Z" fill="#3A0B0E"/>
<path d="M221.925 40.6244V235.741C221.925 236.119 221.85 236.494 221.704 236.843C221.557 237.192 221.343 237.509 221.073 237.774C220.803 238.039 220.484 238.249 220.132 238.389C219.781 238.53 219.405 238.599 219.026 238.593H115.882C115.538 238.597 115.197 238.532 114.879 238.402C114.561 238.272 114.272 238.079 114.03 237.835C113.789 237.59 113.599 237.3 113.472 236.98C113.345 236.661 113.283 236.319 113.292 235.976V40.3895C113.28 40.0867 113.328 39.7845 113.434 39.5003C113.539 39.2162 113.7 38.9557 113.906 38.7337C114.112 38.5117 114.36 38.3327 114.636 38.2069C114.912 38.0811 115.21 38.011 115.513 38.0006H141.294C141.655 38.006 142.007 38.1194 142.304 38.3263C142.6 38.5332 142.828 38.8241 142.958 39.1615L144.025 41.7853C144.155 42.1202 144.382 42.4085 144.678 42.6131C144.973 42.8176 145.323 42.9289 145.682 42.9327H189.588C189.951 42.9391 190.308 42.8347 190.61 42.6332C190.912 42.4318 191.145 42.143 191.279 41.8054L192.353 39.1615C192.481 38.8246 192.708 38.5339 193.003 38.327C193.299 38.1201 193.65 38.0064 194.01 38.0006H219.395C220.076 38.0199 220.723 38.3055 221.196 38.796C221.669 39.2866 221.931 39.943 221.925 40.6244Z" fill="#263238"/>
<path opacity="0.3" d="M221.925 50.1862H113.292V225.661H221.925V50.1862Z" fill="#E5E5EA"/>
<path opacity="0.6" d="M125.27 45.8585H126.612V44.0668H125.27V45.8585Z" fill="#E5E5EA"/>
<path opacity="0.6" d="M123.083 45.8585H124.425V43.4763H123.083V45.8585Z" fill="#E5E5EA"/>
<path opacity="0.6" d="M120.889 45.8585H122.231V42.8791H120.889V45.8585Z" fill="#E5E5EA"/>
<path opacity="0.6" d="M118.701 45.8585H120.043V42.2819H118.701V45.8585Z" fill="#E5E5EA"/>
<path opacity="0.6" d="M209.632 43.4223H208.833V45.214H209.632V43.4223Z" fill="#E5E5EA"/>
<path opacity="0.6" d="M210.183 45.8653H216.517V42.7719H210.183V45.8653Z" fill="#E5E5EA"/>
<path d="M219.248 53.6293H115.976V71.3244H219.248V53.6293Z" fill="#1C1C1E"/>
<path d="M213.465 60.2455C213.902 60.2455 214.257 59.891 214.257 59.4537C214.257 59.0164 213.902 58.6619 213.465 58.6619C213.028 58.6619 212.673 59.0164 212.673 59.4537C212.673 59.891 213.028 60.2455 213.465 60.2455Z" fill="#E5E5EA"/>
<path d="M213.465 63.2653C213.902 63.2653 214.257 62.9108 214.257 62.4735C214.257 62.0362 213.902 61.6817 213.465 61.6817C213.028 61.6817 212.673 62.0362 212.673 62.4735C212.673 62.9108 213.028 63.2653 213.465 63.2653Z" fill="#E5E5EA"/>
<path d="M213.465 66.2851C213.902 66.2851 214.257 65.9305 214.257 65.4932C214.257 65.0559 213.902 64.7014 213.465 64.7014C213.028 64.7014 212.673 65.0559 212.673 65.4932C212.673 65.9305 213.028 66.2851 213.465 66.2851Z" fill="#E5E5EA"/>
<path d="M202.083 64.043C203.495 64.043 204.64 62.8984 204.64 61.4864C204.64 60.0744 203.495 58.9297 202.083 58.9297C200.671 58.9297 199.527 60.0744 199.527 61.4864C199.527 62.8984 200.671 64.043 202.083 64.043Z" stroke="#E5E5EA" stroke-linecap="round" stroke-linejoin="round"/>
<path d="M203.889 63.2917L206.613 66.0228" stroke="#E5E5EA" stroke-linecap="round" stroke-linejoin="round"/>
<path d="M194.381 58.615H188.959V66.3319H194.381V58.615Z" stroke="#E5E5EA" stroke-linecap="round" stroke-linejoin="round"/>
<path d="M196.399 58.8633L192.715 62.3728" stroke="#E5E5EA" stroke-linecap="round" stroke-linejoin="round"/>
<path d="M132.069 58.615H121.856V66.3319H132.069V58.615Z" stroke="#E5E5EA" stroke-linecap="round" stroke-linejoin="round"/>
<path d="M121.856 58.615L126.962 62.4734L132.069 58.615" stroke="#E5E5EA" stroke-linecap="round" stroke-linejoin="round"/>
<path opacity="0.6" d="M218.726 73.9836H115.454V224.322H218.726V73.9836Z" fill="#E5E5EA"/>
<path d="M118.708 93.3134H216.511" stroke="#263238" stroke-linecap="round" stroke-linejoin="round"/>
<path opacity="0.3" d="M133.014 83.5434C133.014 84.7259 132.663 85.8819 132.006 86.8651C131.349 87.8483 130.415 88.6146 129.323 89.0672C128.23 89.5197 127.028 89.6381 125.868 89.4074C124.709 89.1767 123.643 88.6073 122.807 87.7711C121.971 86.935 121.401 85.8696 121.171 84.7098C120.94 83.55 121.058 82.3479 121.511 81.2554C121.963 80.1629 122.73 79.2291 123.713 78.5721C124.696 77.9151 125.852 77.5645 127.035 77.5645C127.82 77.5636 128.598 77.7177 129.324 78.0178C130.05 78.318 130.709 78.7583 131.264 79.3137C131.82 79.8691 132.26 80.5285 132.56 81.2543C132.86 81.9801 133.015 82.758 133.014 83.5434Z" fill="black"/>
<path d="M128.203 85.0402C128.627 84.7906 128.957 84.4087 129.142 83.9532C129.327 83.4977 129.357 82.9939 129.228 82.5195C129.099 82.0451 128.817 81.6264 128.426 81.3279C128.035 81.0294 127.557 80.8677 127.066 80.8677C126.574 80.8677 126.096 81.0294 125.705 81.3279C125.314 81.6264 125.033 82.0451 124.903 82.5195C124.774 82.9939 124.804 83.4977 124.989 83.9532C125.175 84.4087 125.504 84.7906 125.928 85.0402C125.317 85.2718 124.79 85.6841 124.418 86.2223C124.047 86.7605 123.848 87.3991 123.848 88.0531C123.846 88.2376 123.862 88.4218 123.895 88.6034C124.847 89.1999 125.948 89.5163 127.072 89.5163C128.196 89.5163 129.297 89.1999 130.25 88.6034C130.282 88.4218 130.298 88.2376 130.297 88.0531C130.297 87.3973 130.096 86.7572 129.722 86.2186C129.348 85.68 128.818 85.2688 128.203 85.0402Z" fill="#E5E5EA"/>
<path opacity="0.3" d="M155.607 82.2352H138.435C138.331 82.2352 138.227 82.2145 138.131 82.1743C138.034 82.1341 137.947 82.0752 137.873 82.0009C137.799 81.9267 137.741 81.8386 137.702 81.7418C137.663 81.6449 137.643 81.5412 137.644 81.4367C137.644 81.2267 137.727 81.0253 137.875 80.8768C138.024 80.7283 138.225 80.6449 138.435 80.6449H155.607C155.817 80.6449 156.019 80.7283 156.167 80.8768C156.316 81.0253 156.399 81.2267 156.399 81.4367C156.4 81.5412 156.38 81.6449 156.341 81.7418C156.301 81.8386 156.243 81.9267 156.169 82.0009C156.096 82.0752 156.008 82.1341 155.912 82.1743C155.815 82.2145 155.712 82.2352 155.607 82.2352Z" fill="black"/>
<path opacity="0.3" d="M175.738 85.684H138.435C138.225 85.6822 138.023 85.5973 137.875 85.4477C137.727 85.2982 137.644 85.0961 137.644 84.8855C137.643 84.7809 137.663 84.6772 137.702 84.5804C137.741 84.4835 137.799 84.3955 137.873 84.3212C137.947 84.247 138.034 84.1881 138.131 84.1478C138.227 84.1076 138.331 84.0869 138.435 84.0869H175.738C175.947 84.0905 176.146 84.1764 176.292 84.3259C176.438 84.4755 176.518 84.6766 176.517 84.8855C176.517 85.0938 176.435 85.2939 176.29 85.4431C176.144 85.5923 175.946 85.6787 175.738 85.684Z" fill="black"/>
<path d="M118.708 112.915H216.511" stroke="#263238" stroke-linecap="round" stroke-linejoin="round"/>
<path opacity="0.3" d="M133.014 103.144C133.014 104.326 132.663 105.482 132.006 106.466C131.349 107.449 130.415 108.215 129.323 108.668C128.23 109.12 127.028 109.239 125.868 109.008C124.709 108.777 123.643 108.208 122.807 107.372C121.971 106.536 121.401 105.47 121.171 104.31C120.94 103.151 121.058 101.948 121.511 100.856C121.963 99.7634 122.73 98.8297 123.713 98.1727C124.696 97.5157 125.852 97.1651 127.035 97.1651C127.82 97.1642 128.598 97.3182 129.324 97.6184C130.05 97.9185 130.709 98.3589 131.264 98.9143C131.82 99.4696 132.26 100.129 132.56 100.855C132.86 101.581 133.015 102.359 133.014 103.144Z" fill="black"/>
<path d="M128.203 104.641C128.627 104.391 128.957 104.009 129.142 103.554C129.327 103.098 129.357 102.595 129.228 102.12C129.099 101.646 128.817 101.227 128.426 100.929C128.035 100.63 127.557 100.468 127.066 100.468C126.574 100.468 126.096 100.63 125.705 100.929C125.314 101.227 125.033 101.646 124.903 102.12C124.774 102.595 124.804 103.098 124.989 103.554C125.175 104.009 125.504 104.391 125.928 104.641C125.317 104.872 124.79 105.285 124.418 105.823C124.047 106.361 123.848 107 123.848 107.654C123.846 107.838 123.862 108.022 123.895 108.204C124.847 108.801 125.948 109.117 127.072 109.117C128.196 109.117 129.297 108.801 130.25 108.204C130.282 108.022 130.298 107.838 130.297 107.654C130.297 106.998 130.096 106.358 129.722 105.819C129.348 105.281 128.818 104.869 128.203 104.641Z" fill="#E5E5EA"/>
<path opacity="0.3" d="M155.607 101.829H138.435C138.225 101.829 138.024 101.746 137.875 101.597C137.727 101.449 137.644 101.247 137.644 101.037C137.643 100.933 137.663 100.829 137.702 100.732C137.741 100.635 137.799 100.547 137.873 100.473C137.947 100.399 138.034 100.34 138.131 100.299C138.227 100.259 138.331 100.239 138.435 100.239H155.607C155.712 100.239 155.815 100.259 155.912 100.299C156.008 100.34 156.096 100.399 156.169 100.473C156.243 100.547 156.301 100.635 156.341 100.732C156.38 100.829 156.4 100.933 156.399 101.037C156.399 101.247 156.316 101.449 156.167 101.597C156.019 101.746 155.817 101.829 155.607 101.829Z" fill="black"/>
<path opacity="0.3" d="M175.738 105.278H138.435C138.331 105.278 138.227 105.257 138.131 105.217C138.034 105.177 137.947 105.118 137.873 105.044C137.799 104.969 137.741 104.881 137.702 104.784C137.663 104.688 137.643 104.584 137.644 104.479C137.644 104.269 137.727 104.068 137.875 103.919C138.024 103.771 138.225 103.688 138.435 103.688H175.738C175.946 103.691 176.144 103.776 176.289 103.924C176.435 104.072 176.517 104.272 176.517 104.479C176.518 104.688 176.438 104.889 176.292 105.039C176.146 105.188 175.947 105.274 175.738 105.278Z" fill="black"/>
<path d="M118.708 132.509H216.511" stroke="#263238" stroke-linecap="round" stroke-linejoin="round"/>
<path opacity="0.3" d="M133.014 122.739C133.014 123.921 132.663 125.077 132.006 126.06C131.349 127.044 130.415 127.81 129.323 128.262C128.23 128.715 127.028 128.833 125.868 128.603C124.709 128.372 123.643 127.803 122.807 126.966C121.971 126.13 121.401 125.065 121.171 123.905C120.94 122.745 121.058 121.543 121.511 120.451C121.963 119.358 122.73 118.424 123.713 117.767C124.696 117.11 125.852 116.76 127.035 116.76C127.82 116.759 128.598 116.913 129.324 117.213C130.05 117.513 130.709 117.954 131.264 118.509C131.82 119.064 132.26 119.724 132.56 120.45C132.86 121.175 133.015 121.953 133.014 122.739Z" fill="black"/>
<path d="M128.203 124.235C128.627 123.986 128.957 123.604 129.142 123.149C129.327 122.693 129.357 122.189 129.228 121.715C129.099 121.24 128.817 120.822 128.426 120.523C128.035 120.225 127.557 120.063 127.066 120.063C126.574 120.063 126.096 120.225 125.705 120.523C125.314 120.822 125.033 121.24 124.903 121.715C124.774 122.189 124.804 122.693 124.989 123.149C125.175 123.604 125.504 123.986 125.928 124.235C125.317 124.467 124.79 124.879 124.418 125.418C124.047 125.956 123.848 126.594 123.848 127.248C123.846 127.433 123.862 127.617 123.895 127.799C124.847 128.395 125.948 128.712 127.072 128.712C128.196 128.712 129.297 128.395 130.25 127.799C130.282 127.617 130.298 127.433 130.297 127.248C130.297 126.593 130.096 125.952 129.722 125.414C129.348 124.875 128.818 124.464 128.203 124.235Z" fill="#E5E5EA"/>
<path opacity="0.3" d="M155.607 121.457H138.435C138.331 121.457 138.227 121.436 138.131 121.396C138.034 121.356 137.947 121.297 137.873 121.222C137.799 121.148 137.741 121.06 137.702 120.963C137.663 120.866 137.643 120.763 137.644 120.658C137.644 120.448 137.727 120.246 137.875 120.096C138.023 119.946 138.225 119.861 138.435 119.86H155.607C155.818 119.861 156.019 119.946 156.167 120.096C156.316 120.246 156.399 120.448 156.399 120.658C156.4 120.763 156.38 120.866 156.341 120.963C156.301 121.06 156.243 121.148 156.169 121.222C156.096 121.297 156.008 121.356 155.912 121.396C155.815 121.436 155.712 121.457 155.607 121.457Z" fill="black"/>
<path opacity="0.3" d="M175.738 124.873H138.435C138.225 124.873 138.024 124.789 137.875 124.641C137.727 124.492 137.644 124.291 137.644 124.081C137.643 123.976 137.663 123.873 137.702 123.776C137.741 123.679 137.799 123.591 137.873 123.517C137.947 123.442 138.034 123.383 138.131 123.343C138.227 123.303 138.331 123.282 138.435 123.282H175.738C175.843 123.282 175.946 123.303 176.043 123.343C176.139 123.383 176.227 123.442 176.3 123.517C176.374 123.591 176.432 123.679 176.472 123.776C176.511 123.873 176.531 123.976 176.53 124.081C176.53 124.185 176.509 124.288 176.47 124.384C176.43 124.48 176.372 124.567 176.298 124.641C176.224 124.714 176.137 124.773 176.041 124.812C175.945 124.852 175.842 124.873 175.738 124.873Z" fill="black"/>
<path d="M118.708 152.103H216.511" stroke="#263238" stroke-linecap="round" stroke-linejoin="round"/>
<path opacity="0.3" d="M133.014 142.339C133.014 143.522 132.663 144.678 132.006 145.661C131.349 146.644 130.415 147.411 129.323 147.863C128.23 148.316 127.028 148.434 125.868 148.203C124.709 147.973 123.643 147.403 122.807 146.567C121.971 145.731 121.401 144.665 121.171 143.506C120.94 142.346 121.058 141.144 121.511 140.051C121.963 138.959 122.73 138.025 123.713 137.368C124.696 136.711 125.852 136.36 127.035 136.36C127.82 136.359 128.598 136.514 129.324 136.814C130.05 137.114 130.709 137.554 131.264 138.11C131.82 138.665 132.26 139.324 132.56 140.05C132.86 140.776 133.015 141.554 133.014 142.339Z" fill="black"/>
<path d="M128.203 143.836C128.627 143.587 128.957 143.205 129.142 142.749C129.327 142.294 129.357 141.79 129.228 141.315C129.099 140.841 128.817 140.422 128.426 140.124C128.035 139.825 127.557 139.664 127.066 139.664C126.574 139.664 126.096 139.825 125.705 140.124C125.314 140.422 125.033 140.841 124.903 141.315C124.774 141.79 124.804 142.294 124.989 142.749C125.175 143.205 125.504 143.587 125.928 143.836C125.317 144.068 124.79 144.48 124.418 145.018C124.047 145.556 123.848 146.195 123.848 146.849C123.846 147.034 123.862 147.218 123.895 147.399C124.847 147.996 125.948 148.312 127.072 148.312C128.196 148.312 129.297 147.996 130.25 147.399C130.282 147.218 130.298 147.034 130.297 146.849C130.297 146.193 130.096 145.553 129.722 145.014C129.348 144.476 128.818 144.065 128.203 143.836Z" fill="#E5E5EA"/>
<path opacity="0.3" d="M155.607 141.024H138.435C138.331 141.024 138.227 141.004 138.131 140.963C138.034 140.923 137.947 140.864 137.873 140.79C137.799 140.716 137.741 140.628 137.702 140.531C137.663 140.434 137.643 140.33 137.644 140.226C137.644 140.016 137.727 139.814 137.875 139.666C138.024 139.517 138.225 139.434 138.435 139.434H155.607C155.712 139.436 155.815 139.458 155.911 139.5C156.007 139.542 156.093 139.602 156.166 139.678C156.238 139.753 156.295 139.842 156.332 139.94C156.37 140.037 156.388 140.141 156.386 140.246C156.382 140.451 156.299 140.647 156.154 140.792C156.008 140.938 155.812 141.021 155.607 141.024Z" fill="black"/>
<path opacity="0.3" d="M175.738 144.473H138.435C138.331 144.473 138.227 144.452 138.131 144.412C138.034 144.372 137.947 144.313 137.873 144.239C137.799 144.165 137.741 144.076 137.702 143.98C137.663 143.883 137.643 143.779 137.644 143.674C137.644 143.464 137.727 143.262 137.875 143.112C138.023 142.963 138.225 142.878 138.435 142.876H175.738C175.949 142.878 176.15 142.963 176.298 143.112C176.447 143.262 176.53 143.464 176.53 143.674C176.531 143.779 176.511 143.883 176.472 143.98C176.432 144.076 176.374 144.165 176.3 144.239C176.227 144.313 176.139 144.372 176.043 144.412C175.946 144.452 175.843 144.473 175.738 144.473Z" fill="black"/>
<path d="M118.708 171.704H216.511" stroke="#263238" stroke-linecap="round" stroke-linejoin="round"/>
<path opacity="0.3" d="M133.014 161.934C133.014 163.117 132.663 164.272 132.006 165.256C131.349 166.239 130.415 167.005 129.323 167.458C128.23 167.91 127.028 168.029 125.868 167.798C124.709 167.567 123.643 166.998 122.807 166.162C121.971 165.326 121.401 164.26 121.171 163.1C120.94 161.941 121.058 160.738 121.511 159.646C121.963 158.553 122.73 157.62 123.713 156.963C124.696 156.306 125.852 155.955 127.035 155.955C127.82 155.954 128.598 156.108 129.324 156.408C130.05 156.709 130.709 157.149 131.264 157.704C131.82 158.26 132.26 158.919 132.56 159.645C132.86 160.371 133.015 161.149 133.014 161.934Z" fill="black"/>
<path d="M128.203 163.43C128.627 163.18 128.957 162.798 129.142 162.343C129.327 161.887 129.357 161.384 129.228 160.909C129.099 160.435 128.817 160.016 128.426 159.718C128.035 159.419 127.557 159.257 127.066 159.257C126.574 159.257 126.096 159.419 125.705 159.718C125.314 160.016 125.033 160.435 124.903 160.909C124.774 161.384 124.804 161.887 124.989 162.343C125.175 162.798 125.504 163.18 125.928 163.43C125.317 163.661 124.79 164.074 124.418 164.612C124.047 165.15 123.848 165.789 123.848 166.443C123.846 166.627 123.862 166.811 123.895 166.993C124.847 167.59 125.948 167.906 127.072 167.906C128.196 167.906 129.297 167.59 130.25 166.993C130.282 166.811 130.298 166.627 130.297 166.443C130.297 165.787 130.096 165.147 129.722 164.608C129.348 164.07 128.818 163.658 128.203 163.43Z" fill="#E5E5EA"/>
<path opacity="0.3" d="M155.607 160.625H138.435C138.225 160.623 138.023 160.538 137.875 160.388C137.727 160.239 137.644 160.037 137.644 159.826C137.643 159.722 137.663 159.618 137.702 159.521C137.741 159.424 137.799 159.336 137.873 159.262C137.947 159.188 138.034 159.129 138.131 159.089C138.227 159.048 138.331 159.028 138.435 159.028H155.607C155.712 159.028 155.815 159.048 155.912 159.089C156.008 159.129 156.096 159.188 156.169 159.262C156.243 159.336 156.301 159.424 156.341 159.521C156.38 159.618 156.4 159.722 156.399 159.826C156.399 160.037 156.316 160.239 156.167 160.388C156.019 160.538 155.818 160.623 155.607 160.625Z" fill="black"/>
<path opacity="0.3" d="M175.738 164.068H138.435C138.225 164.068 138.024 163.984 137.875 163.836C137.727 163.687 137.644 163.486 137.644 163.276C137.643 163.172 137.663 163.068 137.702 162.971C137.741 162.874 137.799 162.786 137.873 162.712C137.947 162.638 138.034 162.579 138.131 162.538C138.227 162.498 138.331 162.478 138.435 162.478H175.738C175.843 162.478 175.946 162.498 176.043 162.538C176.139 162.579 176.227 162.638 176.3 162.712C176.374 162.786 176.432 162.874 176.472 162.971C176.511 163.068 176.531 163.172 176.53 163.276C176.53 163.38 176.509 163.483 176.47 163.579C176.43 163.675 176.372 163.762 176.298 163.836C176.224 163.909 176.137 163.968 176.041 164.008C175.945 164.047 175.842 164.068 175.738 164.068Z" fill="black"/>
<path d="M118.708 191.298H216.511" stroke="#263238" stroke-linecap="round" stroke-linejoin="round"/>
<path opacity="0.3" d="M133.014 181.528C133.014 182.71 132.663 183.866 132.006 184.849C131.349 185.833 130.415 186.599 129.323 187.052C128.23 187.504 127.028 187.622 125.868 187.392C124.709 187.161 123.643 186.592 122.807 185.755C121.971 184.919 121.401 183.854 121.171 182.694C120.94 181.534 121.058 180.332 121.511 179.24C121.963 178.147 122.73 177.213 123.713 176.556C124.696 175.899 125.852 175.549 127.035 175.549C127.82 175.548 128.598 175.702 129.324 176.002C130.05 176.302 130.709 176.743 131.264 177.298C131.82 177.853 132.26 178.513 132.56 179.239C132.86 179.964 133.015 180.742 133.014 181.528Z" fill="black"/>
<path d="M128.203 183.025C128.627 182.775 128.957 182.393 129.142 181.938C129.327 181.482 129.357 180.978 129.228 180.504C129.099 180.029 128.817 179.611 128.426 179.312C128.035 179.014 127.557 178.852 127.066 178.852C126.574 178.852 126.096 179.014 125.705 179.312C125.314 179.611 125.033 180.029 124.903 180.504C124.774 180.978 124.804 181.482 124.989 181.938C125.175 182.393 125.504 182.775 125.928 183.025C125.317 183.256 124.79 183.668 124.418 184.207C124.047 184.745 123.848 185.383 123.848 186.037C123.846 186.222 123.862 186.406 123.895 186.588C124.847 187.184 125.948 187.501 127.072 187.501C128.196 187.501 129.297 187.184 130.25 186.588C130.282 186.406 130.298 186.222 130.297 186.037C130.297 185.382 130.096 184.741 129.722 184.203C129.348 183.664 128.818 183.253 128.203 183.025Z" fill="#E5E5EA"/>
<path opacity="0.3" d="M155.607 180.22H138.435C138.331 180.22 138.227 180.199 138.131 180.159C138.034 180.118 137.947 180.06 137.873 179.985C137.799 179.911 137.741 179.823 137.702 179.726C137.663 179.629 137.643 179.526 137.644 179.421C137.644 179.211 137.727 179.01 137.875 178.861C138.024 178.713 138.225 178.629 138.435 178.629H155.607C155.817 178.629 156.019 178.713 156.167 178.861C156.316 179.01 156.399 179.211 156.399 179.421C156.4 179.526 156.38 179.629 156.341 179.726C156.301 179.823 156.243 179.911 156.169 179.985C156.096 180.06 156.008 180.118 155.912 180.159C155.815 180.199 155.712 180.22 155.607 180.22Z" fill="black"/>
<path opacity="0.3" d="M175.738 183.668H138.435C138.225 183.667 138.023 183.582 137.875 183.432C137.727 183.283 137.644 183.08 137.644 182.87C137.643 182.765 137.663 182.662 137.702 182.565C137.741 182.468 137.799 182.38 137.873 182.306C137.947 182.231 138.034 182.172 138.131 182.132C138.227 182.092 138.331 182.071 138.435 182.071H175.738C175.843 182.071 175.946 182.092 176.043 182.132C176.139 182.172 176.227 182.231 176.3 182.306C176.374 182.38 176.432 182.468 176.472 182.565C176.511 182.662 176.531 182.765 176.53 182.87C176.53 183.08 176.447 183.283 176.298 183.432C176.15 183.582 175.949 183.667 175.738 183.668Z" fill="black"/>
<path d="M118.708 210.899H216.511" stroke="#263238" stroke-linecap="round" stroke-linejoin="round"/>
<path opacity="0.3" d="M133.014 201.128C133.014 202.311 132.663 203.467 132.006 204.45C131.349 205.433 130.415 206.2 129.323 206.652C128.23 207.105 127.028 207.223 125.868 206.992C124.709 206.762 123.643 206.192 122.807 205.356C121.971 204.52 121.401 203.455 121.171 202.295C120.94 201.135 121.058 199.933 121.511 198.84C121.963 197.748 122.73 196.814 123.713 196.157C124.696 195.5 125.852 195.149 127.035 195.149C127.82 195.149 128.598 195.303 129.324 195.603C130.05 195.903 130.709 196.343 131.264 196.899C131.82 197.454 132.26 198.113 132.56 198.839C132.86 199.565 133.015 200.343 133.014 201.128Z" fill="black"/>
<path d="M128.203 202.652C128.627 202.402 128.957 202.02 129.142 201.565C129.327 201.109 129.357 200.605 129.228 200.131C129.099 199.656 128.817 199.238 128.426 198.939C128.035 198.641 127.557 198.479 127.066 198.479C126.574 198.479 126.096 198.641 125.705 198.939C125.314 199.238 125.033 199.656 124.903 200.131C124.774 200.605 124.804 201.109 124.989 201.565C125.175 202.02 125.504 202.402 125.928 202.652C125.317 202.883 124.79 203.295 124.418 203.834C124.047 204.372 123.848 205.01 123.848 205.664C123.846 205.849 123.862 206.033 123.895 206.215C124.847 206.811 125.948 207.128 127.072 207.128C128.196 207.128 129.297 206.811 130.25 206.215C130.282 206.033 130.298 205.849 130.297 205.664C130.297 205.009 130.096 204.368 129.722 203.83C129.348 203.291 128.818 202.88 128.203 202.652Z" fill="#E5E5EA"/>
<path opacity="0.3" d="M155.607 199.813H138.435C138.225 199.813 138.024 199.73 137.875 199.581C137.727 199.433 137.644 199.231 137.644 199.021C137.643 198.917 137.663 198.813 137.702 198.716C137.741 198.62 137.799 198.531 137.873 198.457C137.947 198.383 138.034 198.324 138.131 198.284C138.227 198.244 138.331 198.223 138.435 198.223H155.607C155.712 198.223 155.815 198.244 155.912 198.284C156.008 198.324 156.096 198.383 156.169 198.457C156.243 198.531 156.301 198.62 156.341 198.716C156.38 198.813 156.4 198.917 156.399 199.021C156.399 199.231 156.316 199.433 156.167 199.581C156.019 199.73 155.817 199.813 155.607 199.813Z" fill="black"/>
<path opacity="0.3" d="M175.738 203.262H138.435C138.331 203.262 138.227 203.242 138.131 203.201C138.034 203.161 137.947 203.102 137.873 203.028C137.799 202.954 137.741 202.866 137.702 202.769C137.663 202.672 137.643 202.568 137.644 202.464C137.644 202.254 137.727 202.052 137.875 201.904C138.024 201.755 138.225 201.672 138.435 201.672H175.738C175.948 201.672 176.15 201.755 176.298 201.904C176.447 202.052 176.53 202.254 176.53 202.464C176.531 202.568 176.511 202.672 176.472 202.769C176.432 202.866 176.374 202.954 176.3 203.028C176.227 203.102 176.139 203.161 176.043 203.201C175.946 203.242 175.843 203.262 175.738 203.262Z" fill="black"/>
<path d="M208.055 82.644V85.6368H207.384V83.2077H206.78V82.6574L208.055 82.644Z" fill="#E5E5EA"/>
<path d="M208.994 104.177H208.505V104.801H207.834V104.177H206.223V103.708L207.632 101.809H208.364L207.055 103.607H207.854V103.05H208.525V103.607H209.015L208.994 104.177Z" fill="#E5E5EA"/>
<path d="M208.727 123.403V123.973H206.466V123.524L207.62 122.43C207.882 122.175 207.929 122.021 207.929 121.88C207.929 121.739 207.767 121.504 207.452 121.504C207.331 121.5 207.212 121.525 207.103 121.578C206.994 121.63 206.9 121.709 206.828 121.806L206.325 121.477C206.462 121.294 206.642 121.148 206.849 121.051C207.056 120.954 207.284 120.909 207.512 120.92C208.184 120.92 208.626 121.262 208.626 121.806C208.623 121.991 208.576 122.173 208.49 122.338C208.404 122.502 208.28 122.644 208.13 122.752L207.459 123.423L208.727 123.403Z" fill="#E5E5EA"/>
<path d="M208.056 140.139V143.138H207.385V140.696H206.788V140.139H208.056Z" fill="#E5E5EA"/>
<path d="M208.056 159.31V162.303H207.385V159.86H206.788V159.31H208.056Z" fill="#E5E5EA"/>
<path d="M134.656 64.7009C134.656 66.1296 133.497 67.2877 132.069 67.2877C130.64 67.2877 129.482 66.1296 129.482 64.7009C129.482 63.2723 130.64 62.1142 132.069 62.1142C133.497 62.1142 134.656 63.2723 134.656 64.7009Z" fill="#E5E5EA" stroke="#E5E5EA"/>
<path d="M133.263 64.8079C133.286 65.018 133.262 65.2306 133.195 65.4309C133.127 65.6311 133.016 65.8142 132.871 65.9675C132.725 66.1207 132.548 66.2404 132.352 66.3183C132.155 66.3962 131.944 66.4303 131.733 66.4184C131.444 66.4263 131.158 66.3544 130.908 66.2104L131.163 65.7004C131.328 65.8086 131.522 65.8626 131.719 65.8547C131.835 65.862 131.95 65.8442 132.058 65.8026C132.166 65.761 132.263 65.6965 132.343 65.6135C132.424 65.5306 132.485 65.4312 132.523 65.3223C132.562 65.2133 132.576 65.0973 132.565 64.9824C132.465 65.0745 132.348 65.1457 132.22 65.1918C132.092 65.2379 131.956 65.2579 131.82 65.2508C131.69 65.2618 131.559 65.246 131.435 65.2044C131.312 65.1627 131.198 65.0961 131.101 65.0087C131.004 64.9212 130.926 64.8148 130.872 64.696C130.818 64.5772 130.789 64.4485 130.787 64.318C130.791 64.1763 130.824 64.0368 130.884 63.9084C130.944 63.78 131.03 63.6653 131.136 63.5715C131.243 63.4777 131.367 63.4068 131.502 63.3632C131.637 63.3197 131.78 63.3043 131.921 63.3182C132.753 63.3182 133.263 63.8349 133.263 64.8079ZM132.491 64.2845C132.491 64.0228 132.297 63.8349 131.968 63.8349C131.849 63.8349 131.734 63.8823 131.65 63.9666C131.566 64.0509 131.518 64.1652 131.518 64.2845C131.518 64.4037 131.566 64.5181 131.65 64.6024C131.734 64.6867 131.849 64.7341 131.968 64.7341C132.032 64.7415 132.097 64.7356 132.159 64.7166C132.221 64.6976 132.279 64.666 132.328 64.6238C132.377 64.5816 132.417 64.5296 132.445 64.4712C132.473 64.4128 132.489 64.3493 132.491 64.2845Z" fill="#263238"/>
<path d="M168.464 229.185H166.76C166.041 229.185 165.458 229.768 165.458 230.487V232.191C165.458 232.91 166.041 233.493 166.76 233.493H168.464C169.183 233.493 169.766 232.91 169.766 232.191V230.487C169.766 229.768 169.183 229.185 168.464 229.185Z" stroke="#E5E5EA" stroke-miterlimit="10"/>
<path opacity="0.6" d="M167.593 38.2488C167.593 38.5434 167.505 38.8315 167.341 39.0764C167.178 39.3214 166.945 39.5123 166.673 39.6251C166.401 39.7378 166.101 39.7674 165.812 39.7099C165.523 39.6524 165.258 39.5105 165.049 39.3022C164.841 39.0938 164.699 38.8284 164.642 38.5394C164.584 38.2505 164.614 37.9509 164.727 37.6787C164.839 37.4065 165.03 37.1739 165.275 37.0102C165.52 36.8465 165.808 36.7591 166.103 36.7591C166.498 36.7591 166.877 36.9161 167.156 37.1954C167.436 37.4748 167.593 37.8537 167.593 38.2488Z" fill="black"/>
<path opacity="0.6" d="M170.613 38.2487C170.614 38.4387 170.559 38.6249 170.454 38.7836C170.35 38.9423 170.2 39.0663 170.025 39.14C169.85 39.2136 169.657 39.2336 169.47 39.1973C169.284 39.1611 169.112 39.0702 168.977 38.9363C168.842 38.8024 168.75 38.6314 168.713 38.4451C168.675 38.2588 168.694 38.0655 168.766 37.8897C168.838 37.714 168.961 37.5637 169.119 37.458C169.277 37.3523 169.463 37.2958 169.653 37.2958C169.779 37.2949 169.903 37.3189 170.02 37.3664C170.136 37.4139 170.242 37.4839 170.331 37.5725C170.42 37.6611 170.491 37.7664 170.54 37.8825C170.588 37.9985 170.613 38.123 170.613 38.2487Z" fill="black"/>
<path opacity="0.2" d="M216.929 39.1434L112.772 143.315V41.5323C112.76 41.23 112.808 40.9284 112.913 40.6446C113.018 40.3609 113.178 40.1007 113.384 39.8788C113.589 39.6569 113.837 39.4778 114.112 39.3516C114.386 39.2254 114.684 39.1547 114.986 39.1434H140.774C141.135 39.1488 141.487 39.2622 141.784 39.4691C142.08 39.6759 142.308 39.9668 142.438 40.3043L143.505 42.9281C143.635 43.263 143.862 43.5513 144.158 43.7559C144.453 43.9604 144.803 44.0717 145.162 44.0755H189.068C189.431 44.0819 189.787 43.9775 190.09 43.776C190.392 43.5746 190.625 43.2858 190.759 42.9482L191.833 40.3043C191.961 39.9674 192.188 39.6767 192.483 39.4698C192.779 39.2629 193.129 39.1492 193.49 39.1434H216.929Z" fill="#E5E5EA"/>
<path opacity="0.2" d="M221.925 46.7305V61.2181L113.292 169.852V155.357L221.925 46.7305Z" fill="#E5E5EA"/>
<path d="M32.3869 243.134H33.4807L40.5534 180.004L38.2115 180.346L32.3869 243.134Z" fill="#263238"/>
<path d="M72.3541 180.346L70.0122 180.004L77.0782 243.134H78.1787L72.3541 180.346Z" fill="#263238"/>
<g opacity="0.1">
<path d="M37.4065 189.062L32.3872 243.134H33.481L39.5404 189.062H37.4065Z" fill="#E5E5EA"/>
<path d="M71.0253 189.062L77.078 243.134H78.1785L73.1592 189.062H71.0253Z" fill="#E5E5EA"/>
</g>
<path d="M78.1774 243.134L65.6224 205.932L72.3327 180.346L69.9908 180.004L64.5085 202.685L56.852 180.004L55.2617 180.239L53.6646 180.004L46.0148 202.685L40.5325 180.004L38.1906 180.346L44.9009 205.932L32.3459 243.134H33.4397L45.6994 208.992L54.6779 243.134H55.8052L64.7769 208.992L77.0367 243.134H78.1774ZM55.2818 240.933L46.8268 205.966L55.2818 182.433L63.7301 205.966L55.2818 240.933Z" fill="#263238"/>
<path d="M38.8021 174.153H71.7632C72.4146 174.153 73.0393 174.412 73.4999 174.872C73.9605 175.333 74.2192 175.957 74.2192 176.609V181.051H36.3461V176.609C36.3461 175.957 36.6049 175.333 37.0655 174.872C37.5261 174.412 38.1507 174.153 38.8021 174.153Z" fill="#263238"/>
<path d="M35.8298 178.4H74.7497C74.9384 178.4 75.1193 178.475 75.2527 178.609C75.3861 178.742 75.461 178.923 75.461 179.112V181.588C75.461 181.775 75.3868 181.954 75.2547 182.086C75.1225 182.218 74.9433 182.292 74.7565 182.292H35.8365C35.6497 182.292 35.4705 182.218 35.3383 182.086C35.2062 181.954 35.132 181.775 35.132 181.588V179.112C35.1319 178.925 35.205 178.747 35.3355 178.613C35.466 178.48 35.6435 178.404 35.8298 178.4Z" fill="#263238"/>
<path opacity="0.5" d="M35.8298 178.4H74.7497C74.9384 178.4 75.1193 178.475 75.2527 178.609C75.3861 178.742 75.461 178.923 75.461 179.112V181.588C75.461 181.775 75.3868 181.954 75.2547 182.086C75.1225 182.218 74.9433 182.292 74.7565 182.292H35.8365C35.6497 182.292 35.4705 182.218 35.3383 182.086C35.2062 181.954 35.132 181.775 35.132 181.588V179.112C35.1319 178.925 35.205 178.747 35.3355 178.613C35.466 178.48 35.6435 178.404 35.8298 178.4Z" fill="#E5E5EA"/>
<path opacity="0.3" d="M71.2263 184.641L68.8777 184.688L64.5294 202.685L58.4901 184.802H56.1348L63.7308 205.96L55.2825 240.928L46.8275 205.96L54.4303 184.802H52.075L46.0357 202.699L41.6404 184.534C40.8151 184.494 40.0233 184.447 39.2717 184.393L44.9419 205.96L32.3869 243.162H33.4807L45.7405 209.02L54.7189 243.162H55.8462L64.8179 209.02L77.0777 243.162H78.1782L65.6232 205.96L71.2263 184.641Z" fill="#E5E5EA"/>
<path d="M106.522 86.8384C105.851 86.5096 100.402 88.375 99.6575 88.8917C98.9126 89.4084 98.7516 91.1263 98.7516 91.1263L92.9002 98.1117C86.9414 105.943 67.4412 107.258 67.4412 107.258L68.1122 113.606C68.1122 113.606 89.0417 110.512 94.7589 102.071L101.14 93.1394C101.657 93.1863 106.629 92.1127 107.529 91.4148C108.428 90.7169 107.227 87.1605 106.522 86.8384Z" fill="#C29EA0"/>
<path d="M48.3505 115.558C48.3505 115.558 43.244 129.153 39.3989 131.079C34.2588 133.649 25.3073 119.9 25.3073 119.9L27.9377 118.403C27.9377 118.403 35.2654 126.127 37.3724 125.241C39.4795 124.355 41.9958 114.35 41.9958 114.35L48.3505 115.558Z" fill="#C29EA0"/>
<path d="M42.1697 112.511C42.1697 112.511 47.9204 114.068 49.0209 118.98L44.8337 125.616L37.8751 123.469C37.8751 123.469 40.5055 113.135 42.1697 112.511Z" fill="#263238"/>
<path d="M70.3939 105.694C72.407 105.13 76.762 105.217 76.762 105.546C76.762 105.875 74.8025 113.357 74.8025 113.357L69.2263 117.343L70.3939 105.694Z" fill="#263238"/>
<path d="M42.8747 93.8029C42.8747 93.8029 41.8883 103.083 45.324 105.365C48.7597 107.646 65.6764 104.976 67.5956 101.238C69.5147 97.5003 62.2944 87.3677 62.2944 87.3677L42.8747 93.8029Z" fill="#263238"/>
<path d="M114.931 215.837L110.522 216.904L108.288 210.811L106.261 205.268L111.287 203.128L113.22 209.851L114.931 215.837Z" fill="#C29EA0"/>
<path opacity="0.2" d="M113.22 209.851L108.288 210.811L106.261 205.268L111.287 203.128L113.22 209.851Z" fill="black"/>
<path d="M112.77 206.638L106.65 208.912C106.65 208.912 90.3236 168.093 86.9685 167.979C83.6133 167.865 49.451 183.541 40.8886 174.831C32.3262 166.121 44.7068 145.144 44.7068 145.144C44.7068 145.144 65.3008 142.205 66.8509 146.855C67.2324 148.226 67.5238 149.62 67.7232 151.029C67.9581 152.452 68.1191 153.646 68.1191 153.646C68.7566 153.485 89.4311 148.15 97.5775 153.646C105.871 159.216 112.77 206.638 112.77 206.638Z" fill="#4E0F12"/>
<path d="M77.5729 233.25L73.1776 232.13L74.0231 225.815L74.8082 220.031L80.2436 220.521L78.8344 227.265L77.5729 233.25Z" fill="#C29EA0"/>
<path opacity="0.2" d="M78.8023 227.399L73.991 225.936L74.7962 220.092L80.2383 220.555L78.8023 227.399Z" fill="black"/>
<path d="M104.126 206.645L113.037 203.618L113.42 207.269L106.663 209.658L104.126 206.645Z" fill="#263238"/>
<path d="M55.6848 176.897C55.6848 176.897 57.0805 176.93 78.6811 175.924C78.6811 175.924 75.4467 202.926 73.6886 223.145L80.1506 224.245C80.1506 224.245 95.5844 180.957 95.4166 174.079C95.2489 167.201 87.3642 165.187 87.3642 165.187C87.3642 165.187 71.9707 174.079 55.6848 176.897Z" fill="#4E0F12"/>
<path opacity="0.2" d="M55.6848 176.897C55.6848 176.897 57.0805 176.93 78.6811 175.924C78.6811 175.924 75.4467 202.926 73.6886 223.145L80.1506 224.245C80.1506 224.245 95.5844 180.957 95.4166 174.079C95.2489 167.201 87.3642 165.187 87.3642 165.187C87.3642 165.187 71.9707 174.079 55.6848 176.897Z" fill="black"/>
<path d="M72.7422 221.185L81.62 222.199L79.9089 225.675L72.7221 224.755L72.7422 221.185Z" fill="#263238"/>
<path opacity="0.2" d="M68.1247 153.619L56.0797 156.128C56.0797 156.128 62.7363 152.451 67.7288 151.002C67.9636 152.424 68.1247 153.619 68.1247 153.619Z" fill="black"/>
<path d="M45.2089 141.916L44.7123 145.117L66.8564 146.828L67.4402 143.037L45.2089 141.916Z" fill="black"/>
<path d="M52.7557 141.705L51.661 141.592L51.088 147.166L52.1827 147.279L52.7557 141.705Z" fill="#4E0F12"/>
<path d="M62.2516 143.041L57.4033 142.729L57.1669 146.406L62.0151 146.718L62.2516 143.041Z" fill="#E5E5EA"/>
<path d="M66.3735 142.294L65.2787 142.182L64.7057 147.756L65.8004 147.868L66.3735 142.294Z" fill="#4E0F12"/>
<path d="M122.238 224.413C121.568 224.103 120.847 223.918 120.11 223.87C120.11 223.87 117.561 222.373 115.037 216.542H112.192C111.712 216.547 111.245 216.699 110.855 216.979C110.465 217.259 110.17 217.652 110.011 218.105C109.964 218.23 109.937 218.361 109.931 218.495C109.958 219.181 110.032 219.865 110.152 220.541C110.568 222.81 111.121 225.051 111.81 227.252L112.293 227.131L111.427 222.85C111.139 221.414 112.655 222.803 113.353 224.252C114.051 225.702 115.131 227.171 118.272 226.453C121.909 225.594 123.385 225.071 122.238 224.413Z" fill="#4E0F12"/>
<path d="M114.521 215.018C114.521 215.018 118.064 222.44 120.11 223.869C120.11 223.869 117.373 225.5 114.521 221.856C110.837 217.159 109.931 218.467 109.931 218.467C110.005 217.657 110.153 216.855 110.374 216.072C110.931 214.569 114.521 215.018 114.521 215.018Z" fill="#C29EA0"/>
<path d="M83.1691 242.095C82.5893 241.638 81.9326 241.288 81.2298 241.061C81.2298 241.061 79.1094 239.001 78.0357 232.741L75.2845 232.07C74.8154 231.962 74.3247 232.001 73.8784 232.181C73.4321 232.361 73.0517 232.673 72.7882 233.076C72.7146 233.188 72.658 233.31 72.6205 233.438C72.4863 234.103 72.3944 234.775 72.3454 235.452C72.2063 237.744 72.2063 240.044 72.3454 242.336H72.8419L72.9963 238.015C73.0567 236.545 74.1974 238.256 74.5329 239.833C74.8684 241.41 75.573 243.081 78.7873 243.128C82.5719 243.168 84.1287 243.007 83.1691 242.095Z" fill="#4E0F12"/>
<path d="M77.8766 231.137C77.8766 231.137 79.5609 239.189 81.2317 241.062C81.2317 241.062 78.1852 242.001 76.2728 237.794C73.8101 232.358 72.6224 233.419 72.6224 233.419C72.8845 232.648 73.2193 231.904 73.6222 231.197C74.5214 229.855 77.8766 231.137 77.8766 231.137Z" fill="#C29EA0"/>
<path d="M62.8516 89.8777C62.8516 89.8777 61.6035 75.1552 49.2967 80.4832C33.863 87.1936 46.1295 105.137 53.6786 101.453C61.2277 97.7691 62.8516 89.8777 62.8516 89.8777Z" fill="#263238"/>
<path d="M44.9012 114.008C45.7803 118.926 46.7264 128.267 45.1495 142.124L67.5284 143.372C67.5284 143.372 71.5949 116.947 70.3937 105.694C69.5389 105.769 68.6923 105.919 67.864 106.143C61.4103 107.698 54.8598 108.819 48.2564 109.498C47.7313 109.554 47.2235 109.718 46.765 109.98C46.3064 110.241 45.9069 110.595 45.5917 111.019C45.2766 111.442 45.0525 111.926 44.9337 112.441C44.8148 112.955 44.8038 113.489 44.9012 114.008Z" fill="#AEAEB2"/>
<path d="M61.0997 108.707C60.8831 108.601 60.6588 108.511 60.4287 108.439C59.9053 108.049 59.2476 107.096 59.2074 104.708C59.1982 103.772 59.2565 102.837 59.3819 101.909L52.7185 100.876C52.7185 100.876 55.1141 105.265 53.3291 108.633C52.6581 108.935 52.2555 109.371 52.4031 109.895C53.0741 112.223 60.1737 114.847 60.1737 114.847C60.1737 114.847 65.1662 110.78 61.0997 108.707Z" fill="#C29EA0"/>
<path opacity="0.2" d="M59.3684 101.909C59.2431 102.837 59.1848 103.772 59.194 104.708C54.7182 104.842 52.7051 100.876 52.7051 100.876L59.3684 101.909Z" fill="black"/>
<path d="M63.8919 100.808C63.3302 100.806 62.7816 100.638 62.315 100.325C62.004 100.119 61.7376 99.852 61.5313 99.5408C61.325 99.2296 61.1831 98.8803 61.1139 98.5135C61.0064 97.9718 61.059 97.4105 61.2651 96.8981C61.4713 96.3857 61.8221 95.9444 62.2747 95.628C62.3302 95.5916 62.3977 95.5783 62.4628 95.5908C62.528 95.6033 62.5857 95.6408 62.6237 95.6952C62.6429 95.7219 62.6566 95.7523 62.664 95.7844C62.6713 95.8165 62.6722 95.8498 62.6666 95.8823C62.661 95.9148 62.649 95.9458 62.6312 95.9736C62.6135 96.0014 62.5904 96.0253 62.5633 96.0441C62.0895 96.3743 61.755 96.8683 61.6241 97.4308C61.4933 97.9932 61.5755 98.5842 61.8549 99.0896C62.1343 99.595 62.591 99.9789 63.1368 100.167C63.6827 100.356 64.279 100.335 64.8106 100.11C65.3422 99.884 65.7714 99.4695 66.0153 98.9461C66.2592 98.4227 66.3005 97.8275 66.1312 97.2754C65.962 96.7233 65.5942 96.2535 65.0988 95.9567C64.6035 95.6599 64.0157 95.5571 63.449 95.6683C63.4169 95.6752 63.3836 95.6756 63.3513 95.6695C63.319 95.6634 63.2882 95.6509 63.2607 95.6328C63.2332 95.6147 63.2096 95.5913 63.1913 95.564C63.1729 95.5367 63.1602 95.506 63.1538 95.4737C63.1398 95.4079 63.1524 95.3392 63.1889 95.2827C63.2253 95.2261 63.2827 95.1862 63.3484 95.1718C64.0887 95.0258 64.8567 95.18 65.4834 95.6003C66.1101 96.0206 66.5442 96.6726 66.6901 97.413C66.8361 98.1534 66.6819 98.9213 66.2616 99.548C65.8413 100.175 65.1892 100.609 64.4489 100.755C64.2652 100.789 64.0788 100.807 63.8919 100.808Z" fill="#4E0F12"/>
<g opacity="0.5">
<path d="M63.891 100.808C63.3292 100.806 62.7806 100.638 62.314 100.325C62.0031 100.119 61.7366 99.8518 61.5303 99.5407C61.324 99.2295 61.1821 98.8802 61.1129 98.5134C61.0055 97.9717 61.058 97.4104 61.2642 96.898C61.4703 96.3856 61.8211 95.9443 62.2738 95.6279C62.3292 95.5915 62.3967 95.5782 62.4618 95.5907C62.527 95.6032 62.5847 95.6407 62.6227 95.6951C62.6419 95.7218 62.6556 95.7522 62.663 95.7843C62.6704 95.8164 62.6713 95.8497 62.6656 95.8822C62.66 95.9147 62.648 95.9457 62.6302 95.9735C62.6125 96.0013 62.5894 96.0252 62.5623 96.044C62.0886 96.3742 61.754 96.8682 61.6232 97.4307C61.4923 97.9931 61.5745 98.5841 61.8539 99.0895C62.1333 99.5948 62.59 99.9788 63.1359 100.167C63.6817 100.356 64.278 100.335 64.8096 100.109C65.3412 99.8839 65.7704 99.4694 66.0143 98.946C66.2582 98.4226 66.2995 97.8273 66.1303 97.2752C65.961 96.7232 65.5932 96.2534 65.0978 95.9566C64.6025 95.6598 64.0147 95.557 63.4481 95.6682C63.4159 95.6751 63.3827 95.6755 63.3503 95.6694C63.318 95.6633 63.2872 95.6508 63.2597 95.6327C63.2323 95.6146 63.2087 95.5912 63.1903 95.5639C63.172 95.5366 63.1592 95.5059 63.1528 95.4736C63.1388 95.4078 63.1515 95.3391 63.1879 95.2825C63.2244 95.226 63.2817 95.1861 63.3474 95.1716C64.0878 95.0257 64.8558 95.1799 65.4825 95.6002C66.1092 96.0205 66.5432 96.6725 66.6892 97.4129C66.8351 98.1532 66.6809 98.9212 66.2606 99.5479C65.8403 100.175 65.1883 100.609 64.4479 100.755C64.2642 100.789 64.0778 100.807 63.891 100.808Z" fill="#E5E5EA"/>
</g>
<path d="M53.8254 83.7644C59.4151 82.5297 61.8778 85.1064 63.5554 90.7834C65.6557 97.8628 65.1927 103.325 57.8717 103.338C47.927 103.338 44.5517 85.8177 53.8254 83.7644Z" fill="#C29EA0"/>
<path d="M59.8785 91.2605C60.5077 91.9958 61.2243 92.6515 62.0124 93.2132C61.8998 93.4819 61.7146 93.714 61.4776 93.8834C61.2406 94.0529 60.9611 94.1531 60.6704 94.1727L59.8785 91.2605Z" fill="#D4827D"/>
<path d="M56.3555 91.5684C56.4696 92.0247 56.3152 92.4608 56.0066 92.5346C55.6979 92.6085 55.3691 92.2998 55.255 91.8636C55.1409 91.4274 55.2953 90.9779 55.6039 90.8973C55.9126 90.8168 56.2414 91.1121 56.3555 91.5684Z" fill="#263238"/>
<path d="M55.4833 90.9306L56.3749 90.3005C56.3749 90.3005 56.0866 91.2591 55.4833 90.9306Z" fill="#263238"/>
<path d="M62.0057 90.0787C62.1198 90.5351 61.9654 90.9645 61.6568 91.045C61.3481 91.1256 60.9857 90.8102 60.9052 90.374C60.8247 89.9378 60.9522 89.4815 61.2541 89.4077C61.5561 89.3339 61.8983 89.6224 62.0057 90.0787Z" fill="#263238"/>
<path d="M61.1338 89.4408L62.0253 88.8107C62.0253 88.8107 61.7706 89.7625 61.1338 89.4408Z" fill="#263238"/>
<path d="M55.4499 87.7304C54.9998 87.7692 54.5645 87.9102 54.1773 88.1428C53.79 88.3754 53.461 88.6934 53.2153 89.0725" stroke="#263238" stroke-width="0.72468" stroke-linecap="round" stroke-linejoin="round"/>
<path d="M59.4562 86.5963C59.8152 86.4183 60.2094 86.3229 60.61 86.3171C61.0106 86.3113 61.4074 86.3953 61.7713 86.5628" stroke="#263238" stroke-width="0.72468" stroke-linecap="round" stroke-linejoin="round"/>
<path d="M49.8062 94.5281C49.8062 94.5281 51.4033 89.3612 50.2223 85.9054C50.2223 85.9054 60.2878 78.9333 63.3208 90.0456C63.3208 90.0456 62.2002 79.8325 52.544 81.7382C42.8879 83.644 46.0484 97.6753 51.9334 100.762C51.9334 100.762 48.8265 97.7558 49.8062 94.5281Z" fill="#263238"/>
<path d="M50.9818 95.5075C50.7854 94.8726 50.3452 94.3415 49.7577 94.0308C49.1702 93.7201 48.4835 93.6551 47.8481 93.85C46.1638 94.4204 46.1236 98.1581 50.6128 98.0574C51.2637 98.044 51.4784 97.3662 50.9818 95.5075Z" fill="#C29EA0"/>
<path d="M61.683 96.3059C61.5346 96.9911 61.4382 97.6864 61.3945 98.3861H61.0254C59.3546 98.527 58.5359 98.0372 58.1333 97.4601C57.9408 97.1733 57.821 96.844 57.7843 96.5005C57.756 96.3069 57.756 96.1103 57.7843 95.9167C58.8614 96.2877 60.0057 96.4227 61.1395 96.3126C61.4616 96.3328 61.683 96.3059 61.683 96.3059Z" fill="#263238"/>
<path d="M61.1009 96.3468L61.0003 96.9575C59.4301 97.085 58.3162 96.9575 57.7726 96.5347C57.7443 96.3412 57.7443 96.1445 57.7726 95.9509C58.8413 96.3181 59.976 96.4531 61.1009 96.3468Z" fill="#E5E5EA"/>
<path d="M61.0267 98.4203C59.3559 98.5612 58.5372 98.0714 58.1346 97.4943C58.7682 97.4529 59.4042 97.5234 60.0135 97.7023C60.4185 97.8289 60.7731 98.0802 61.0267 98.4203Z" fill="#DE5753"/>
<path d="M53.8064 84.2141C53.8064 84.2141 53.5917 93.8971 47.7671 95.058C41.9425 96.2188 48.3039 82.6103 48.3039 82.6103C48.3039 82.6103 56.9602 76.9602 62.7311 80.9461C68.502 84.9321 63.3082 90.0453 63.3082 90.0453C63.3082 90.0453 62.1071 82.8519 53.8064 84.2141Z" fill="#263238"/>
<path d="M53.6037 83.5698C53.6037 83.5698 55.6772 89.6963 51.5906 92.9106" stroke="#263238" stroke-width="0.5" stroke-linecap="round" stroke-linejoin="round"/>
<path d="M49.8394 103.044C49.1828 103.041 48.5471 102.812 48.0397 102.395C47.5324 101.978 47.1844 101.399 47.0546 100.755C46.9488 100.213 47.0028 99.6516 47.2101 99.1394C47.4174 98.6271 47.769 98.1861 48.2222 97.87C48.2774 97.8409 48.3412 97.8329 48.4018 97.8477C48.4623 97.8625 48.5154 97.8989 48.5509 97.9501C48.5865 98.0014 48.602 98.0638 48.5946 98.1257C48.5872 98.1876 48.5574 98.2446 48.5108 98.286C48.0373 98.6171 47.7033 99.1119 47.5734 99.6748C47.4435 100.238 47.5268 100.829 47.8074 101.334C48.0879 101.839 48.5457 102.222 49.0923 102.409C49.6389 102.596 50.2354 102.574 50.7667 102.347C51.2979 102.12 51.7261 101.704 51.9685 101.18C52.2109 100.655 52.2503 100.06 52.0791 99.5078C51.9078 98.9561 51.5381 98.4873 51.0414 98.1923C50.5448 97.8972 49.9563 97.7967 49.3898 97.9103C49.3553 97.9218 49.3188 97.9257 49.2826 97.9219C49.2464 97.9181 49.2115 97.9066 49.1801 97.8882C49.1487 97.8698 49.1217 97.8449 49.1007 97.8151C49.0798 97.7854 49.0655 97.7515 49.0587 97.7157C49.0519 97.68 49.0529 97.6432 49.0615 97.6079C49.0701 97.5726 49.0862 97.5395 49.1087 97.5109C49.1312 97.4823 49.1595 97.4588 49.1918 97.442C49.2241 97.4253 49.2596 97.4156 49.2959 97.4137C49.6697 97.3211 50.0584 97.3054 50.4385 97.3675C50.8185 97.4296 51.182 97.5682 51.507 97.7749C51.8319 97.9816 52.1114 98.2522 52.3287 98.5701C52.546 98.8881 52.6965 99.2468 52.7711 99.6246C52.8456 100.002 52.8427 100.391 52.7625 100.768C52.6823 101.145 52.5265 101.501 52.3044 101.816C52.0824 102.13 51.7988 102.397 51.4708 102.599C51.1429 102.8 50.7773 102.934 50.3964 102.99C50.2131 103.027 50.0264 103.045 49.8394 103.044Z" fill="#4E0F12"/>
<g opacity="0.5">
<path d="M49.8394 103.044C49.1827 103.041 48.547 102.812 48.0397 102.395C47.5323 101.979 47.1844 101.399 47.0546 100.756C46.9487 100.213 47.0027 99.6519 47.21 99.1396C47.4173 98.6274 47.7689 98.1864 48.2222 97.8703C48.2773 97.8411 48.3412 97.8332 48.4017 97.848C48.4623 97.8627 48.5153 97.8992 48.5509 97.9504C48.5864 98.0016 48.6019 98.0641 48.5945 98.1259C48.5871 98.1878 48.5573 98.2449 48.5107 98.2863C48.0372 98.6173 47.7032 99.1121 47.5733 99.675C47.4434 100.238 47.5268 100.829 47.8073 101.334C48.0879 101.839 48.5457 102.222 49.0923 102.409C49.6388 102.597 50.2354 102.574 50.7666 102.347C51.2978 102.12 51.726 101.704 51.9684 101.18C52.2108 100.656 52.2502 100.06 52.079 99.5081C51.9078 98.9563 51.5381 98.4876 51.0414 98.1925C50.5447 97.8974 49.9562 97.797 49.3898 97.9105C49.3553 97.922 49.3187 97.926 49.2825 97.9222C49.2463 97.9184 49.2114 97.9069 49.18 97.8885C49.1487 97.87 49.1216 97.8451 49.1007 97.8154C49.0797 97.7856 49.0654 97.7517 49.0586 97.716C49.0519 97.6803 49.0528 97.6435 49.0615 97.6081C49.0701 97.5728 49.0862 97.5397 49.1086 97.5111C49.1311 97.4825 49.1594 97.459 49.1917 97.4423C49.224 97.4255 49.2595 97.4159 49.2958 97.4139C49.6696 97.3214 50.0584 97.3057 50.4384 97.3678C50.8185 97.4299 51.182 97.5685 51.5069 97.7752C51.8318 97.9819 52.1114 98.2524 52.3287 98.5704C52.546 98.8883 52.6964 99.247 52.771 99.6248C52.8456 100.003 52.8427 100.392 52.7624 100.768C52.6822 101.145 52.5264 101.501 52.3044 101.816C52.0824 102.131 51.7988 102.397 51.4708 102.599C51.1428 102.801 50.7773 102.934 50.3963 102.99C50.2131 103.027 50.0264 103.045 49.8394 103.044Z" fill="#E5E5EA"/>
</g>
<path d="M58.1683 107.694C60.1143 107.365 64.107 106.278 66.053 107.694C67.999 109.11 66.1268 114.156 59.3426 115.659C52.5585 117.162 41.8421 112.914 41.8421 112.914C42.9301 111.341 44.5238 110.188 46.3582 109.647C49.3308 108.848 54.84 108.271 58.1683 107.694Z" fill="#C29EA0"/>
<path d="M62.0465 122.866C62.0042 122.864 61.964 122.847 61.9324 122.819C61.5029 122.437 51.3703 113.425 51.377 109.593C51.3672 109.372 51.4066 109.151 51.4925 108.947C51.5784 108.742 51.7086 108.56 51.8736 108.412C51.8887 108.396 51.9068 108.383 51.927 108.374C51.9472 108.366 51.969 108.361 51.991 108.361C52.013 108.361 52.0348 108.366 52.055 108.374C52.0752 108.383 52.0934 108.396 52.1085 108.412C52.1392 108.443 52.1564 108.486 52.1564 108.529C52.1564 108.573 52.1392 108.616 52.1085 108.647C51.9796 108.763 51.8784 108.906 51.8122 109.067C51.746 109.227 51.7165 109.4 51.726 109.573C51.726 112.982 60.6641 121.188 61.9995 122.403C62.6101 121.095 65.8378 113.78 64.1468 109.721C63.918 109.152 63.5657 108.642 63.1154 108.226C62.6651 107.811 62.1281 107.501 61.5432 107.318C61.5012 107.303 61.4667 107.272 61.4467 107.232C61.4267 107.192 61.4228 107.146 61.4358 107.104C61.4426 107.082 61.4536 107.062 61.4682 107.045C61.4827 107.029 61.5006 107.015 61.5206 107.005C61.5406 106.995 61.5624 106.989 61.5847 106.987C61.607 106.986 61.6294 106.989 61.6505 106.996C62.2815 107.194 62.8605 107.529 63.3456 107.979C63.8308 108.428 64.2099 108.979 64.4555 109.593C66.3679 114.176 62.382 122.403 62.2075 122.752C62.197 122.775 62.1811 122.794 62.1612 122.81C62.1413 122.825 62.1181 122.835 62.0934 122.839L62.0465 122.866Z" fill="#4E0F12"/>
<g opacity="0.5">
<path d="M62.0471 122.866C62.0048 122.863 61.9646 122.847 61.933 122.819C61.5035 122.436 51.3709 113.424 51.3776 109.593C51.3678 109.371 51.4073 109.151 51.4931 108.946C51.579 108.742 51.7092 108.559 51.8742 108.412C51.8893 108.396 51.9075 108.383 51.9276 108.374C51.9478 108.365 51.9696 108.361 51.9916 108.361C52.0136 108.361 52.0354 108.365 52.0556 108.374C52.0758 108.383 52.094 108.396 52.1091 108.412C52.1398 108.443 52.157 108.485 52.157 108.529C52.157 108.573 52.1398 108.615 52.1091 108.646C51.9802 108.762 51.879 108.906 51.8128 109.066C51.7466 109.226 51.7171 109.399 51.7266 109.573C51.7266 112.981 60.6647 121.188 62.0001 122.403C62.6107 121.094 65.8384 113.78 64.1474 109.72C63.9186 109.152 63.5663 108.641 63.116 108.226C62.6657 107.81 62.1287 107.5 61.5438 107.318C61.5018 107.303 61.4673 107.272 61.4473 107.232C61.4273 107.192 61.4234 107.146 61.4364 107.103C61.4432 107.082 61.4543 107.062 61.4688 107.045C61.4834 107.028 61.5012 107.014 61.5212 107.004C61.5412 106.994 61.563 106.988 61.5853 106.987C61.6076 106.985 61.63 106.988 61.6512 106.996C62.2821 107.193 62.8611 107.529 63.3462 107.978C63.8314 108.427 64.2105 108.979 64.4561 109.593C66.3685 114.176 62.3826 122.403 62.2081 122.752C62.1976 122.774 62.1817 122.794 62.1618 122.809C62.142 122.824 62.1187 122.835 62.094 122.839L62.0471 122.866Z" fill="#E5E5EA"/>
</g>
<path d="M61.3273 122.329L62.5419 122.201L63.0854 125.583L62.5419 126.865L61.5958 126.147L61.3273 122.329Z" fill="#4E0F12"/>
<path d="M27.8841 119.215C27.8841 119.215 25.871 120.879 24.1665 120.034C22.4621 119.188 19.9122 115.961 20.1404 115.095C20.3685 114.23 22.4621 111.519 22.9251 111.74C23.3882 111.961 27.0251 116.229 27.8774 116.92C28.7296 117.612 27.8841 119.215 27.8841 119.215Z" fill="#C29EA0"/>
<path d="M28.3937 117.987H28.3065L24.3474 116.974C24.1634 116.924 23.9933 116.833 23.8502 116.707C23.707 116.582 23.5948 116.425 23.522 116.249L19.7172 107.485V107.432C19.706 107.381 19.7072 107.329 19.7205 107.279C19.7339 107.229 19.759 107.183 19.7939 107.144C19.8288 107.106 19.8724 107.077 19.9209 107.059C19.9695 107.042 20.0216 107.036 20.0729 107.042L23.7569 107.532C23.9722 107.559 24.1768 107.642 24.35 107.772C24.5232 107.903 24.6588 108.077 24.7433 108.277L28.7158 117.537C28.738 117.588 28.7467 117.644 28.7408 117.7C28.7349 117.755 28.7148 117.808 28.6823 117.853C28.6499 117.899 28.6062 117.935 28.5556 117.958C28.505 117.982 28.4492 117.991 28.3937 117.987Z" fill="#263238"/>
<path opacity="0.2" d="M28.3939 117.987H28.3066L24.3475 116.974C24.1636 116.924 23.9935 116.833 23.8503 116.708C23.7072 116.582 23.5949 116.425 23.5222 116.249L19.7174 107.485V107.432H19.7644L23.4483 107.915C23.6638 107.944 23.868 108.028 24.0409 108.16C24.2138 108.292 24.3495 108.466 24.4348 108.666L28.4073 117.927C28.4057 117.947 28.4012 117.968 28.3939 117.987Z" fill="#E5E5EA"/>
</svg>
