<svg width="24" height="24" viewBox="0 0 24 24" fill="none" xmlns="http://www.w3.org/2000/svg">
<path d="M14.52 21.1274C14.1429 21.1274 13.7486 21.0159 13.3457 20.8017L9.97714 18.9245C9.81429 18.8388 9.46286 18.8388 9.3 18.9245L5.94 20.8017C5.21143 21.2045 4.46571 21.2388 3.9 20.9045C3.32571 20.5702 3 19.9017 3 19.0788V9.34165C3 7.51594 4.48286 6.03308 6.30857 6.03308H12.9771C14.8029 6.03308 16.2857 7.51594 16.2857 9.34165V19.0788C16.2857 19.9017 15.96 20.5702 15.3857 20.9045C15.1286 21.0502 14.8371 21.1274 14.52 21.1274ZM9.64286 17.5702C9.98571 17.5702 10.32 17.6474 10.6029 17.8017L13.9714 19.6788C14.28 19.8502 14.5629 19.8931 14.7343 19.7902C14.8971 19.6959 15 19.4217 15 19.0702V9.33308C15 8.2188 14.0914 7.31022 12.9771 7.31022H6.30857C5.19429 7.31022 4.28571 8.2188 4.28571 9.33308V19.0702C4.28571 19.4217 4.38857 19.6959 4.55143 19.7902C4.71429 19.8845 5.00571 19.8417 5.31429 19.6702L8.68286 17.7931C8.95714 17.6474 9.3 17.5702 9.64286 17.5702Z" fill="#AEAEB2" stroke="#AEAEB2" stroke-width="0.25"/>
<path d="M19.4052 17.4396C19.0645 17.4396 18.7084 17.332 18.3445 17.1252L15.4877 15.4206C15.3977 15.3678 15.3228 15.2899 15.271 15.1952C15.2192 15.1005 15.1924 14.9925 15.1935 14.8828L15.5 9C15.5 7.92431 14.3729 7.31986 13.3665 7.31986H9.58065C9.26323 7.31986 9 7.03852 9 6.69927V6.06213C9 4.29966 10.3394 2.86816 11.9884 2.86816H18.0116C19.6606 2.86816 21 4.29966 21 6.06213V15.462C21 16.2563 20.7058 16.9017 20.1871 17.2245C19.9548 17.3651 19.6916 17.4396 19.4052 17.4396ZM16.3548 14.5104L18.9097 16.0412C19.1884 16.2067 19.4439 16.2481 19.5987 16.1488C19.7458 16.0577 19.8387 15.793 19.8387 15.4537V6.05385C19.8387 4.97817 19.0181 4.10107 18.0116 4.10107H11.9884C10.9819 4.10107 10.1613 4.97817 10.1613 6.05385V6.0704H13.3665C15.0155 6.0704 16.3548 7.50189 16.3548 9.26437V14.5104Z" fill="#AEAEB2" stroke="#AEAEB2" stroke-width="0.25"/>
</svg>
