<svg width="247" height="250" viewBox="0 0 247 250" fill="none" xmlns="http://www.w3.org/2000/svg">
<path d="M163.442 23.9354V66.8933H169.473V77.3178L179.892 66.8933H237.078V23.9354H163.442Z" fill="white"/>
<path d="M163.441 23.935L163.628 45.519C163.701 52.6825 163.756 59.8169 163.791 66.9221L163.441 66.5779L169.473 66.5429H169.846V66.9221L169.899 77.3465L169.158 77.0374L179.535 66.5721L179.675 66.4262H179.885L208.47 66.3796C218.002 66.3796 227.533 66.3212 237.054 66.3796L236.47 66.9629L236.54 24.005L237.042 24.5009L200.344 24.2967L163.441 23.935ZM163.441 23.935L200.139 23.6375L237.083 23.4333H237.579V23.935L237.649 66.8929V67.4763H237.065C227.533 67.5113 218.002 67.4763 208.481 67.4763L179.897 67.4296L180.247 67.2838L169.782 77.6557L169.029 78.3382V77.294L169.088 66.8696L169.467 67.2488L163.441 67.2546H163.091V66.9046C163.12 59.706 163.178 52.5075 163.254 45.3498L163.441 23.935Z" fill="#EBEBEB"/>
<path d="M214.18 45.4138C214.18 46.106 214.386 46.7827 214.77 47.3583C215.155 47.9339 215.702 48.3825 216.341 48.6474C216.981 48.9124 217.684 48.9817 218.363 48.8466C219.042 48.7116 219.666 48.3782 220.155 47.8887C220.645 47.3992 220.978 46.7756 221.113 46.0966C221.248 45.4177 221.179 44.7139 220.914 44.0743C220.649 43.4348 220.201 42.8881 219.625 42.5035C219.049 42.1189 218.373 41.9137 217.681 41.9137C216.752 41.9137 215.862 42.2824 215.206 42.9388C214.549 43.5952 214.18 44.4855 214.18 45.4138Z" fill="#EBEBEB"/>
<path d="M196.768 45.4138C196.768 46.106 196.974 46.7827 197.358 47.3583C197.743 47.9339 198.289 48.3825 198.929 48.6474C199.569 48.9124 200.272 48.9817 200.951 48.8466C201.63 48.7116 202.254 48.3782 202.743 47.8887C203.233 47.3992 203.566 46.7756 203.701 46.0966C203.836 45.4177 203.767 44.7139 203.502 44.0743C203.237 43.4348 202.789 42.8881 202.213 42.5035C201.637 42.1189 200.961 41.9137 200.268 41.9137C199.34 41.9137 198.45 42.2824 197.793 42.9388C197.137 43.5952 196.768 44.4855 196.768 45.4138Z" fill="#EBEBEB"/>
<path d="M179.361 45.4138C179.361 46.106 179.566 46.7827 179.951 47.3583C180.335 47.9339 180.882 48.3825 181.522 48.6474C182.161 48.9124 182.865 48.9817 183.544 48.8466C184.223 48.7116 184.847 48.3782 185.336 47.8887C185.826 47.3992 186.159 46.7756 186.294 46.0966C186.429 45.4177 186.36 44.7139 186.095 44.0743C185.83 43.4348 185.381 42.8881 184.806 42.5035C184.23 42.1189 183.553 41.9137 182.861 41.9137C181.933 41.9137 181.043 42.2824 180.386 42.9388C179.73 43.5952 179.361 44.4855 179.361 45.4138Z" fill="#EBEBEB"/>
<path d="M67.6322 71.5424V105.208H62.9071V113.374L54.7402 105.208H9.92139V71.5424H67.6322Z" fill="white"/>
<path d="M13.0759 118.176L13.0541 119.342L100.804 120.981L100.826 119.815L13.0759 118.176Z" fill="#EBEBEB"/>
<path d="M131.612 120.52L130.608 121.115L184.237 211.548L185.24 210.953L131.612 120.52Z" fill="#EBEBEB"/>
<path d="M60.4929 30.4914L59.5183 31.1328L106.032 101.809L107.007 101.168L60.4929 30.4914Z" fill="#EBEBEB"/>
<path d="M102.287 134.167L65.2551 166.93L66.0282 167.804L103.06 135.041L102.287 134.167Z" fill="#EBEBEB"/>
<path d="M237.491 118.169H150.841V119.336H237.491V118.169Z" fill="#EBEBEB"/>
<path d="M71.1407 30.254C73.066 22.1911 68.0905 14.0941 60.0276 12.1687C51.9647 10.2434 43.8677 15.2189 41.9424 23.2818C40.0171 31.3447 44.9926 39.4417 53.0554 41.367C61.1183 43.2924 69.2154 38.3169 71.1407 30.254Z" fill="#EBEBEB"/>
<path d="M52.015 24.6004C52.0139 25.5352 52.29 26.4493 52.8085 27.2271C53.327 28.0049 54.0646 28.6115 54.9279 28.97C55.7912 29.3285 56.7414 29.4229 57.6584 29.2413C58.5754 29.0596 59.4179 28.6101 60.0793 27.9495C60.7407 27.2889 61.1913 26.447 61.3741 25.5302C61.5569 24.6135 61.4636 23.6631 61.1062 22.7994C60.7487 21.9356 60.1431 21.1973 59.3659 20.6778C58.5887 20.1584 57.6749 19.8811 56.7402 19.8811C55.488 19.8811 54.287 20.3781 53.401 21.263C52.5151 22.1479 52.0166 23.3482 52.015 24.6004Z" fill="white"/>
<path d="M48.5796 37.6261V39.5745C49.9604 40.4356 51.4714 41.068 53.0539 41.447C55.0532 41.941 57.1311 42.0292 59.1651 41.7066C61.199 41.384 63.1477 40.657 64.8959 39.5686V37.6261C64.8959 35.4601 64.0355 33.3828 62.5039 31.8512C60.9723 30.3196 58.895 29.4592 56.729 29.4592C54.563 29.4592 52.4858 30.3196 50.9542 31.8512C49.4226 33.3828 48.5621 35.4601 48.5621 37.6261H48.5796Z" fill="white"/>
<path d="M188.636 235.761C199.371 235.761 208.074 227.059 208.074 216.324C208.074 205.589 199.371 196.886 188.636 196.886C177.901 196.886 169.199 205.589 169.199 216.324C169.199 227.059 177.901 235.761 188.636 235.761Z" fill="#EBEBEB"/>
<path d="M182.767 213.512C182.767 214.722 183.126 215.905 183.799 216.912C184.471 217.918 185.427 218.702 186.545 219.165C187.663 219.629 188.894 219.75 190.081 219.514C191.268 219.278 192.358 218.695 193.214 217.839C194.07 216.983 194.652 215.893 194.889 214.706C195.125 213.519 195.003 212.288 194.54 211.17C194.077 210.052 193.293 209.096 192.287 208.424C191.28 207.752 190.097 207.393 188.887 207.393C188.083 207.393 187.287 207.551 186.545 207.858C185.803 208.166 185.128 208.617 184.56 209.185C183.992 209.753 183.541 210.428 183.233 211.17C182.926 211.913 182.767 212.708 182.767 213.512Z" fill="white"/>
<path d="M178.334 230.383V232.926C181.51 234.891 185.17 235.932 188.905 235.932C192.639 235.932 196.299 234.891 199.475 232.926V230.412C199.475 227.608 198.361 224.92 196.379 222.937C194.397 220.955 191.708 219.841 188.905 219.841C186.101 219.841 183.413 220.955 181.43 222.937C179.448 224.92 178.334 227.608 178.334 230.412V230.383Z" fill="white"/>
<path d="M70.1257 173.855C70.785 167.167 65.8976 161.211 59.2095 160.551C52.5213 159.892 46.565 164.779 45.9057 171.468C45.2464 178.156 50.1337 184.112 56.8219 184.771C63.51 185.431 69.4664 180.543 70.1257 173.855Z" fill="#EBEBEB"/>
<path d="M53.6775 168.95C53.6763 169.809 53.9299 170.649 54.4061 171.363C54.8823 172.078 55.5597 172.635 56.3527 172.964C57.1456 173.293 58.0185 173.38 58.8608 173.213C59.703 173.047 60.4769 172.634 61.0845 172.027C61.692 171.42 62.106 170.647 62.2739 169.805C62.4418 168.963 62.3562 168.09 62.0279 167.296C61.6996 166.503 61.1433 165.825 60.4295 165.348C59.7156 164.871 58.8763 164.616 58.0176 164.616C56.8676 164.616 55.7645 165.072 54.9508 165.885C54.137 166.698 53.679 167.8 53.6775 168.95Z" fill="white"/>
<path d="M50.5217 180.92V182.705C51.7829 183.492 53.1613 184.073 54.6052 184.426C56.4445 184.876 58.3554 184.953 60.225 184.653C62.0946 184.352 63.885 183.68 65.4905 182.676V180.926C65.4905 178.938 64.7007 177.031 63.295 175.626C61.8892 174.22 59.9825 173.43 57.9945 173.43C56.0064 173.43 54.0997 174.22 52.694 175.626C51.2882 177.031 50.4984 178.938 50.4984 180.926L50.5217 180.92Z" fill="white"/>
<path d="M150.013 125.453C153.704 110.814 144.828 95.9551 130.189 92.2644C115.55 88.5738 100.691 97.4492 97.0004 112.088C93.3097 126.727 102.185 141.587 116.824 145.277C131.463 148.968 146.323 140.092 150.013 125.453Z" fill="#EBEBEB"/>
<path d="M36.0908 200.836H17.1844V207.364H36.0908V200.836Z" fill="#EBEBEB"/>
<path d="M25.5434 215.595L16.1631 215.764C13.0072 215.817 9.82797 215.852 6.64288 215.857H6.38037V215.595V209.067V208.776H6.67205L16.1223 208.811C19.2782 208.811 22.4283 208.886 25.5784 208.921H25.7301V209.067L25.5434 215.595ZM25.5434 215.595L25.3976 209.067L25.5434 209.213C22.3933 209.248 19.2432 209.306 16.0873 209.318L6.63704 209.359L6.92872 209.067L6.89955 215.595L6.63704 215.327C9.75797 215.327 12.8731 215.373 16.0173 215.426L25.5434 215.595Z" fill="#EBEBEB"/>
<path d="M194.031 143.47L184.651 143.639C181.489 143.691 178.31 143.732 175.125 143.738H174.863V143.47L174.833 136.942V136.674H175.125L184.581 136.714C187.731 136.714 190.881 136.784 194.031 136.819H194.183V136.965L194.031 143.47ZM194.031 143.47L193.886 136.942L194.031 137.088C190.881 137.123 187.731 137.181 184.581 137.199L175.125 137.257L175.417 136.965V143.47L175.154 143.207C178.275 143.207 181.39 143.248 184.54 143.3L194.031 143.47Z" fill="#EBEBEB"/>
<path d="M183.485 145.172H164.579V151.7H183.485V145.172Z" fill="#EBEBEB"/>
<path d="M172.978 143.47L163.598 143.639C160.442 143.691 157.257 143.732 154.071 143.738H153.832V143.47V136.942V136.674H154.124L163.58 136.714C166.73 136.714 169.88 136.784 173.03 136.819H173.182V136.965L172.978 143.47ZM172.978 143.47L172.832 136.942L172.978 137.088C169.828 137.123 166.678 137.181 163.528 137.199L154.071 137.234L154.363 136.942V143.47L154.095 143.207C157.216 143.207 160.337 143.248 163.481 143.3L172.978 143.47Z" fill="#EBEBEB"/>
<path d="M240.361 215.595L230.981 215.764C227.819 215.819 224.644 215.85 221.455 215.857H221.192V215.595L221.163 209.067V208.776H221.455L230.911 208.811C234.061 208.811 237.211 208.886 240.361 208.921H240.513V209.067L240.361 215.595ZM240.361 215.595L240.215 209.067L240.361 209.213C237.211 209.248 234.061 209.306 230.911 209.318L221.455 209.359L221.746 209.067L221.717 215.595L221.455 215.327C224.576 215.327 227.691 215.373 230.841 215.426L240.361 215.595Z" fill="#EBEBEB"/>
<path d="M0.50061 249.381L31.249 249.235L62.0032 249.183L123.5 249.09L184.997 249.183L215.751 249.235L246.499 249.381L215.751 249.521L184.997 249.574L123.5 249.667L62.0032 249.574L31.249 249.521L0.50061 249.381Z" fill="#263238"/>
<path d="M151.822 88.8035C151.822 88.8035 138.084 157.674 137.145 162.761C136.923 163.927 137.728 225.564 137.728 225.564H112.23C112.23 225.564 109.774 171.715 111.005 161.559C112.236 151.403 127.764 88.8035 127.764 88.8035H151.822Z" fill="#37474F"/>
<path d="M151.828 88.8035C151.828 88.8035 145.155 122.323 140.785 144.321L127.759 88.8035H151.828Z" fill="#263238"/>
<path d="M119.119 123.239L146.215 126.5L151.821 88.8035H127.764L119.119 123.239Z" fill="#37474F"/>
<path d="M145.202 121.296C142.286 120.713 139.369 120.357 136.452 120.024C133.535 119.692 130.619 119.383 127.737 119.085C126.074 118.916 124.406 118.747 122.737 118.659C122.725 118.656 122.713 118.656 122.7 118.658C122.688 118.66 122.676 118.666 122.666 118.673C122.656 118.681 122.648 118.691 122.643 118.702C122.637 118.713 122.634 118.726 122.634 118.738C122.634 118.751 122.637 118.763 122.643 118.774C122.648 118.786 122.656 118.796 122.666 118.803C122.676 118.811 122.688 118.816 122.7 118.818C122.713 118.821 122.725 118.82 122.737 118.817C125.654 119.354 128.571 119.698 131.488 120.083C134.404 120.468 137.286 120.824 140.191 121.133C141.86 121.314 143.522 121.454 145.196 121.524C145.213 121.528 145.231 121.528 145.248 121.525C145.265 121.521 145.282 121.514 145.296 121.504C145.31 121.493 145.321 121.479 145.329 121.464C145.337 121.448 145.341 121.431 145.342 121.414C145.342 121.396 145.339 121.379 145.331 121.363C145.324 121.347 145.314 121.333 145.3 121.321C145.287 121.31 145.271 121.302 145.254 121.298C145.237 121.293 145.219 121.293 145.202 121.296Z" fill="#263238"/>
<path d="M148.077 91.0028C146.058 98.2207 144.137 105.462 142.313 112.727C142.056 113.748 141.811 114.768 141.561 115.789C141.28 116.833 141.054 117.89 140.884 118.957C140.884 118.969 140.889 118.981 140.898 118.99C140.906 118.999 140.918 119.004 140.931 119.004C140.943 119.004 140.955 118.999 140.964 118.99C140.972 118.981 140.977 118.969 140.977 118.957C141.605 117.167 142.135 115.344 142.564 113.497C143.048 111.694 143.515 109.886 143.981 108.083C144.909 104.466 145.842 100.85 146.717 97.2213C147.219 95.1562 147.717 93.0873 148.211 91.0144C148.208 90.9995 148.2 90.9859 148.189 90.9757C148.178 90.9655 148.163 90.9592 148.148 90.9579C148.133 90.9566 148.118 90.9603 148.105 90.9683C148.092 90.9764 148.082 90.9885 148.077 91.0028Z" fill="#263238"/>
<path d="M93.3766 248.922C94.7825 249.388 134.969 249.272 136.504 248.303C137.087 247.942 137.408 242.079 137.595 234.997C137.641 233.463 137.67 231.894 137.694 230.278C137.729 228.382 137.752 226.457 137.764 224.584C137.81 216.196 137.507 208.805 137.507 208.805H111.53V224.584V230.278L111.67 234.997C111.67 234.997 96.305 241.927 94.7533 243.164C93.2016 244.401 91.9999 248.461 93.3766 248.922Z" fill="#37474F"/>
<path d="M93.3773 248.921C94.7831 249.388 134.97 249.271 136.504 248.303C137.088 247.941 137.409 242.079 137.595 234.997C137.642 233.463 137.671 231.893 137.694 230.278C137.729 228.382 137.753 226.457 137.764 224.584H111.543V230.278L111.683 234.997C111.683 234.997 96.3173 241.927 94.7656 243.164C93.2139 244.4 92.0005 248.461 93.3773 248.921Z" fill="#DBDBDB"/>
<path d="M93.2538 248.986C94.1696 249.284 111.285 249.348 123.751 249.091C126.633 249.027 129.27 248.946 131.399 248.852C134.316 248.718 136.299 248.561 136.62 248.356C137.326 247.901 137.664 239.309 137.828 230.238H111.536L111.67 234.974C111.67 234.974 96.2172 241.945 94.6421 243.2C93.0671 244.454 91.8479 248.508 93.2538 248.986Z" fill="#9B1E25"/>
<path opacity="0.3" d="M93.2538 248.986C94.1696 249.284 111.285 249.348 123.751 249.091C126.633 249.027 129.27 248.946 131.399 248.852C134.316 248.718 136.299 248.561 136.62 248.356C137.326 247.901 137.664 239.309 137.828 230.238H111.536L111.67 234.974C111.67 234.974 96.2172 241.945 94.6421 243.2C93.0671 244.454 91.8479 248.508 93.2538 248.986Z" fill="black"/>
<path d="M93.8307 247.363C100.603 247.177 127.939 247.066 134.665 247.398C134.718 247.398 134.718 247.439 134.665 247.439C127.951 247.772 100.615 247.661 93.8307 247.474C93.6849 247.474 93.6849 247.369 93.8307 247.363Z" fill="#263238"/>
<path d="M110.708 233.474C113.373 232.973 116.634 233.369 118.676 235.265C118.758 235.335 118.676 235.446 118.565 235.423C116.015 234.607 113.385 234.068 110.719 233.813C110.697 233.813 110.675 233.81 110.654 233.802C110.633 233.794 110.614 233.782 110.598 233.767C110.582 233.752 110.568 233.734 110.559 233.714C110.55 233.693 110.545 233.671 110.544 233.649C110.543 233.627 110.547 233.605 110.555 233.584C110.563 233.563 110.574 233.544 110.59 233.528C110.605 233.512 110.623 233.499 110.643 233.489C110.663 233.48 110.685 233.475 110.708 233.474Z" fill="#263238"/>
<path d="M108.789 234.641C111.449 234.134 114.716 234.536 116.757 236.426C116.833 236.502 116.728 236.613 116.641 236.584C114.092 235.773 111.463 235.235 108.8 234.98C108.778 234.98 108.756 234.977 108.735 234.969C108.714 234.961 108.695 234.949 108.679 234.934C108.663 234.919 108.65 234.901 108.641 234.881C108.631 234.86 108.626 234.838 108.625 234.816C108.625 234.794 108.628 234.772 108.636 234.751C108.644 234.73 108.656 234.711 108.671 234.695C108.686 234.679 108.704 234.666 108.725 234.656C108.745 234.647 108.767 234.642 108.789 234.641Z" fill="#263238"/>
<path d="M106.863 235.809C109.529 235.301 112.79 235.704 114.832 237.594C114.914 237.67 114.832 237.78 114.721 237.751C112.171 236.935 109.54 236.396 106.875 236.141C106.836 236.135 106.8 236.116 106.774 236.087C106.747 236.057 106.732 236.019 106.731 235.98C106.729 235.94 106.742 235.902 106.766 235.87C106.79 235.839 106.825 235.817 106.863 235.809Z" fill="#263238"/>
<path d="M104.943 236.969C107.609 236.467 110.87 236.864 112.912 238.76C112.994 238.83 112.912 238.941 112.801 238.917C110.251 238.102 107.62 237.562 104.955 237.307C104.91 237.309 104.867 237.292 104.834 237.262C104.801 237.231 104.782 237.189 104.78 237.144C104.779 237.099 104.795 237.055 104.826 237.023C104.856 236.99 104.899 236.97 104.943 236.969Z" fill="#263238"/>
<path d="M106.974 231.118C108.858 232.577 111.32 233.172 113.519 233.977C113.569 233.99 113.622 233.992 113.673 233.982C113.724 233.971 113.772 233.949 113.813 233.917C113.854 233.884 113.887 233.843 113.909 233.795C113.931 233.748 113.941 233.696 113.939 233.644C113.95 233.644 113.961 233.642 113.971 233.636C113.981 233.631 113.989 233.623 113.995 233.614C114.001 233.604 114.004 233.594 114.004 233.583C114.005 233.572 114.003 233.561 113.997 233.551C113.183 231.193 111.763 229.09 109.879 227.455C108.759 226.521 106.811 225.88 105.766 227.326C104.722 228.773 105.866 230.266 106.974 231.118ZM106.286 228.977C105.807 226.061 108.951 227.577 109.745 228.301C110.253 228.772 110.727 229.278 111.162 229.817C112.09 230.926 112.842 232.151 113.653 233.317C112.592 232.851 111.507 232.483 110.433 232.057C109.15 231.561 106.548 230.593 106.286 228.977Z" fill="#263238"/>
<path d="M122.918 229.461C122.27 227.798 120.217 227.938 118.904 228.556C116.673 229.673 114.772 231.354 113.392 233.433C113.357 233.48 113.392 233.521 113.427 233.538C113.386 233.737 113.503 233.993 113.748 233.97C116.081 233.737 118.607 233.777 120.806 232.803C122.054 232.284 123.501 231.03 122.918 229.461ZM117.218 232.891C116.052 233.031 114.926 233.118 113.783 233.305C114.83 232.325 115.926 231.398 117.067 230.528C117.626 230.118 118.21 229.744 118.817 229.408C119.768 228.912 123.198 228.241 122.002 230.931C121.314 232.424 118.554 232.721 117.189 232.891H117.218Z" fill="#263238"/>
<path opacity="0.1" d="M121.412 249.137L123.746 249.09C126.633 249.026 129.27 248.95 131.393 248.851C134.31 248.723 136.293 248.559 136.614 248.361C137.157 248.011 137.478 242.983 137.67 236.618L121.412 249.137Z" fill="black"/>
<path d="M144.542 222.391L170.74 222.058C170.74 222.058 165.595 132.672 163.349 114.069C163.349 114.069 167.602 103.994 159.645 88.7803H127.742C127.742 88.7803 129.877 103.259 133.54 112.441C133.54 112.441 135.908 113.077 140.214 115.451L144.542 222.391Z" fill="#37474F"/>
<path d="M140.686 126.698H165.77L163.868 114.069C163.868 114.069 167.678 101.235 160.234 88.7803H127.742C127.742 88.7803 129.083 102.361 133.068 112.575L137.151 114.384L140.686 126.698Z" fill="#37474F"/>
<path d="M137.144 114.383C137.115 114.226 136.789 114.226 136.818 114.383C138.136 121.827 140.219 125.432 140.37 125.77C140.37 125.783 140.375 125.794 140.384 125.803C140.393 125.812 140.405 125.817 140.417 125.817C140.429 125.817 140.441 125.812 140.45 125.803C140.459 125.794 140.464 125.783 140.464 125.77C140.58 125.432 137.739 117.481 137.144 114.383Z" fill="#263238"/>
<path d="M132.326 112.074C135.203 113.117 137.983 114.411 140.633 115.941C140.652 115.953 140.667 115.972 140.674 115.993C140.681 116.015 140.679 116.039 140.67 116.06C140.661 116.081 140.644 116.097 140.623 116.107C140.602 116.116 140.579 116.117 140.557 116.111C137.757 114.909 134.904 113.777 132.174 112.406C132.152 112.396 132.133 112.382 132.116 112.365C132.1 112.347 132.087 112.326 132.079 112.304C132.071 112.282 132.067 112.258 132.067 112.234C132.068 112.21 132.074 112.186 132.084 112.164C132.094 112.142 132.108 112.123 132.126 112.106C132.143 112.09 132.164 112.077 132.186 112.069C132.209 112.06 132.233 112.057 132.257 112.057C132.281 112.058 132.304 112.064 132.326 112.074Z" fill="#263238"/>
<path d="M131.44 92.8757C131.44 92.7765 131.615 92.759 131.615 92.8757C131.614 95.9927 131.77 99.1079 132.082 102.209C132.216 103.65 133.371 111.613 135.874 111.035C136.294 110.936 136.504 110.528 136.568 109.869C136.561 109.045 136.449 108.226 136.235 107.43C135.961 105.762 135.739 104.088 135.594 102.402C135.302 99.2663 135.337 96.1089 135.699 92.9807C135.703 92.9634 135.714 92.9482 135.728 92.9374C135.742 92.9265 135.759 92.9207 135.777 92.9207C135.795 92.9207 135.813 92.9265 135.827 92.9374C135.841 92.9482 135.851 92.9634 135.856 92.9807C135.784 97.328 136.039 101.675 136.62 105.984C136.929 108.06 137.974 111.175 135.809 111.496C133.645 111.817 132.175 106.596 131.907 105.167C131.221 101.107 131.064 96.9757 131.44 92.8757Z" fill="#263238"/>
<path d="M135.803 111.245C136.031 111.783 136.226 112.334 136.386 112.896C136.544 113.332 136.623 113.792 136.62 114.255C136.615 114.273 136.605 114.29 136.592 114.302C136.578 114.315 136.561 114.324 136.543 114.327C136.525 114.331 136.506 114.33 136.488 114.323C136.471 114.316 136.456 114.305 136.445 114.29C136.183 113.884 135.986 113.439 135.861 112.972C135.669 112.464 135.47 111.957 135.278 111.438C135.257 111.369 135.263 111.295 135.295 111.231C135.327 111.167 135.382 111.117 135.449 111.093C135.517 111.068 135.591 111.07 135.656 111.098C135.722 111.127 135.775 111.179 135.803 111.245Z" fill="#263238"/>
<path d="M159.085 102.618C156.752 102.384 154.296 102.414 152.085 101.358C149.874 100.302 148.445 98.1785 147.307 96.0609C146.612 94.7458 146.085 93.3484 145.738 91.9016C145.738 91.8862 145.732 91.8713 145.721 91.8604C145.71 91.8494 145.695 91.8433 145.68 91.8433C145.664 91.8433 145.649 91.8494 145.638 91.8604C145.627 91.8713 145.621 91.8862 145.621 91.9016C145.712 93.2543 146.038 94.5809 146.584 95.8217C147.076 97.0558 147.706 98.23 148.462 99.3218C149.162 100.355 150.082 101.22 151.157 101.854C152.253 102.445 153.458 102.808 154.698 102.921C156.15 103.082 157.616 103.082 159.068 102.921C159.108 102.923 159.147 102.91 159.177 102.883C159.207 102.856 159.226 102.818 159.228 102.778C159.23 102.738 159.217 102.698 159.19 102.668C159.163 102.638 159.125 102.62 159.085 102.618Z" fill="#263238"/>
<path d="M162.311 116.728C161.984 115.582 161.75 114.412 161.611 113.228C161.547 112.061 162.194 111.023 162.527 109.932C163.915 105.691 163.355 101.048 161.839 96.9235C160.937 94.5757 159.846 92.3048 158.578 90.1333C158.548 90.0749 158.467 90.1333 158.496 90.1799C160.561 94.2167 162.393 98.5277 162.795 103.089C163.02 105.288 162.822 107.51 162.212 109.635C161.909 110.632 161.331 111.601 161.244 112.656C161.25 113.773 161.425 114.882 161.763 115.947C162.066 117.271 162.988 121.255 163.396 122.597C163.431 122.713 163.635 122.69 163.612 122.562C163.402 121.348 162.585 117.953 162.311 116.728Z" fill="#263238"/>
<path d="M164.114 123.425C161.197 123.209 158.211 123.215 155.259 123.238C152.307 123.262 149.425 123.314 146.509 123.373C144.834 123.408 143.154 123.448 141.492 123.565C141.48 123.562 141.467 123.561 141.455 123.564C141.442 123.566 141.431 123.571 141.421 123.579C141.411 123.587 141.402 123.596 141.397 123.608C141.391 123.619 141.388 123.631 141.388 123.644C141.388 123.656 141.391 123.669 141.397 123.68C141.402 123.691 141.411 123.701 141.421 123.709C141.431 123.716 141.442 123.722 141.455 123.724C141.467 123.726 141.48 123.726 141.492 123.723C144.438 123.903 147.401 123.88 150.353 123.903C153.305 123.927 156.186 123.903 159.103 123.903C160.777 123.874 162.446 123.81 164.114 123.67C164.147 123.67 164.178 123.657 164.201 123.634C164.224 123.611 164.237 123.58 164.237 123.548C164.237 123.515 164.224 123.484 164.201 123.461C164.178 123.438 164.147 123.425 164.114 123.425Z" fill="#263238"/>
<path d="M126.109 249.068C127.515 249.552 167.702 249.832 169.242 248.875C169.825 248.519 170.21 242.662 170.467 235.581C170.525 234.052 170.572 232.477 170.613 230.867C170.665 228.965 170.706 227.046 170.741 225.174C170.775 219.655 170.385 214.141 169.574 208.682L144.677 209.131L144.502 224.917V230.593L144.589 235.306C144.589 235.306 129.154 242.085 127.579 243.316C126.004 244.547 124.715 248.595 126.109 249.068Z" fill="#37474F"/>
<path d="M126.109 249.068C127.515 249.552 167.702 249.832 169.242 248.875C169.825 248.52 170.21 242.663 170.467 235.581C170.525 234.052 170.572 232.477 170.613 230.867C170.665 228.966 170.706 227.046 170.741 225.174L144.49 224.917L144.502 230.593L144.589 235.307C144.589 235.307 129.154 242.085 127.579 243.316C126.004 244.547 124.715 248.595 126.109 249.068Z" fill="#DBDBDB"/>
<path d="M125.987 249.132C126.902 249.441 144.018 249.669 156.484 249.534C159.372 249.505 162.008 249.453 164.138 249.377C167.054 249.272 169.038 249.132 169.359 248.934C170.07 248.484 170.496 239.892 170.747 230.85L144.455 230.593L144.543 235.336C144.543 235.336 129.02 242.149 127.439 243.386C125.858 244.623 124.586 248.642 125.987 249.132Z" fill="#9B1E25"/>
<path opacity="0.3" d="M125.987 249.132C126.902 249.441 144.018 249.669 156.484 249.534C159.372 249.505 162.008 249.453 164.138 249.377C167.054 249.272 169.038 249.132 169.359 248.934C170.07 248.484 170.496 239.892 170.747 230.85L144.455 230.593L144.543 235.336C144.543 235.336 129.02 242.149 127.439 243.386C125.858 244.623 124.586 248.642 125.987 249.132Z" fill="black"/>
<path d="M126.581 247.509C133.354 247.393 160.696 247.55 167.416 247.947C167.468 247.947 167.468 247.988 167.416 247.994C160.707 248.256 133.371 247.877 126.581 247.62C126.418 247.62 126.418 247.509 126.581 247.509Z" fill="#263238"/>
<path d="M143.597 233.795C146.263 233.316 149.524 233.748 151.548 235.661C151.624 235.737 151.519 235.848 151.431 235.819C148.89 234.978 146.265 234.413 143.603 234.133C143.558 234.134 143.514 234.117 143.482 234.085C143.45 234.054 143.431 234.012 143.43 233.967C143.43 233.922 143.447 233.878 143.478 233.846C143.509 233.814 143.552 233.795 143.597 233.795Z" fill="#263238"/>
<path d="M141.666 234.94C144.332 234.461 147.593 234.893 149.611 236.806C149.693 236.882 149.611 236.993 149.5 236.964C146.959 236.12 144.334 235.549 141.672 235.26C141.638 235.25 141.608 235.229 141.587 235.2C141.566 235.172 141.554 235.138 141.553 235.102C141.553 235.067 141.563 235.032 141.583 235.003C141.604 234.974 141.633 234.952 141.666 234.94Z" fill="#263238"/>
<path d="M139.729 236.088C142.401 235.61 145.656 236.041 147.68 237.955C147.762 238.031 147.651 238.141 147.569 238.112C145.029 237.269 142.404 236.704 139.741 236.426C139.696 236.428 139.652 236.412 139.62 236.381C139.587 236.35 139.567 236.308 139.566 236.263C139.564 236.218 139.581 236.174 139.611 236.142C139.642 236.109 139.684 236.09 139.729 236.088Z" fill="#263238"/>
<path d="M137.8 237.231C140.471 236.753 143.726 237.185 145.751 239.098C145.826 239.174 145.721 239.285 145.634 239.256C143.091 238.425 140.466 237.868 137.805 237.593C137.782 237.594 137.758 237.589 137.736 237.581C137.714 237.572 137.694 237.559 137.677 237.542C137.66 237.526 137.646 237.506 137.636 237.484C137.627 237.462 137.622 237.439 137.622 237.415C137.621 237.392 137.626 237.368 137.634 237.346C137.643 237.324 137.656 237.304 137.673 237.287C137.689 237.269 137.709 237.256 137.731 237.246C137.752 237.237 137.776 237.232 137.8 237.231Z" fill="#263238"/>
<path d="M139.881 231.398C141.76 232.88 144.21 233.498 146.403 234.315C146.453 234.33 146.506 234.333 146.557 234.323C146.608 234.313 146.656 234.292 146.697 234.26C146.738 234.228 146.771 234.187 146.793 234.139C146.815 234.092 146.825 234.04 146.823 233.988C146.87 233.988 146.905 233.947 146.887 233.889C146.087 231.521 144.679 229.405 142.804 227.752C141.695 226.813 139.753 226.148 138.691 227.583C137.629 229.018 138.79 230.535 139.881 231.398ZM139.251 229.251C138.802 226.335 141.929 227.881 142.716 228.61C143.219 229.089 143.689 229.601 144.122 230.144C145.032 231.258 145.773 232.477 146.572 233.644C145.516 233.172 144.431 232.792 143.364 232.355C142.057 231.871 139.467 230.867 139.251 229.251Z" fill="#263238"/>
<path d="M155.818 229.905C155.182 228.236 153.129 228.353 151.81 228.96C149.567 230.051 147.65 231.712 146.251 233.778C146.216 233.825 146.251 233.865 146.286 233.889C146.27 233.938 146.267 233.991 146.275 234.042C146.284 234.093 146.304 234.142 146.335 234.184C146.365 234.226 146.405 234.26 146.451 234.284C146.498 234.308 146.549 234.32 146.601 234.32C148.934 234.11 151.466 234.175 153.665 233.253C154.954 232.716 156.413 231.48 155.818 229.905ZM150.078 233.276C148.911 233.405 147.785 233.48 146.642 233.655C147.698 232.685 148.804 231.769 149.955 230.914C150.511 230.504 151.096 230.135 151.705 229.811C152.662 229.321 156.092 228.644 154.873 231.363C154.214 232.85 151.448 233.119 150.078 233.276Z" fill="#263238"/>
<path d="M143.469 52.0877C144.106 52.2347 144.772 52.1964 145.388 51.9774C146.005 51.7583 146.546 51.3677 146.947 50.8514C147.349 50.3352 147.594 49.7149 147.655 49.0637C147.716 48.4124 147.589 47.7574 147.29 47.1758C147.973 47.3132 148.683 47.2206 149.309 46.9125C149.935 46.6044 150.441 46.0981 150.749 45.4725C151.042 44.7925 151.075 44.0288 150.843 43.3258C150.611 42.6228 150.129 42.0292 149.489 41.6574C150.051 42.0647 150.459 42.6492 150.649 43.3169C150.838 43.9846 150.798 44.6966 150.533 45.3383C150.296 45.8341 149.917 46.2486 149.445 46.5299C148.973 46.8112 148.428 46.9466 147.879 46.9192C148.371 46.7476 148.823 46.4768 149.206 46.1236C149.589 45.7704 149.896 45.3423 150.107 44.8658C150.327 44.33 150.382 43.741 150.266 43.1738C150.149 42.6065 149.867 42.0868 149.454 41.6807C149.951 41.2241 150.335 40.6579 150.575 40.027C150.815 39.3961 150.905 38.718 150.836 38.0464C150.756 37.4796 150.511 36.949 150.131 36.5206C149.752 36.0922 149.254 35.7849 148.701 35.6372C149.07 35.11 149.275 34.4862 149.293 33.8433C149.31 33.2003 149.138 32.5665 148.798 32.0204C148.458 31.4743 147.965 31.0401 147.381 30.7715C146.797 30.5029 146.146 30.4118 145.511 30.5095C145.734 30.1043 145.852 29.6493 145.853 29.1866C145.854 28.7239 145.739 28.2683 145.519 27.8617C145.298 27.455 144.979 27.1104 144.59 26.8595C144.201 26.6087 143.755 26.4596 143.294 26.4261C143.402 26.087 143.412 25.724 143.321 25.3799C143.23 25.0357 143.042 24.7247 142.78 24.4835C142.146 23.9546 141.328 23.6987 140.505 23.7718C140.419 23.4103 140.242 23.0765 139.993 22.8012C139.743 22.5259 139.428 22.318 139.076 22.1968C138.62 22.0547 138.127 22.0793 137.687 22.2662C137.247 22.4532 136.887 22.7904 136.673 23.2177C135.582 22.4651 134.293 21.7943 132.933 21.9635C132.37 22.0176 131.835 22.2345 131.392 22.5877C130.95 22.9409 130.62 23.4152 130.443 23.9527C129.941 23.6946 129.39 23.5459 128.826 23.5162C128.262 23.4866 127.699 23.5767 127.172 23.7806C126.646 23.9845 126.169 24.2976 125.772 24.6993C125.376 25.101 125.069 25.5822 124.872 26.1111C124.388 26.0251 123.89 26.0682 123.428 26.2362C122.966 26.4042 122.556 26.691 122.241 27.0678C121.785 27.5649 121.456 28.1655 121.284 28.8178C120.846 28.7736 120.404 28.8679 120.022 29.0877C119.64 29.3075 119.337 29.6416 119.155 30.0429C118.998 30.423 118.928 30.8332 118.949 31.2437C118.97 31.6543 119.082 32.0551 119.277 32.4171C119.244 32.6546 119.158 32.8818 119.026 33.0821C118.694 33.583 118.491 34.1587 118.436 34.7574C118.381 35.3561 118.476 35.9591 118.711 36.5122C118.441 36.7401 118.222 37.0231 118.069 37.3423C117.916 37.6615 117.833 38.0096 117.825 38.3634C117.818 38.7172 117.885 39.0686 118.024 39.3941C118.163 39.7197 118.369 40.012 118.63 40.2515C118.239 40.8739 118.109 41.6246 118.266 42.3423C118.423 43.06 118.855 43.6875 119.47 44.0899C119.196 44.6076 119.036 45.1782 119.002 45.763C118.967 46.3478 119.059 46.9331 119.271 47.4792C119.411 47.9195 119.677 48.3093 120.036 48.6005C120.394 48.8918 120.83 49.0718 121.29 49.1184C121.197 49.4567 121.232 49.8171 121.388 50.1312C121.544 50.4453 121.81 50.6911 122.136 50.8218C122.377 50.9296 122.629 51.0117 122.888 51.0668C123.225 51.0933 123.555 51.1782 123.862 51.3176C124.142 51.4926 124.242 51.866 124.405 52.1285C124.523 52.32 124.662 52.498 124.819 52.6593C125.417 53.2543 126.2 53.6277 127.039 53.7178C127.878 53.8079 128.722 53.6095 129.433 53.1552C130.075 54.1819 131.382 54.3977 132.519 54.2285C132.887 54.1636 133.248 54.066 133.599 53.9369C133.905 53.8047 134.246 53.772 134.573 53.8435C134.789 53.896 134.987 54.001 135.197 54.0594C135.543 54.1219 135.898 54.1128 136.24 54.0325C136.582 53.9522 136.904 53.8025 137.186 53.5927C139.006 56.3053 142.751 55.0044 143.469 52.0877ZM119.254 30.5737C119.381 30.133 119.641 29.7421 119.998 29.4541C120.354 29.166 120.791 28.9948 121.249 28.9637C121.249 29.0337 121.249 29.0803 121.249 29.0803C121.249 29.0803 120.963 29.1853 120.829 29.2495C120.589 29.3795 120.368 29.5403 120.17 29.7278C119.759 30.1271 119.475 30.6383 119.353 31.1979C119.307 31.4459 119.289 31.6984 119.301 31.9504C119.304 31.9815 119.304 32.0127 119.301 32.0437C119.151 31.5672 119.135 31.0588 119.254 30.5737ZM139.24 22.9902C138.844 22.8035 138.402 22.7426 137.971 22.8156C137.54 22.8886 137.142 23.0921 136.83 23.3985L136.772 23.3577C137.314 22.6226 138.009 22.0976 139.012 22.436C139.321 22.543 139.596 22.73 139.809 22.978C140.022 23.226 140.166 23.5261 140.225 23.8477C139.992 23.4668 139.654 23.1611 139.251 22.9668L139.24 22.9902ZM137.297 53.5869H137.326C138.089 54.2369 139.075 54.564 140.075 54.4986C141.075 54.4333 142.01 53.9806 142.681 53.2369C141.31 54.9402 139.111 55.6578 137.297 53.5635V53.5869Z" fill="#263238"/>
<path d="M134.392 59.5365C132.986 65.7434 127.526 88.2665 122.287 89.7249C117.049 91.1833 112.896 89.4332 112.732 85.0581C112.551 80.3154 124.866 63.2991 128.325 59.2157C131.627 55.3539 135.78 53.4288 134.392 59.5365Z" fill="#C29EA0"/>
<path d="M131.668 75.0132L116.542 72.3414C116.542 72.3414 126.861 58.971 131.009 55.8909C135.676 52.4317 136.428 55.5759 135.676 61.0419C134.923 66.5079 131.668 75.0132 131.668 75.0132Z" fill="#9B1E25"/>
<path d="M133.803 59.718C133.392 59.4016 132.938 59.1444 132.455 58.9538C133.1 59.7747 133.949 60.4123 134.917 60.803C134.598 60.3913 134.223 60.0261 133.803 59.718ZM124.918 71.0875C124.602 71.4988 124.345 71.9524 124.154 72.435C124.572 72.1258 124.942 71.7562 125.251 71.3383C125.569 70.9284 125.827 70.4745 126.015 69.9908C125.6 70.3034 125.231 70.6726 124.918 71.0875ZM125.974 63.2764C125.459 63.3403 124.956 63.4798 124.481 63.6906C125.516 63.8139 126.566 63.6651 127.526 63.2589C127.011 63.1858 126.488 63.1917 125.974 63.2764ZM132.764 69.6583C132.698 69.1434 132.558 68.6406 132.35 68.1649C132.277 68.6776 132.277 69.1981 132.35 69.7108C132.415 70.228 132.554 70.733 132.764 71.21C132.838 70.6953 132.838 70.1729 132.764 69.6583ZM118.653 70.0549C118.653 69.9499 118.618 69.8391 118.595 69.7341L118.251 70.1716C118.316 70.6748 118.454 71.166 118.659 71.63C118.732 71.1074 118.73 70.577 118.653 70.0549Z" fill="white"/>
<path d="M119.144 69.9204C119.686 69.9204 124.394 70.6904 125.438 70.8771C126.482 71.0638 130.653 71.793 131.692 72.0438C131.738 72.0438 131.732 72.1255 131.692 72.1196C130.618 72.038 126.389 71.3205 125.339 71.1513C124.289 70.9821 119.634 70.1246 119.132 69.9846C119.085 69.9788 119.109 69.9204 119.144 69.9204Z" fill="#263238"/>
<path opacity="0.1" d="M135.664 61.0421C134.899 66.5139 131.668 75.0425 131.668 75.0425L120.876 73.0883L134.876 54.6136C136.031 55.3019 136.125 57.752 135.664 61.0421Z" fill="black"/>
<path d="M160.211 88.7802H127.759L127.491 79.3066C127.491 79.3066 124.755 75.6373 124.942 71.5597C125.146 67.2196 133.447 55.8384 134.112 55.2259C136.795 52.6708 141.205 52.4667 143.375 54.2809C155.002 63.9937 160.211 88.7802 160.211 88.7802Z" fill="#9B1E25"/>
<path d="M126.003 69.9789C125.819 70.466 125.566 70.9239 125.25 71.3381C125.151 71.4664 125.052 71.5889 124.947 71.7114C124.947 71.6706 124.947 71.6356 124.947 71.5948C124.959 71.3873 124.985 71.1807 125.023 70.9764C125.302 70.6004 125.632 70.2647 126.003 69.9789Z" fill="#9B1E25"/>
<path d="M129.731 88.804H129.591C129.444 88.4061 129.343 87.9933 129.287 87.5731C129.214 87.0604 129.214 86.54 129.287 86.0273C129.495 86.5029 129.635 87.0057 129.701 87.5206C129.758 87.9461 129.768 88.3764 129.731 88.804Z" fill="#9B1E25"/>
<path d="M132.367 69.711C132.294 69.1983 132.294 68.6778 132.367 68.1651C132.773 69.1254 132.922 70.1749 132.799 71.2102C132.583 70.7341 132.437 70.2291 132.367 69.711Z" fill="#9B1E25"/>
<path d="M133.354 77.8777C132.394 78.2838 131.344 78.4326 130.309 78.3093C130.787 78.1019 131.291 77.9625 131.808 77.8952C132.32 77.8163 132.84 77.8105 133.354 77.8777Z" fill="#9B1E25"/>
<path d="M134.917 60.803C133.949 60.4123 133.1 59.7747 132.455 58.9538C133.421 59.3485 134.269 59.9854 134.917 60.803Z" fill="#9B1E25"/>
<path d="M138.236 53.2018C138.196 53.2435 138.151 53.2807 138.102 53.3127C138.112 53.2801 138.126 53.2488 138.143 53.2193L138.236 53.2018Z" fill="#9B1E25"/>
<path d="M139.322 82.632C139.135 83.1181 138.877 83.5741 138.558 83.9853C138.251 84.4049 137.886 84.7782 137.473 85.0937C137.867 84.1279 138.504 83.2801 139.322 82.632Z" fill="#9B1E25"/>
<path d="M141.584 73.0885C141.1 72.9002 140.646 72.6428 140.236 72.3243C139.815 72.0179 139.44 71.6525 139.122 71.2393C139.607 71.4286 140.063 71.6859 140.476 72.0035C140.894 72.3117 141.267 72.6769 141.584 73.0885Z" fill="#9B1E25"/>
<path d="M142.209 63.5216C141.25 63.9332 140.2 64.0841 139.164 63.9591C140.123 63.5476 141.173 63.3966 142.209 63.5216Z" fill="#9B1E25"/>
<path d="M145.83 56.6553C145.375 56.8549 144.894 56.9866 144.401 57.0461C143.886 57.122 143.363 57.122 142.849 57.0461C143.325 56.838 143.827 56.6986 144.342 56.6319C144.827 56.5705 145.317 56.5705 145.801 56.6319L145.83 56.6553Z" fill="#9B1E25"/>
<path d="M148.117 77.3583C147.157 77.7645 146.107 77.9133 145.072 77.79C145.547 77.5792 146.05 77.4397 146.565 77.3758C147.079 77.2911 147.602 77.2852 148.117 77.3583Z" fill="#9B1E25"/>
<path d="M149.168 67.8384C148.979 68.3235 148.722 68.7792 148.404 69.1918C148.097 69.6114 147.732 69.9846 147.319 70.3001C147.506 69.814 147.763 69.358 148.083 68.9468C148.391 68.5285 148.757 68.1555 149.168 67.8384Z" fill="#9B1E25"/>
<path d="M149.325 86.1377C149.398 86.6523 149.398 87.1747 149.325 87.6894C148.919 86.7292 148.77 85.6796 148.894 84.6443C149.105 85.1201 149.25 85.6225 149.325 86.1377Z" fill="#9B1E25"/>
<path d="M157.159 80.0881C156.675 79.8998 156.221 79.6424 155.811 79.3239C155.387 79.0206 155.012 78.6548 154.697 78.2389C155.181 78.4304 155.637 78.6876 156.051 79.0031C156.469 79.3113 156.842 79.6765 157.159 80.0881Z" fill="#9B1E25"/>
<path d="M159.197 87.4738C158.236 87.8799 157.187 88.0287 156.151 87.9054C156.626 87.6947 157.129 87.5551 157.645 87.4913C158.158 87.4066 158.681 87.4007 159.197 87.4738Z" fill="#9B1E25"/>
<path d="M140.091 77.3238C138.389 77.3463 136.691 77.5122 135.016 77.8196C134.176 77.9888 133.354 78.2046 132.531 78.403C132.117 78.5196 131.709 78.6188 131.289 78.718C130.863 78.8331 130.423 78.8881 129.982 78.8813C129.973 78.8813 129.964 78.885 129.957 78.8916C129.951 78.8981 129.947 78.907 129.947 78.9163C129.947 78.9256 129.951 78.9345 129.957 78.9411C129.964 78.9476 129.973 78.9513 129.982 78.9513C130.391 79.0126 130.805 79.0418 131.219 79.0388C131.625 79.0203 132.028 78.9696 132.426 78.8871C133.272 78.7238 134.118 78.5196 134.964 78.3505C136.673 78.0063 138.382 77.6563 140.103 77.4579C140.179 77.4754 140.173 77.3179 140.091 77.3238Z" fill="#263238"/>
<path d="M144.087 79.4297C142.718 79.1385 141.333 78.934 139.939 78.8172C139.242 78.7686 138.543 78.755 137.845 78.7764C137.506 78.7764 137.174 78.7764 136.841 78.8114C136.509 78.8464 136.1 78.9106 135.733 78.9281C135.698 78.9281 135.692 78.9981 135.733 78.9981C136.083 78.9981 136.427 79.0622 136.777 79.0797L137.821 79.1439C138.516 79.1906 139.21 79.2431 139.91 79.2781C141.304 79.3481 142.692 79.4356 144.081 79.5639C144.151 79.5698 144.157 79.4472 144.087 79.4297Z" fill="#263238"/>
<path d="M149.326 86.1377C149.256 85.6234 149.117 85.121 148.911 84.6444C148.788 85.6797 148.937 86.7292 149.343 87.6895C149.41 87.174 149.404 86.6516 149.326 86.1377ZM129.684 87.5203C129.617 87.0054 129.478 86.5026 129.27 86.0269C129.197 86.5396 129.197 87.0601 129.27 87.5728C129.325 87.993 129.427 88.4058 129.573 88.8037H129.713C129.751 88.3761 129.741 87.9457 129.684 87.5203ZM132.764 69.6581C132.698 69.1432 132.558 68.6404 132.35 68.1647C132.277 68.6774 132.277 69.1979 132.35 69.7106C132.415 70.2278 132.554 70.7328 132.764 71.2098C132.837 70.6952 132.837 70.1728 132.764 69.6581ZM140.657 63.5388C140.142 63.6075 139.639 63.7489 139.164 63.9588C140.199 64.0838 141.25 63.9329 142.209 63.5213C141.693 63.454 141.171 63.4599 140.657 63.5388ZM131.808 77.895C131.291 77.9624 130.786 78.1018 130.308 78.3092C131.344 78.4325 132.393 78.2837 133.353 77.8775C132.84 77.8103 132.319 77.8162 131.808 77.895ZM157.644 87.4911C157.129 87.555 156.625 87.6945 156.151 87.9053C157.186 88.0286 158.236 87.8798 159.196 87.4736C158.681 87.4005 158.157 87.4064 157.644 87.4911ZM146.56 77.3758C146.045 77.4397 145.542 77.5792 145.067 77.79C146.102 77.9133 147.152 77.7645 148.112 77.3583C147.599 77.2858 147.078 77.2917 146.566 77.3758H146.56ZM145.796 56.6202C145.312 56.5589 144.822 56.5589 144.338 56.6202C143.823 56.6869 143.32 56.8264 142.845 57.0344C143.359 57.1103 143.882 57.1103 144.396 57.0344C144.889 56.9749 145.371 56.8432 145.825 56.6436L145.796 56.6202ZM138.137 53.2193C138.12 53.2488 138.106 53.2801 138.096 53.3127C138.145 53.2807 138.19 53.2435 138.23 53.2018L138.137 53.2193ZM125.011 70.9648C124.973 71.1691 124.948 71.3757 124.936 71.5832C124.936 71.624 124.936 71.659 124.936 71.6998C125.041 71.5773 125.14 71.4548 125.239 71.3265C125.557 70.9166 125.815 70.4627 126.003 69.979C125.631 70.2608 125.299 70.5926 125.017 70.9648H125.011ZM148.048 68.9231C147.728 69.3343 147.471 69.7903 147.284 70.2765C147.697 69.9609 148.062 69.5877 148.369 69.1681C148.697 68.7648 148.966 68.317 149.168 67.8381C148.748 68.1459 148.373 68.5111 148.054 68.9231H148.048ZM138.23 83.746C137.914 84.1573 137.657 84.6109 137.466 85.0936C137.879 84.778 138.244 84.4048 138.551 83.9852C138.871 83.574 139.128 83.118 139.315 82.6318C138.906 82.9514 138.542 83.3264 138.236 83.746H138.23ZM133.797 59.7178C133.385 59.4015 132.932 59.1442 132.449 58.9536C133.094 59.7746 133.943 60.4122 134.911 60.8029C134.594 60.3915 134.221 60.0263 133.803 59.7178H133.797ZM140.447 72.009C140.034 71.6914 139.579 71.4341 139.094 71.2448C139.411 71.658 139.786 72.0234 140.208 72.3299C140.627 72.6488 141.091 72.9043 141.584 73.0882C141.26 72.6771 140.879 72.3137 140.453 72.009H140.447ZM156.046 79.0092C155.632 78.6937 155.176 78.4366 154.692 78.245C155.007 78.6609 155.382 79.0267 155.807 79.3301C156.219 79.647 156.674 79.9024 157.16 80.0884C156.843 79.6768 156.47 79.3116 156.052 79.0034L156.046 79.0092Z" fill="white"/>
<path d="M114.919 82.5389C110.835 84.0673 113.169 89.0433 115.829 90.525C122.059 94.0251 134.193 97.3852 140.609 97.4435C142.674 97.4435 143.485 83.0464 141.403 82.2764C139.25 81.4831 123.15 79.4413 114.919 82.5389Z" fill="#C29EA0"/>
<path d="M159.611 86.4587C159.68 86.9424 159.6 87.4358 159.381 87.8726C159.162 88.3094 158.815 88.6689 158.386 88.903C158.945 89.514 159.27 90.3036 159.302 91.1314C159.302 92.5956 157.003 93.2256 157.003 93.2256C157.445 93.9843 157.648 94.8583 157.587 95.734C157.441 97.1341 155.212 98.1024 155.212 98.1024C155.239 99.0246 154.933 99.9256 154.349 100.64C152.71 102.483 149 101.853 146.637 101.48C144.275 101.107 137.303 97.4724 136.038 96.9707L138.925 82.1361C138.925 82.1361 150.009 80.8002 152.716 81.6344C155.002 82.3403 159.272 84.6212 159.611 86.4587Z" fill="#C29EA0"/>
<path d="M158.345 88.8387C156.093 87.5086 153.567 86.9136 151.082 86.1786C151.03 86.1786 151.001 86.2486 151.082 86.2661C153.562 86.9661 155.872 88.1561 158.322 88.9553C158.334 88.953 158.346 88.9469 158.355 88.9379C158.364 88.9289 158.37 88.9174 158.373 88.9049C158.375 88.8923 158.374 88.8793 158.369 88.8675C158.364 88.8557 158.356 88.8457 158.345 88.8387Z" fill="#263238"/>
<path d="M156.986 93.021C156.444 92.7664 155.872 92.5859 155.282 92.4844C154.67 92.3327 154.051 92.1985 153.433 92.0643C152.19 91.8077 150.948 91.5802 149.694 91.3876C149.641 91.3876 149.612 91.4635 149.694 91.4752C150.93 91.7318 152.159 92.0138 153.38 92.321L155.218 92.7994C155.785 92.9946 156.372 93.1237 156.968 93.1844C156.985 93.18 157.001 93.1704 157.013 93.1569C157.025 93.1434 157.032 93.1266 157.034 93.1088C157.036 93.091 157.032 93.073 157.024 93.0573C157.015 93.0416 157.002 93.029 156.986 93.021Z" fill="#263238"/>
<path d="M155.176 98.0904C154.684 97.8689 154.157 97.7328 153.619 97.6879L151.915 97.3613C150.784 97.1396 149.652 96.9121 148.532 96.6496C148.474 96.6496 148.45 96.7254 148.503 96.7371C149.67 97.0112 150.784 97.3204 151.921 97.5596L153.607 97.9388C154.11 98.1006 154.637 98.1717 155.165 98.1488C155.17 98.1467 155.175 98.1432 155.179 98.1387C155.183 98.1341 155.186 98.1287 155.187 98.1229C155.188 98.117 155.188 98.111 155.186 98.1053C155.184 98.0996 155.181 98.0945 155.176 98.0904Z" fill="#263238"/>
<path d="M118.006 81.6752C118.825 81.4286 119.659 81.2337 120.502 81.0919C121.342 80.9402 122.194 80.8469 123.046 80.7769C124.75 80.6252 126.465 80.6604 128.162 80.8819C127.304 80.9402 126.458 80.9635 125.613 81.0277C124.767 81.0919 123.921 81.1327 123.081 81.2086L120.549 81.4244L118.006 81.6752Z" fill="#263238"/>
<path d="M146.537 56.253C150.918 60.879 166.586 79.5871 164.696 85.1697C162.946 90.3849 157.894 90.8749 154.884 87.7306C150.521 83.1747 144.384 66.2867 142.926 61.1357C141.526 56.2297 142.237 51.7087 146.537 56.253Z" fill="#C29EA0"/>
<path d="M146.572 73.9694L161.418 69.9618C161.418 69.9618 149.949 57.5598 145.545 54.8647C140.593 51.8313 140.126 55.028 141.368 60.4065C142.611 65.785 146.572 73.9694 146.572 73.9694Z" fill="#9B1E25"/>
<path d="M161.419 69.9613L146.59 73.9689C146.59 73.9689 142.618 65.802 141.369 60.406C140.121 55.0101 140.594 51.8308 145.546 54.8642C145.797 55.0159 146.071 55.2026 146.363 55.4126L146.725 55.6809C148.764 57.3055 150.712 59.0427 152.558 60.8844L152.675 60.9952C154.343 62.6169 156.011 64.3028 157.435 65.7729L158.018 66.397C160.019 68.4679 161.419 69.9613 161.419 69.9613Z" fill="#9B1E25"/>
<path d="M161.419 69.9613L146.59 73.9689C146.59 73.9689 142.618 65.802 141.369 60.406C140.121 55.0101 140.594 51.8308 145.546 54.8642C145.797 55.0159 146.071 55.2026 146.363 55.4126L146.725 55.6809C148.764 57.3055 150.712 59.0427 152.558 60.8844L152.675 60.9952C154.343 62.6169 156.011 64.3028 157.435 65.7729L158.018 66.397C160.019 68.4679 161.419 69.9613 161.419 69.9613Z" fill="#9B1E25"/>
<path d="M158.501 68.8827C158.09 68.5663 157.637 68.3091 157.154 68.1185C157.799 68.9395 158.648 69.577 159.616 69.9677C159.297 69.556 158.921 69.1908 158.501 68.8827ZM148.065 68.9236C147.746 69.3347 147.488 69.7907 147.301 70.2769C147.714 69.9614 148.079 69.5881 148.386 69.1686C148.708 68.7642 148.971 68.3165 149.168 67.8385C148.748 68.1463 148.372 68.5116 148.054 68.9236H148.065ZM144.355 56.6732C143.84 56.7399 143.337 56.8793 142.862 57.0874C143.897 57.2106 144.947 57.0619 145.907 56.6557C145.389 56.5796 144.862 56.5776 144.344 56.6499L144.355 56.6732ZM151.297 62.5067C151.228 61.9898 151.086 61.4852 150.877 61.0075C150.752 62.0433 150.903 63.0938 151.315 64.0526C151.38 63.5327 151.37 63.0063 151.285 62.4892L151.297 62.5067Z" fill="white"/>
<path d="M158.607 67.8905C158.071 67.9488 153.427 69.1272 152.424 69.4072C151.42 69.6872 147.314 70.778 146.299 71.1572C146.289 71.1572 146.28 71.1609 146.274 71.1675C146.267 71.174 146.264 71.1829 146.264 71.1922C146.264 71.2015 146.267 71.2104 146.274 71.217C146.28 71.2235 146.289 71.2272 146.299 71.2272C147.354 71.0522 151.508 69.9614 152.535 69.6988C153.561 69.4363 158.129 68.1763 158.613 67.9488C158.671 67.943 158.642 67.8905 158.607 67.8905Z" fill="#263238"/>
<path d="M148.036 73.5724C147.558 73.7357 147.073 73.8874 146.589 74.0391H146.531L146.502 73.9807C146.111 73.1815 145.714 72.3824 145.335 71.5715C144.956 70.7606 144.594 69.9498 144.262 69.1214C143.56 67.4826 142.95 65.8057 142.436 64.0988C143.118 65.7497 143.818 67.3772 144.518 69.0164L146.618 73.9166L146.531 73.8757C147.044 73.7882 147.54 73.6716 148.036 73.5724Z" fill="#263238"/>
<path d="M142.272 65.3584C142.522 65.5721 142.748 65.8105 142.949 66.0701C143.158 66.3278 143.334 66.6098 143.474 66.9101C143.325 66.8278 143.186 66.728 143.06 66.6126C142.935 66.5036 142.822 66.3824 142.722 66.2509C142.507 65.9906 142.354 65.6857 142.272 65.3584Z" fill="#263238"/>
<path d="M141.124 55.8624C140.844 56.4808 136.918 60.0625 133.99 59.3333C133.039 59.0942 134.106 53.8323 134.106 53.8323V53.424L133.978 47.7363L141.194 44.9071L142.226 44.5454C142.226 44.5454 142.162 46.1088 142.057 48.0455C142.057 48.1388 142.057 48.2264 142.057 48.3255C142.057 48.4247 142.057 48.5355 142.057 48.6405C142.057 48.9322 142.057 49.2239 142.016 49.5214C141.976 49.8189 142.016 49.9647 141.97 50.1981C141.923 50.4314 141.929 50.6648 141.911 50.8981C141.76 52.5686 141.497 54.2271 141.124 55.8624Z" fill="#C29EA0"/>
<path d="M142.046 48.0455C141.191 49.4661 140.037 50.6832 138.664 51.6121C137.291 52.541 135.732 53.1593 134.095 53.424L133.967 47.7363L141.183 44.9071L142.215 44.5454C142.215 44.5454 142.169 46.1088 142.046 48.0455Z" fill="#263238"/>
<path d="M146.577 38.6703C148.327 48.5056 142.634 50.664 140.51 51.0373C138.585 51.3815 131.988 52.2915 129.234 42.6954C126.481 33.0993 130.5 29.1851 134.858 28.17C139.215 27.155 144.827 28.8525 146.577 38.6703Z" fill="#C29EA0"/>
<path d="M143.713 36.559C143.482 36.5221 143.252 36.4735 143.025 36.4131C142.774 36.3983 142.536 36.2996 142.348 36.1331C142.299 36.0697 142.272 35.9917 142.272 35.9114C142.272 35.8312 142.299 35.7532 142.348 35.6898C142.464 35.5794 142.608 35.5018 142.763 35.4649C142.919 35.428 143.082 35.4331 143.235 35.4798C143.561 35.5235 143.857 35.6906 144.063 35.9464C144.108 36.0065 144.134 36.0783 144.139 36.153C144.143 36.2278 144.126 36.3022 144.089 36.3672C144.052 36.4322 143.996 36.4849 143.93 36.519C143.863 36.553 143.788 36.5669 143.713 36.559Z" fill="#263238"/>
<path d="M138.084 37.3809C137.897 37.5092 137.702 37.626 137.501 37.7309C137.303 37.8876 137.059 37.9739 136.807 37.9759C136.729 37.9608 136.658 37.9207 136.606 37.8617C136.553 37.8027 136.521 37.7281 136.515 37.6492C136.524 37.4891 136.577 37.3345 136.668 37.202C136.758 37.0695 136.883 36.964 137.028 36.8967C137.302 36.7128 137.635 36.6379 137.962 36.6867C138.034 36.7044 138.1 36.7429 138.151 36.7974C138.202 36.852 138.236 36.9202 138.249 36.9938C138.262 37.0674 138.254 37.1432 138.224 37.2119C138.195 37.2807 138.146 37.3394 138.084 37.3809Z" fill="#263238"/>
<path d="M138.919 40.5663C138.919 40.5663 138.872 40.6072 138.878 40.6305C139.012 41.313 139.047 42.1181 138.464 42.4506C138.464 42.4506 138.464 42.4914 138.464 42.4856C139.217 42.2581 139.158 41.1905 138.919 40.5663Z" fill="#263238"/>
<path d="M138.189 39.9479C137.075 40.0413 137.349 42.2813 138.382 42.1822C139.414 42.083 139.128 39.8663 138.189 39.9479Z" fill="#263238"/>
<path d="M137.769 40.1168C137.588 40.2685 137.424 40.5135 137.185 40.566C136.946 40.6185 136.684 40.4202 136.479 40.216H136.444C136.491 40.6418 136.713 41.0618 137.174 41.0677C137.634 41.0735 137.85 40.6593 137.909 40.2218C137.92 40.1693 137.839 40.0585 137.769 40.1168Z" fill="#263238"/>
<path d="M142.885 39.6038C142.885 39.6038 142.943 39.633 142.943 39.6621C143.001 40.3563 143.182 41.138 143.836 41.2955V41.3364C143.06 41.313 142.826 40.2747 142.885 39.6038Z" fill="#263238"/>
<path d="M143.417 38.8162C144.52 38.6003 144.864 40.8229 143.843 41.0154C142.822 41.2079 142.495 38.9912 143.417 38.8162Z" fill="#263238"/>
<path d="M143.918 38.8927C144.116 38.9802 144.32 39.1669 144.501 39.1494C144.682 39.1319 144.892 38.8577 145.009 38.6068C145.009 38.6068 145.044 38.6068 145.049 38.6068C145.125 39.0269 145.049 39.4935 144.659 39.6335C144.268 39.7735 143.97 39.4469 143.801 39.0502C143.784 38.9802 143.824 38.8518 143.918 38.8927Z" fill="#263238"/>
<path d="M139.542 46.1257C139.717 46.2716 139.903 46.4874 140.154 46.4874C140.413 46.4623 140.663 46.3828 140.889 46.2541C140.889 46.2541 140.93 46.2541 140.918 46.2891C140.829 46.4328 140.703 46.5498 140.553 46.6278C140.403 46.7058 140.235 46.742 140.067 46.7324C139.922 46.704 139.79 46.6333 139.686 46.5295C139.582 46.4256 139.512 46.2932 139.483 46.1491C139.466 46.1199 139.512 46.1024 139.542 46.1257Z" fill="#263238"/>
<path d="M142.5 42.8356C142.5 42.8356 142.78 43.8448 142.844 44.329C141.896 44.4634 140.971 44.7284 140.096 45.1165C139.892 45.2157 139.869 45.0348 140.096 44.8598C140.751 44.3408 141.545 44.0281 142.377 43.9615C142.377 43.8273 141.916 42.4156 141.992 42.4039C142.374 42.3844 142.757 42.4178 143.13 42.5031C142.605 40.3855 141.747 38.3671 141.257 36.2437C141.251 36.2275 141.251 36.2095 141.259 36.1936C141.266 36.1777 141.279 36.1653 141.295 36.1592C141.311 36.153 141.329 36.1535 141.345 36.1606C141.361 36.1677 141.373 36.1808 141.38 36.1971C142.366 38.3335 143.136 40.5633 143.678 42.8531C143.754 43.1214 142.704 42.8939 142.5 42.8356Z" fill="#263238"/>
<path d="M141.677 44.5512C141.677 44.5512 141.368 45.7821 140.65 45.9862C139.828 46.2254 139.419 45.2395 140.294 44.697C140.732 44.5204 141.211 44.4698 141.677 44.5512Z" fill="#263238"/>
<path d="M141.403 45.245C141.259 45.5811 140.989 45.8471 140.65 45.9858C140.571 46.0251 140.483 46.0456 140.394 46.0458C140.305 46.0461 140.218 46.026 140.138 45.9872C140.058 45.9483 139.988 45.8918 139.933 45.8218C139.878 45.7518 139.84 45.6702 139.822 45.5833C140.621 44.9767 141.117 45.0467 141.403 45.245Z" fill="#FF99BA"/>
<path d="M138.434 29.8034C138.763 30.6239 138.836 31.5248 138.644 32.3876C137.874 34.721 135.144 34.4993 134.333 35.4969C133.522 36.4944 134.099 38.087 133.434 38.997C132.507 40.2745 131.684 39.5803 131.597 40.3387C131.509 41.097 131.323 43.6346 130.389 44.0663C129.456 44.498 122.876 28.8992 135.698 27.7325C135.698 27.7325 137.395 26.6941 140.254 27.8083C144.337 29.4009 145.609 34.3302 145.609 34.3302C145.16 34.2919 144.725 34.1586 144.331 33.9393C143.649 33.4727 143.287 33.111 142.791 32.8135C142.015 32.3526 141.625 32.8135 140.82 32.3585C139.589 31.6701 138.434 29.8034 138.434 29.8034Z" fill="#263238"/>
<path d="M138.253 29.2786C138.533 29.8865 138.743 30.5246 138.877 31.1803C139.043 31.8147 139.033 32.4822 138.848 33.1112C138.584 33.6981 138.116 34.1688 137.53 34.4354C136.947 34.7387 136.293 34.8904 135.675 35.2346C135.353 35.4081 135.086 35.6689 134.905 35.9871C134.753 36.3091 134.668 36.6582 134.654 37.0138C134.666 37.6659 134.5 38.309 134.176 38.8747C133.989 39.1378 133.749 39.3578 133.47 39.5199C133.191 39.6819 132.881 39.7822 132.56 39.8139C131.918 39.8956 131.183 39.8139 130.594 40.1697C131.212 39.8547 131.895 40.0006 132.571 39.9656C132.923 39.9484 133.267 39.8544 133.578 39.6901C133.89 39.5258 134.161 39.2953 134.374 39.0147C134.756 38.4282 134.959 37.743 134.957 37.043C134.976 36.7281 135.053 36.4194 135.185 36.133C135.346 35.8687 135.576 35.653 135.85 35.5088C136.404 35.1879 137.069 35.0188 137.682 34.6921C137.994 34.5331 138.279 34.3264 138.527 34.0796C138.795 33.8367 138.996 33.5294 139.111 33.187C139.281 32.5125 139.262 31.8044 139.058 31.1395C138.863 30.4899 138.593 29.8654 138.253 29.2786Z" fill="#263238"/>
<path d="M138.568 29.8271C138.776 30.4198 139.06 30.9827 139.414 31.5013C139.769 32.051 140.278 32.4833 140.878 32.7439C141.179 32.8505 141.49 32.9268 141.806 32.9714C142.084 33.0247 142.343 33.1539 142.552 33.3447C142.747 33.5865 142.966 33.8075 143.206 34.0039C143.464 34.1911 143.761 34.3168 144.075 34.3714C143.789 34.2604 143.527 34.0938 143.305 33.8814C143.084 33.6626 142.889 33.42 142.722 33.1581C142.49 32.9059 142.187 32.7308 141.852 32.6564C141.555 32.6062 141.262 32.5301 140.977 32.4289C140.433 32.1836 139.959 31.8043 139.601 31.3263C139.224 30.8494 138.88 30.3486 138.568 29.8271Z" fill="#263238"/>
<path d="M131.47 42.4685C131.47 42.4685 129.02 39.5518 127.678 40.4559C126.337 41.3601 128.373 45.7061 130.082 46.1786C130.296 46.2531 130.522 46.2838 130.749 46.269C130.975 46.2542 131.195 46.1941 131.398 46.0924C131.6 45.9906 131.78 45.8493 131.927 45.6767C132.073 45.5041 132.184 45.3039 132.252 45.0877L131.47 42.4685Z" fill="#C29EA0"/>
<path d="M128.289 41.6922V41.7331C129.491 42.1006 130.197 43.1214 130.722 44.2006C130.645 44.0896 130.545 43.9967 130.428 43.9285C130.312 43.8602 130.182 43.8183 130.047 43.8055C129.913 43.7927 129.777 43.8094 129.65 43.8545C129.523 43.8996 129.407 43.9719 129.31 44.0665C129.31 44.0665 129.31 44.1365 129.345 44.1306C129.542 44.0481 129.76 44.0285 129.969 44.0744C130.178 44.1203 130.367 44.2296 130.512 44.3873C130.752 44.6564 130.963 44.9497 131.142 45.2623C131.206 45.3557 131.387 45.2623 131.334 45.169C131.229 43.664 129.917 41.6981 128.289 41.6922Z" fill="#263238"/>
<path d="M156.827 88.0398C159.51 91.5399 164.183 87.7889 164.801 84.7672C166.248 77.6795 164.544 63.6383 162.666 57.3497C162.083 55.3313 149.249 59.6248 149.15 61.8707C149.045 64.2508 151.378 80.9346 156.827 88.0398Z" fill="#C29EA0"/>
<path d="M162.719 58.3701C162.719 58.3701 162.503 54.1116 162.135 50.3899C161.937 48.3131 160.741 44.2238 159.895 42.7655C158.635 40.5837 151.962 32.2652 149.914 33.8461C148.059 35.2694 154.698 41.6863 154.698 41.6863C154.698 41.6863 148.584 34.6219 146.659 36.7453C144.734 38.8687 153.204 45.1222 153.204 45.1222C153.204 45.1222 146.747 38.0053 145.113 40.5137C143.882 42.4038 151.227 48.4998 151.227 48.4998C151.227 48.4998 145.638 42.4213 144.285 44.3114C142.791 46.4056 149.22 52.4783 149.22 52.4783C146.589 57.8684 146.426 60.966 149.722 63.3169C150.253 63.6727 162.719 58.3701 162.719 58.3701Z" fill="#C29EA0"/>
<path d="M156.985 43.9906C156.291 43.1389 155.602 42.2405 154.838 41.4764C154.074 40.7122 153.28 39.9188 152.446 39.2013C151.378 38.2422 150.204 37.4084 148.946 36.7162C151.093 38.1046 153.87 40.8988 154.634 41.6922C155.398 42.4855 156.197 43.2322 156.967 44.0256C156.973 44.0431 156.996 44.0139 156.985 43.9906Z" fill="#263238"/>
<path d="M154.173 46.8027C153.245 45.7468 152.365 44.6676 151.39 43.6526C150.416 42.6376 149.413 41.7684 148.374 40.8292C148.293 40.7592 148.281 40.8292 148.374 40.8992C149.372 41.8792 150.224 42.8651 151.209 43.8568C152.195 44.8484 153.222 45.7993 154.167 46.826L154.173 46.8027Z" fill="#263238"/>
<path d="M152.196 49.643C150.81 47.9524 149.256 46.4064 147.558 45.0287C147.471 44.9587 147.465 45.0287 147.558 45.122C149.122 46.5862 150.376 47.8463 152.149 49.6896C152.167 49.7188 152.225 49.678 152.196 49.643Z" fill="#263238"/>
<path d="M146.835 39.0142C146.629 38.6503 146.479 38.2568 146.392 37.8475C146.335 37.4728 146.414 37.0902 146.614 36.7683C146.614 36.7683 146.661 36.7683 146.643 36.7683C146.537 36.9512 146.476 37.1571 146.467 37.3685C146.458 37.5798 146.5 37.7902 146.59 37.9816C146.725 38.3387 146.889 38.684 147.081 39.0142C147.279 39.353 147.499 39.6785 147.74 39.9884C147.972 40.3029 148.222 40.6047 148.486 40.8925C148.019 40.5092 147.473 40.2324 146.888 40.0817C146.614 39.9883 146.322 39.9643 146.036 40.0117C145.791 40.073 145.573 40.2147 145.418 40.4142C145.254 40.6375 145.181 40.9149 145.214 41.1901C145.265 41.4499 145.362 41.6986 145.5 41.9251C145.785 42.4558 146.101 42.97 146.445 43.4651C146.639 43.7412 146.834 44.0096 147.028 44.2701C147.238 44.5268 147.471 44.7718 147.658 45.046C147.658 45.046 147.606 45.0927 147.594 45.081C147.384 44.9643 145.879 43.9551 145.103 44.031C144.901 44.0398 144.707 44.1115 144.548 44.2359C144.389 44.3604 144.273 44.5314 144.216 44.7252C144.116 45.1379 144.153 45.5719 144.321 45.9619C144.606 46.6442 144.944 47.3035 145.33 47.9336C145.33 47.9336 145.33 47.9686 145.295 47.9336C145.004 47.4727 144.38 46.4927 144.129 46.0027C143.92 45.5945 143.86 45.1261 143.96 44.6785C144.013 44.4757 144.117 44.2901 144.264 44.1398C144.41 43.9895 144.592 43.8797 144.794 43.821C145.222 43.7589 145.658 43.8388 146.036 44.0485C146.503 44.2892 146.955 44.558 147.39 44.8535C147.232 44.696 146.509 43.8443 146.31 43.576C145.912 43.0455 145.552 42.4881 145.231 41.9076C145.064 41.6757 144.967 41.4003 144.952 41.1146C144.938 40.8289 145.006 40.5451 145.15 40.2975C145.311 40.0723 145.539 39.9029 145.802 39.813C146.064 39.7231 146.348 39.7171 146.614 39.7959C147.044 39.8907 147.452 40.0669 147.816 40.315C147.716 40.2159 147.623 40.1167 147.536 40.0117C147.273 39.7008 147.039 39.3669 146.835 39.0142Z" fill="#263238"/>
<path d="M150.818 72.82C151.104 73.6717 151.361 74.5351 151.618 75.3868L152.399 77.9535L153.193 80.5086C153.467 81.3545 153.776 82.2003 154.079 83.0403C153.613 82.2698 153.211 81.462 152.878 80.6253C152.528 79.7969 152.248 78.9394 151.979 78.0819C151.711 77.2243 151.489 76.3318 151.297 75.4743C151.104 74.6168 150.918 73.7126 150.818 72.82Z" fill="#263238"/>
<path d="M150.86 81.3603C151.501 82.6777 152.234 83.9487 153.053 85.1638C153.85 86.378 154.808 87.4788 155.9 88.4364C156.465 88.8614 157.111 89.1678 157.797 89.3372C158.484 89.5066 159.198 89.5355 159.896 89.4222C161.345 89.2254 162.665 88.4851 163.589 87.3513C163.186 87.9778 162.657 88.5141 162.037 88.9264C161.403 89.3382 160.693 89.6198 159.949 89.7547C159.201 89.889 158.434 89.8771 157.691 89.7197C156.931 89.5797 156.217 89.2529 155.614 88.7689C154.506 87.7713 153.549 86.6178 152.773 85.3446C151.995 84.0887 151.354 82.753 150.86 81.3603Z" fill="#263238"/>
<path d="M97.0404 208.239C97.0404 208.239 96.0195 234.991 96.0195 235.009C96.1712 240.259 96.3987 244.815 96.737 247.172C96.7343 247.178 96.7329 247.185 96.7329 247.192C96.7329 247.199 96.7343 247.206 96.737 247.212C96.7541 247.772 96.902 248.319 97.1687 248.811C97.1687 248.811 97.1687 248.811 97.1687 248.846C98.7554 249.855 140.558 249.867 142.017 249.377C143.475 248.887 142.192 244.71 140.57 243.397C138.948 242.085 122.941 234.939 122.941 234.939L123.699 208.215L97.0404 208.239Z" fill="#D3766A"/>
<path d="M95.8322 229.427C95.8322 229.427 96.0188 235.021 96.0188 235.039C96.1705 240.289 96.398 244.845 96.7363 247.201C96.7336 247.208 96.7322 247.215 96.7322 247.222C96.7322 247.229 96.7336 247.236 96.7363 247.242C96.8134 247.791 96.9585 248.328 97.168 248.841C97.168 248.841 97.168 248.841 97.168 248.876C98.7547 249.885 140.558 249.896 142.016 249.406C143.474 248.916 142.191 244.74 140.569 243.427C138.948 242.115 122.94 234.969 122.94 234.969L122.824 229.275L95.8322 229.427Z" fill="white"/>
<path d="M142.05 249.378C140.592 249.874 98.7889 249.856 97.2022 248.847C96.6189 248.474 96.2397 242.378 96.0355 235.01C96.0355 234.934 96.0355 234.852 96.0355 234.777L123.004 234.485V234.946C123.004 234.946 138.999 242.103 140.633 243.404C142.266 244.705 143.509 248.894 142.05 249.378Z" fill="#48484A"/>
<path d="M141.585 247.756C134.538 247.581 106.105 247.54 99.1228 247.902C99.0702 247.902 99.0702 247.943 99.1228 247.948C106.123 248.275 134.538 248.088 141.585 247.873C141.725 247.873 141.725 247.762 141.585 247.756Z" fill="#263238"/>
<path d="M125.25 235.027C122.479 234.508 119.089 234.934 116.966 236.906C116.884 236.982 116.995 237.098 117.083 237.069C119.737 236.216 122.475 235.649 125.25 235.377C125.296 235.377 125.341 235.359 125.373 235.326C125.406 235.293 125.425 235.249 125.425 235.202C125.425 235.156 125.406 235.111 125.373 235.079C125.341 235.046 125.296 235.027 125.25 235.027Z" fill="#263238"/>
<path d="M127.24 236.234C124.469 235.715 121.08 236.135 118.956 238.112C118.875 238.188 118.956 238.305 119.073 238.276C121.727 237.42 124.465 236.853 127.24 236.584C127.286 236.584 127.331 236.566 127.364 236.533C127.396 236.5 127.415 236.456 127.415 236.409C127.415 236.363 127.396 236.318 127.364 236.285C127.331 236.253 127.286 236.234 127.24 236.234Z" fill="#263238"/>
<path d="M129.241 237.437C126.47 236.923 123.08 237.343 120.957 239.321C120.875 239.397 120.986 239.513 121.074 239.484C123.728 238.63 126.466 238.061 129.241 237.787C129.287 237.787 129.331 237.768 129.364 237.735C129.397 237.703 129.416 237.658 129.416 237.612C129.416 237.565 129.397 237.521 129.364 237.488C129.331 237.455 129.287 237.437 129.241 237.437Z" fill="#263238"/>
<path d="M94.3613 235.149L123.605 234.566C123.605 234.566 127.169 181.942 126.521 164.401C125.804 145.343 117.614 88.641 117.614 88.641H92.903C92.903 88.641 99.2148 145.564 99.3198 164.628C99.4715 182.304 94.3613 235.149 94.3613 235.149Z" fill="#AEAEB2"/>
<path d="M112.749 88.641L97.9081 139.976C96.158 115.685 92.903 88.641 92.903 88.641H112.749Z" fill="#37474F"/>
<path d="M97.5875 91.4349L99.1567 108.352L100.609 125.269C101.543 136.563 102.423 147.862 103.094 159.179C103.258 162.009 103.357 164.85 103.322 167.696C103.287 170.543 103.147 173.366 103.001 176.196C102.709 181.858 102.346 187.515 101.91 193.165C101.475 198.816 101.018 204.455 100.539 210.082L98.9584 227L100.224 210.047C100.644 204.401 101.033 198.75 101.391 193.095C101.747 187.443 102.132 181.79 102.394 176.132C102.527 173.3 102.622 170.473 102.68 167.65C102.709 164.826 102.599 162.003 102.429 159.179C101.811 147.868 100.918 136.575 100.096 125.275L97.5875 91.4349Z" fill="#37474F"/>
<path d="M122.38 229.688C117.818 229.647 119.125 229.595 114.563 229.607C112.329 229.607 97.646 229.659 95.5634 230.032C95.551 230.032 95.5391 230.037 95.5304 230.046C95.5216 230.055 95.5167 230.067 95.5167 230.079C95.5167 230.092 95.5216 230.103 95.5304 230.112C95.5391 230.121 95.551 230.126 95.5634 230.126C97.6518 230.447 112.335 230.126 114.569 230.091C119.131 229.992 117.818 229.968 122.386 229.817C122.403 229.816 122.419 229.808 122.43 229.796C122.442 229.783 122.448 229.767 122.447 229.75C122.446 229.733 122.439 229.717 122.426 229.705C122.414 229.694 122.397 229.688 122.38 229.688Z" fill="#37474F"/>
<path d="M50.3599 192.961L36.2428 215.905C33.9503 220.606 32.0252 224.766 31.2319 226.988C31.2293 227 31.2293 227.012 31.2319 227.023C30.9883 227.529 30.8645 228.084 30.8702 228.645C30.8702 228.645 30.8702 228.68 30.8702 228.692C31.8094 230.319 68.8346 249.721 70.3513 249.966C71.868 250.211 72.6847 245.883 71.8447 243.999C71.0047 242.115 60.1777 228.324 60.1777 228.324L74.0497 205.293L50.3599 192.961Z" fill="#D3766A"/>
<path d="M30.8637 228.674C30.8613 228.688 30.8613 228.701 30.8637 228.715C31.8029 230.342 68.8282 249.745 70.3507 249.99C71.8732 250.235 72.6841 245.906 71.8441 244.022C71.0041 242.138 60.1479 228.347 60.1479 228.347L62.6213 224.264C56.5661 221.044 45.57 215.374 38.739 211.868C37.2514 214.283 36.2364 215.951 36.2364 215.951C33.9438 220.647 32.0188 224.806 31.2254 227.035C31.222 227.048 31.222 227.062 31.2254 227.076C30.9801 227.572 30.8561 228.12 30.8637 228.674Z" fill="white"/>
<path d="M70.3516 249.99C68.8349 249.75 31.8096 230.342 30.8705 228.709C30.5029 228.126 33.0172 222.537 36.2431 215.904L36.3481 215.7L60.3763 227.951L60.1488 228.353C60.1488 228.353 70.9991 242.114 71.8158 244.022C72.6325 245.929 71.8741 250.24 70.3516 249.99Z" fill="#48484A"/>
<path d="M70.6905 248.333C64.5245 244.909 39.3588 231.684 33.0061 228.767C32.9536 228.767 32.9361 228.767 33.0061 228.802C39.038 232.332 64.3145 245.358 70.6497 248.438C70.7664 248.502 70.8189 248.409 70.6905 248.333Z" fill="#263238"/>
<path d="M62.1203 229.474C59.9036 227.724 56.701 226.557 53.9126 227.298C53.8017 227.298 53.8484 227.485 53.9126 227.496C56.6585 227.969 59.3457 228.736 61.9278 229.783C61.9481 229.796 61.9707 229.804 61.9943 229.808C62.0179 229.812 62.042 229.811 62.0653 229.806C62.0886 229.8 62.1106 229.79 62.13 229.777C62.1495 229.763 62.166 229.745 62.1786 229.725C62.1913 229.704 62.1998 229.682 62.2037 229.658C62.2076 229.635 62.2068 229.61 62.2014 229.587C62.196 229.564 62.1861 229.542 62.1721 229.522C62.1582 229.503 62.1406 229.486 62.1203 229.474Z" fill="#263238"/>
<path d="M63.3338 231.474C61.1171 229.724 57.9145 228.529 55.1203 229.299C55.0153 229.328 55.0561 229.479 55.1494 229.497C57.8922 229.964 60.5772 230.723 63.1588 231.76C63.1952 231.77 63.2337 231.767 63.2686 231.753C63.3035 231.739 63.3329 231.715 63.3526 231.682C63.3722 231.65 63.381 231.613 63.3776 231.575C63.3743 231.538 63.3589 231.503 63.3338 231.474Z" fill="#263238"/>
<path d="M64.547 233.47C62.3302 231.72 59.1276 230.553 56.3334 231.294C56.2284 231.323 56.2692 231.475 56.3334 231.492C59.0768 231.965 61.7618 232.73 64.3428 233.773C64.383 233.8 64.4323 233.81 64.4799 233.801C64.5275 233.792 64.5695 233.764 64.5965 233.723C64.6236 233.683 64.6336 233.634 64.6243 233.586C64.615 233.539 64.5872 233.497 64.547 233.47Z" fill="#263238"/>
<path d="M115.071 88.6178C114.966 89.1311 113.24 97.1405 111.449 104.024C110.142 109.053 108.806 113.469 108.036 113.941C107.167 114.454 102.926 116.333 101.503 116.922C101.503 116.922 91.9649 164.535 86.9189 179.3C82.2521 192.927 63.0424 229.345 63.0424 229.345L35.1525 215.257C35.1525 215.257 56.9406 178.302 59.2331 171.675C62.7799 161.397 76.0861 111.199 76.0861 111.199C76.0861 111.199 75.987 95.4838 81.2779 88.6236L115.071 88.6178Z" fill="#AEAEB2"/>
<path d="M62.6396 223.914C58.6554 221.685 59.8279 222.269 55.8203 220.087C53.8544 219.02 40.9507 212.014 38.9498 211.337C38.9031 211.337 38.8681 211.389 38.9031 211.419C40.5832 212.702 53.6094 219.48 55.5928 220.513C59.6412 222.619 58.5095 221.965 62.593 224.013C62.6039 224.012 62.6144 224.008 62.6233 224.002C62.6323 223.995 62.6395 223.987 62.6442 223.977C62.6489 223.967 62.6509 223.956 62.6501 223.945C62.6493 223.934 62.6457 223.923 62.6396 223.914Z" fill="#37474F"/>
<path d="M83.2496 106.824C84.0138 106.625 84.8305 106.567 85.583 106.439C86.213 106.339 86.843 106.229 87.4614 106.094C88.6569 105.88 89.7904 105.404 90.7806 104.7C91.8598 103.86 92.4082 102.583 92.9273 101.358C93.2365 100.634 93.5574 99.9109 93.884 99.1875L94.3566 98.1433C94.578 97.7384 94.7729 97.3194 94.9399 96.8891C94.9399 96.825 95.0624 96.86 95.0391 96.8891C94.9339 97.1837 94.8443 97.4835 94.7707 97.7875C94.6657 98.1433 94.5666 98.4933 94.4557 98.8434C94.2632 99.4675 94.0766 100.092 93.8724 100.716C93.5763 101.86 93.1434 102.965 92.5832 104.006C91.4165 105.838 89.3689 106.579 87.333 106.835C86.7497 106.911 86.1663 106.952 85.5538 106.987C84.8067 107.054 84.055 107.054 83.3079 106.987C83.2914 106.983 83.2761 106.974 83.2636 106.963C83.251 106.951 83.2414 106.937 83.2356 106.921C83.2299 106.905 83.2281 106.887 83.2306 106.87C83.233 106.853 83.2395 106.837 83.2496 106.824Z" fill="#37474F"/>
<path d="M110.287 112.826C107.258 113.931 104.33 115.297 101.537 116.91C101.432 116.968 101.502 117.143 101.619 117.09C104.565 115.825 107.569 114.617 110.439 113.188C110.487 113.168 110.525 113.129 110.545 113.081C110.564 113.033 110.564 112.979 110.544 112.931C110.524 112.883 110.486 112.845 110.438 112.825C110.389 112.806 110.335 112.806 110.287 112.826Z" fill="#37474F"/>
<path d="M111.175 92.6543C111.175 92.5493 110.988 92.5318 110.988 92.6543C110.988 96.1544 110.79 99.2286 110.498 102.495C110.358 104.012 109.139 112.412 106.508 111.788C106.064 111.683 105.843 111.251 105.773 110.586C105.783 109.718 105.9 108.854 106.123 108.014C106.414 106.264 106.648 104.514 106.799 102.729C107.106 99.4283 107.071 96.105 106.694 92.8118C106.69 92.7931 106.679 92.7766 106.663 92.7648C106.648 92.7531 106.629 92.7467 106.61 92.7467C106.591 92.7467 106.572 92.7531 106.557 92.7648C106.541 92.7766 106.53 92.7931 106.525 92.8118C106.602 97.3893 106.333 101.966 105.72 106.503C105.394 108.685 104.297 111.969 106.578 112.301C108.859 112.634 110.399 107.145 110.661 105.64C111.396 101.352 111.568 96.9866 111.175 92.6543Z" fill="#37474F"/>
<path d="M106.584 111.992C106.352 112.562 106.157 113.147 106.001 113.742C105.833 114.2 105.75 114.684 105.756 115.172C105.76 115.191 105.77 115.209 105.784 115.224C105.798 115.238 105.816 115.248 105.836 115.252C105.856 115.256 105.876 115.255 105.895 115.248C105.914 115.241 105.93 115.228 105.942 115.212C106.204 114.781 106.401 114.313 106.526 113.824C106.73 113.281 106.94 112.751 107.109 112.208C107.114 112.145 107.1 112.082 107.067 112.028C107.034 111.974 106.984 111.932 106.926 111.908C106.867 111.883 106.802 111.879 106.741 111.894C106.679 111.909 106.625 111.944 106.584 111.992Z" fill="#37474F"/>
<path d="M42.684 210.631C46.6566 203.158 50.7518 195.749 54.8585 188.347C56.8828 184.701 59.0003 181.096 60.9312 177.397C62.7492 173.733 64.2273 169.91 65.3472 165.975C67.8011 157.995 70.1345 149.974 72.3474 141.912C74.5602 133.85 76.6214 125.755 78.5309 117.627C79.0209 115.597 79.5518 113.544 79.9426 111.514C80.2897 109.44 80.2897 107.323 79.9426 105.249C79.6436 103.317 79.6279 101.351 79.8959 99.415C80.2079 97.4838 80.6641 95.5787 81.261 93.7157C81.5701 92.7357 81.9026 91.7615 82.241 90.799C82.248 90.7765 82.2635 90.7578 82.2843 90.7468C82.3051 90.7359 82.3294 90.7337 82.3518 90.7406C82.3743 90.7476 82.393 90.7632 82.4039 90.784C82.4149 90.8048 82.4171 90.829 82.4102 90.8515C81.2085 94.7891 79.9776 98.7675 80.2401 102.933C80.3626 104.939 80.8934 106.905 80.8584 108.924C80.7304 110.926 80.3901 112.909 79.8434 114.839C77.9495 123.006 75.9136 131.147 73.7358 139.264C71.5579 147.38 69.2556 155.45 66.8289 163.473C65.6622 167.375 64.5363 171.342 62.8563 175.07C61.1762 178.797 59.0412 182.338 57.0228 185.903C52.8752 193.276 48.6984 200.626 44.4282 207.924C43.8857 208.852 43.3374 209.773 42.7949 210.695C42.7424 210.759 42.6549 210.689 42.684 210.631Z" fill="#37474F"/>
<path d="M77.3696 97.2098C77.4571 97.3207 119.616 99.129 120.007 98.7382C120.123 98.6215 121.693 93.4589 121.278 90.2388C119.715 78.1809 113.695 53.1727 110.714 48.7043C107.214 43.4541 101.106 45.3383 99.6769 46.1609C93.0151 49.976 76.8155 83.7344 75.7596 87.3454C74.8321 90.4721 77.2296 97.0056 77.3696 97.2098Z" fill="#455A64"/>
<path opacity="0.1" d="M105.633 94.9638C110.265 95.0513 114.868 95.1388 119.464 95.273L119.214 95.5589L118.018 88.4245L118.175 88.6228C117.329 88.2124 116.598 87.5992 116.046 86.8378C115.511 86.0898 115.096 85.2633 114.815 84.3877C114.519 83.5304 114.303 82.6478 114.168 81.751C114.023 80.8575 113.944 79.9549 113.928 79.05L114.179 79.3067L103.276 78.9509L103.504 78.7642L103.125 80.4559C102.985 81.0393 102.786 81.5584 102.617 82.1126C102.448 82.6668 102.18 83.186 101.952 83.7168L101.526 84.481C101.456 84.6035 101.386 84.7319 101.311 84.8544L101.054 85.2102C100.407 86.2009 99.5118 87.0053 98.4579 87.5436C97.3945 88.0652 96.1881 88.2191 95.0278 87.9811L95.1562 87.9228L91.6561 94.7247L105.633 94.9638ZM94.9637 87.8061L94.9987 87.7303H95.0862C96.1918 87.923 97.3302 87.7511 98.3296 87.2403C99.3232 86.7155 100.163 85.9416 100.768 84.9944L101.013 84.6502L101.217 84.2769L101.62 83.536C101.83 83.0168 102.063 82.4976 102.244 81.9668C102.425 81.4359 102.582 80.8876 102.711 80.3334L103.061 78.6709L103.096 78.4784H103.288L114.197 78.7642H114.442V79.0209C114.465 79.8968 114.548 80.77 114.693 81.6343C114.825 82.4994 115.036 83.3507 115.323 84.1777C115.596 84.9989 115.989 85.7753 116.489 86.4819C116.981 87.1709 117.634 87.7296 118.391 88.1095L118.525 88.1736V88.3078L119.692 95.448L119.744 95.7514H119.441C114.774 95.6114 110.107 95.4247 105.441 95.238L91.6152 94.6838L94.9637 87.8061Z" fill="black"/>
<path d="M92.8979 54.001C90.8561 68.5848 94.2396 81.8968 98.0605 84.6969C102.307 87.8178 105.644 71.0757 105.247 70.3757C104.956 69.8507 102.331 58.4462 99.7931 51.586C96.4388 42.4449 93.4287 50.2443 92.8979 54.001Z" fill="#455A64"/>
<path d="M100.949 54.8066C101.398 56.0783 101.795 57.3617 102.186 58.6509C102.577 59.9401 102.932 61.2409 103.312 62.536C103.691 63.831 104.012 65.1377 104.338 66.4444C104.665 67.7511 104.98 69.0578 105.248 70.3762C104.799 69.1045 104.403 67.8153 104.012 66.5261C103.621 65.2369 103.265 63.9419 102.886 62.6468C102.507 61.3518 102.186 60.0509 101.865 58.7442C101.544 57.4375 101.223 56.125 100.949 54.8066Z" fill="#263238"/>
<path d="M106.524 53.902C106.524 53.902 100.597 47.6601 96.6073 47.6543L93.603 51.0669C93.603 51.0669 93.218 53.6686 92.903 52.9511C92.1155 51.201 90.8788 44.1542 94.5947 41.5524C98.0015 39.1782 104.786 39.9366 109.272 41.2958C113.577 42.6025 115.875 45.2509 114.44 48.0393C113.005 50.8277 106.524 53.902 106.524 53.902Z" fill="#455A64"/>
<path d="M107.009 52.5841C107.009 52.5841 112.131 49.2123 112.72 47.1181C113.31 45.0239 109.162 42.848 106.461 41.9613C102.278 40.5787 99.3967 40.7479 96.9408 42.9121C94.4849 45.0763 107.009 52.5841 107.009 52.5841Z" fill="#37474F"/>
<path d="M107.01 52.5839C104.997 52.6714 101.416 49.6322 100.593 46.6162C100.541 46.4062 101.27 44.5337 102.046 42.2178C102.512 40.8119 102.996 39.2369 103.341 37.761C103.405 37.4576 112.05 42.1361 112.05 42.1361C111.1 43.8563 110.364 45.686 109.857 47.5846C109.812 47.7879 109.787 47.9949 109.781 48.2029C109.781 48.2029 109.781 48.2671 109.781 48.3079C109.664 49.498 109.168 52.4906 107.01 52.5839Z" fill="#C29EA0"/>
<path d="M109.751 48.2032C109.751 48.2032 109.751 48.2674 109.751 48.3082C109.429 48.2739 109.109 48.2174 108.794 48.1391C103.387 46.7623 103.544 39.628 103.649 37.8429C105.23 38.4263 112.038 42.1364 112.038 42.1364C111.083 43.8557 110.342 45.6855 109.833 47.5849C109.786 47.788 109.759 47.995 109.751 48.2032Z" fill="#263238"/>
<path d="M102.961 26.8178C101.742 30.1079 102.961 39.9024 105.201 42.2008C108.473 45.5375 114.114 46.1734 117.02 42.2008C119.837 38.3215 118.046 25.587 115.497 23.4694C111.746 20.3135 104.763 21.9527 102.961 26.8178Z" fill="#C29EA0"/>
<path d="M112.342 33.421C112.342 33.421 112.295 33.4619 112.301 33.491C112.4 34.1444 112.4 34.9144 111.828 35.2061C111.828 35.2061 111.828 35.2469 111.828 35.2411C112.558 35.0486 112.54 34.0044 112.342 33.421Z" fill="#263238"/>
<path d="M111.669 32.7969C110.602 32.8435 110.765 34.9786 111.757 34.9378C112.748 34.8969 112.568 32.7619 111.669 32.7969Z" fill="#263238"/>
<path d="M116.191 33.0887C116.191 33.0887 116.243 33.0887 116.249 33.1412C116.278 33.8062 116.424 34.5646 117.043 34.7338V34.7746C116.302 34.7279 116.115 33.7246 116.191 33.0887Z" fill="#263238"/>
<path d="M116.728 32.3473C117.789 32.184 118.04 34.319 117.054 34.4707C116.068 34.6224 115.841 32.4873 116.728 32.3473Z" fill="#263238"/>
<path d="M110.695 31.7526C110.986 31.7055 111.274 31.6432 111.558 31.5659C111.876 31.5418 112.177 31.4148 112.416 31.2042C112.484 31.1224 112.522 31.0192 112.522 30.9126C112.522 30.8059 112.484 30.7027 112.416 30.6209C112.271 30.4835 112.091 30.3874 111.897 30.3423C111.702 30.2971 111.498 30.3047 111.308 30.3642C110.902 30.4219 110.534 30.6302 110.275 30.9476C110.209 31.0209 110.166 31.1128 110.154 31.2109C110.141 31.309 110.159 31.4085 110.205 31.4962C110.251 31.5839 110.322 31.6554 110.41 31.7013C110.497 31.7471 110.597 31.765 110.695 31.7526Z" fill="#263238"/>
<path d="M117.487 31.6995C117.189 31.6995 116.903 31.6529 116.612 31.6237C116.3 31.6446 115.99 31.5604 115.731 31.3845C115.651 31.3119 115.6 31.213 115.587 31.1059C115.574 30.9988 115.601 30.8906 115.661 30.8012C115.787 30.6457 115.953 30.5268 116.14 30.457C116.328 30.3873 116.531 30.3691 116.728 30.4045C117.139 30.4119 117.532 30.572 117.831 30.8537C117.906 30.9202 117.958 31.0083 117.981 31.1058C118.004 31.2034 117.996 31.3056 117.958 31.3984C117.92 31.4912 117.855 31.57 117.77 31.6239C117.686 31.6779 117.587 31.7043 117.487 31.6995Z" fill="#263238"/>
<path d="M111.296 39.9546C111.46 40.1005 111.629 40.3105 111.88 40.3163C112.127 40.3035 112.368 40.2358 112.586 40.118C112.586 40.118 112.632 40.118 112.621 40.153C112.531 40.2875 112.407 40.3953 112.261 40.4652C112.115 40.535 111.953 40.5642 111.792 40.5496C111.653 40.5186 111.526 40.4464 111.428 40.3424C111.33 40.2384 111.266 40.1073 111.244 39.9663C111.25 39.9488 111.25 39.9313 111.296 39.9546Z" fill="#263238"/>
<path d="M112.942 38.7759C113.786 38.4668 114.691 38.359 115.584 38.4609C115.66 38.4609 115.724 38.2859 115.73 38.2159L115.596 36.7925C115.788 36.8742 116.763 37.2417 116.763 36.9734C116.553 34.6613 116.11 32.3764 115.438 30.154C115.438 30.084 115.304 30.1073 115.316 30.154C115.497 32.2949 116.051 34.3833 116.273 36.53C115.921 36.3919 115.552 36.3054 115.176 36.2734C115.106 36.2734 115.398 37.7726 115.386 38.0234C114.539 37.8506 113.657 38.016 112.93 38.4843C112.633 38.6709 112.539 38.9684 112.942 38.7759Z" fill="#263238"/>
<path d="M114.598 39.5228C114.983 39.3944 115.444 38.041 114.761 37.9769C114.079 37.9127 112.55 38.3152 112.084 39.1844C111.67 39.9486 113.589 39.3419 113.921 39.4411C114.254 39.5403 114.324 39.6161 114.598 39.5228Z" fill="#263238"/>
<path d="M113.923 39.447C113.976 39.4664 114.03 39.482 114.086 39.4936C114.057 39.0619 113.619 38.5603 112.68 38.5661C112.439 38.7222 112.238 38.9344 112.097 39.1844C111.671 39.9428 113.584 39.3419 113.923 39.447Z" fill="#FF9ABB"/>
<path d="M106.193 32.727C106.834 30.7844 105.697 27.5585 106.654 26.6835C108.73 24.7817 113.041 28.3519 115.987 28.346C118.834 28.346 119.767 26.4968 119.236 24.1926C118.706 21.8883 116.728 20.3483 113.525 19.8991C110.218 19.4324 107.214 20.7916 105.586 21.8533C105.586 21.8533 106.292 20.6866 106.023 20.3366C105.755 19.9866 104.361 21.1008 103.941 21.5792C103.633 21.9937 103.402 22.4599 103.258 22.9559C102.832 22.8559 102.395 22.8146 101.958 22.8334C101.323 22.8841 100.726 23.1567 100.272 23.6034C100.225 23.7784 101.258 23.9009 101.987 23.9301C101.987 23.9301 100.645 25.7384 100.692 27.2785C100.738 28.8185 103.188 36.1104 103.766 36.1862C104.501 36.2796 105.93 33.5145 106.193 32.727Z" fill="#263238"/>
<path d="M102.26 23.7429C102.26 23.7429 102.319 23.7429 102.295 23.7837C101.585 24.353 101.049 25.1112 100.75 25.9712C100.467 27.0101 100.467 28.1058 100.75 29.1447C101.216 31.1631 102.22 32.9889 103.083 34.8498C103.083 34.9023 103.013 34.949 102.984 34.8965C101.934 32.9831 100.86 30.9122 100.452 28.7538C100.166 26.9104 100.551 24.787 102.26 23.7429Z" fill="#263238"/>
<path d="M106.536 25.9366C107.399 25.8215 108.276 25.871 109.12 26.0824C109.904 26.3468 110.65 26.7094 111.343 27.1616C112.928 28.108 114.747 28.5929 116.593 28.5617C116.593 28.5617 116.622 28.5967 116.593 28.5967C114.903 28.7477 113.207 28.3966 111.716 27.5875C110.961 27.1541 110.182 26.7646 109.383 26.4208C108.451 26.1637 107.484 26.0593 106.518 26.1116C106.507 26.1105 106.496 26.1071 106.486 26.1016C106.475 26.0961 106.466 26.0887 106.459 26.0798C106.452 26.0709 106.446 26.0606 106.443 26.0495C106.44 26.0384 106.438 26.0268 106.44 26.0154C106.441 26.0039 106.444 25.9927 106.45 25.9825C106.455 25.9724 106.463 25.9634 106.471 25.956C106.48 25.9487 106.491 25.9432 106.502 25.9399C106.513 25.9366 106.524 25.9355 106.536 25.9366Z" fill="#263238"/>
<path d="M107.325 21.0306C108.474 20.4458 109.702 20.0293 110.97 19.7939C112.179 19.5259 113.425 19.4726 114.651 19.6364C116.763 19.963 118.735 21.2872 119.231 23.4515C119.508 24.5602 119.364 25.7322 118.828 26.7416C118.825 26.7485 118.82 26.7546 118.814 26.7597C118.808 26.7647 118.802 26.7686 118.794 26.771C118.787 26.7734 118.779 26.7744 118.772 26.7739C118.764 26.7733 118.756 26.7713 118.749 26.7678C118.743 26.7644 118.736 26.7596 118.731 26.7538C118.726 26.7479 118.722 26.7412 118.72 26.7339C118.718 26.7266 118.717 26.7188 118.717 26.7111C118.718 26.7035 118.72 26.696 118.723 26.6891C119.162 25.76 119.289 24.714 119.085 23.7069C118.881 22.6998 118.357 21.7856 117.592 21.1006C115.841 19.6189 113.421 19.5197 111.262 19.8814C109.917 20.1347 108.601 20.5257 107.336 21.0481C107.336 21.0481 107.319 21.0364 107.325 21.0306Z" fill="#263238"/>
<path d="M105.301 34.9896C105.301 34.9896 103.224 31.7695 101.771 32.4987C100.319 33.2279 101.771 37.8305 103.44 38.5189C103.646 38.6254 103.871 38.6887 104.102 38.7047C104.334 38.7208 104.566 38.6893 104.784 38.6123C105.003 38.5352 105.203 38.4142 105.373 38.2567C105.544 38.0991 105.68 37.9085 105.773 37.6964L105.301 34.9896Z" fill="#C29EA0"/>
<path d="M102.226 33.8062C102.226 33.8062 102.197 33.8412 102.226 33.8529C103.392 34.3721 103.976 35.4804 104.337 36.6238C104.274 36.504 104.185 36.3994 104.077 36.3172C103.969 36.2351 103.844 36.1773 103.712 36.1479C103.579 36.1185 103.442 36.1182 103.309 36.147C103.177 36.1758 103.052 36.233 102.943 36.3146C102.914 36.3146 102.943 36.3846 102.972 36.3788C103.181 36.3205 103.402 36.3285 103.606 36.4017C103.81 36.4748 103.986 36.6095 104.11 36.7871C104.316 37.0838 104.488 37.4028 104.623 37.738C104.676 37.8488 104.868 37.7963 104.833 37.6738V37.6447C104.903 36.1571 103.824 34.0046 102.226 33.8062Z" fill="#263238"/>
<path d="M107.008 52.5839C107.008 52.5839 102.388 44.0612 96.2629 43.0111L96.6071 47.6779C96.6071 47.6779 100.282 47.8179 106.524 53.9256L107.008 52.5839Z" fill="#455A64"/>
<path d="M94.9449 47.6781C96.0709 47.6333 97.1932 47.8323 98.235 48.2614C99.2822 48.6523 100.281 49.1632 101.21 49.784C102.148 50.3913 103.044 51.0597 103.894 51.7849L105.142 52.9107L106.338 54.0774L106.472 54.2058L106.629 54.1358C107.801 53.5882 108.933 52.9606 110.019 52.2574C110.565 51.9107 111.091 51.5329 111.594 51.1257C112.102 50.7256 112.569 50.2762 112.988 49.784C112.023 50.6246 110.969 51.3563 109.844 51.9657C109.26 52.2807 108.724 52.549 108.152 52.8524C107.58 53.1557 106.985 53.4357 106.402 53.6632L106.694 53.7216L105.498 52.4965C105.084 52.1057 104.658 51.7265 104.232 51.3298C103.806 50.9332 103.345 50.6123 102.884 50.274C102.423 49.9356 101.951 49.609 101.449 49.329C100.469 48.7288 99.4165 48.2563 98.3167 47.9231C98.0425 47.8356 97.7334 47.7772 97.4825 47.7131C97.2317 47.6489 96.8992 47.6139 96.6308 47.5906C96.068 47.5222 95.4976 47.5518 94.9449 47.6781Z" fill="#263238"/>
<path d="M93.4282 51.6856C94.018 51.0924 94.5657 50.4589 95.0674 49.7897C95.5806 49.1259 96.0484 48.4282 96.4675 47.7013C95.876 48.2966 95.3263 48.932 94.8224 49.603C94.3098 50.2639 93.844 50.9598 93.4282 51.6856Z" fill="#263238"/>
<path d="M104.489 50.5128C103.886 52.3748 103.445 54.2856 103.171 56.2238C102.967 57.5713 102.868 62.4948 104.396 62.5123C105.924 62.5298 103.871 59.0822 103.772 56.463C103.673 53.8437 104.594 52.0587 104.88 50.542L104.489 50.5128Z" fill="#263238"/>
<path d="M110.032 50.9216C110.338 52.6686 110.493 54.4389 110.493 56.2126C110.493 57.4493 109.968 61.8827 108.597 61.7077C107.226 61.5327 109.501 58.6918 109.927 56.3584C110.353 54.025 109.746 52.2749 109.682 50.8924L110.032 50.9216Z" fill="#263238"/>
<path d="M99.2688 85.0766C104.128 85.4733 112.686 73.5729 117.528 59.4092C118.193 57.4433 105.604 48.9964 104.787 51.0556C103.749 53.6515 98.5921 67.4769 98.3705 68.2411C95.652 77.0205 96.7137 84.8666 99.2688 85.0766Z" fill="#C29EA0"/>
<path d="M103.725 53.8382C103.725 53.8382 105.475 47.7888 107.411 44.9013C109.48 41.9534 112.232 39.5514 115.432 37.9011C118.88 36.1043 128.47 34.1385 129.515 36.8044C130.465 39.2136 120.566 40.7245 120.566 40.7245C120.566 40.7245 130.401 37.516 131.008 40.6311C131.615 43.7462 120 44.8429 120 44.8429C120 44.8429 130.185 41.7745 130.308 45.0821C130.395 47.5788 119.953 49.1655 119.953 49.1655C119.953 49.1655 128.704 46.5871 128.925 49.1655C129.153 52.0006 119.592 54.0715 119.592 54.0715C119.008 60.6867 116.027 63.5918 113.659 65.4118C113.122 65.8435 103.725 53.8382 103.725 53.8382Z" fill="#C29EA0"/>
<path d="M117.083 41.5874C118.25 41.1732 119.382 40.7415 120.583 40.4207C121.785 40.0999 122.917 39.8373 124.148 39.6215C125.71 39.3217 127.301 39.2042 128.89 39.2715C126.061 39.3648 121.832 40.4382 120.659 40.7474C119.487 41.0565 118.297 41.3307 117.124 41.6282C117.083 41.6691 117.083 41.6224 117.083 41.5874Z" fill="#263238"/>
<path d="M118.15 45.8812C119.632 45.4087 121.067 44.8836 122.59 44.4811C124.112 44.0786 125.541 43.822 127.058 43.5244C127.175 43.5244 127.151 43.5711 127.058 43.6003C125.547 43.962 124.182 44.4111 122.683 44.767C121.184 45.1228 119.661 45.467 118.185 45.8987C118.139 45.922 118.127 45.887 118.15 45.8812Z" fill="#263238"/>
<path d="M118.401 49.7024C120.657 48.9254 122.987 48.3839 125.355 48.0865C125.471 48.0865 125.425 48.1506 125.308 48.1798C122.975 48.6757 121.166 49.0432 118.43 49.784C118.389 49.7957 118.354 49.7199 118.401 49.7024Z" fill="#263238"/>
<path d="M105.102 49.784C105.549 48.2222 106.215 46.7316 107.079 45.3563C107.934 43.9684 108.944 42.6826 110.09 41.5237C111.236 40.3628 112.54 39.3691 113.963 38.572C115.387 37.7959 116.894 37.1815 118.455 36.7403C116.961 37.3346 115.516 38.0445 114.132 38.8637C112.764 39.6866 111.509 40.6848 110.399 41.8329C109.265 42.962 108.249 44.2031 107.365 45.5372C106.913 46.1988 106.5 46.8864 106.129 47.5964C105.74 48.3027 105.397 49.0334 105.102 49.784Z" fill="#263238"/>
<path d="M103.375 52.6077L116.389 67.2556C116.389 67.2556 104.722 85.9228 99.3438 85.8119C96.812 85.7594 94.5428 76.6533 96.8937 69.5481C98.3229 65.2605 103.375 52.6077 103.375 52.6077Z" fill="#455A64"/>
<path d="M113.088 70.0726C111.629 68.5267 110.253 66.905 108.882 65.2833C107.511 63.6616 106.128 62.0399 104.798 60.3773C104.046 59.444 103.287 58.5106 102.57 57.5481C102.57 57.5189 102.57 57.4839 102.611 57.5072C104.069 59.0473 105.452 60.6632 106.834 62.2732C108.217 63.8832 109.582 65.5225 110.918 67.1617C111.682 68.0892 112.429 69.0342 113.146 69.9968C113.199 70.0434 113.129 70.1134 113.088 70.0726Z" fill="#263238"/>
<path d="M103.946 53.255L103.363 52.6367H103.439C102.745 54.6493 102.004 56.6443 101.275 58.6394L98.9994 64.5954C98.2469 66.5788 97.4361 68.5621 96.8469 70.5689C96.5693 71.5865 96.3588 72.6213 96.2169 73.6665C96.0535 74.7165 95.9602 75.7724 95.896 76.8341C95.7822 74.6967 95.9589 72.5538 96.421 70.4639C96.6736 69.4222 96.9912 68.3974 97.3719 67.3955L98.4628 64.3912C99.2211 62.402 100.009 60.4244 100.796 58.4527C101.584 56.481 102.441 54.5326 103.322 52.6192V52.5492L103.369 52.6075L103.946 53.255Z" fill="#263238"/>
<path d="M92.0941 62.7807C92.372 67.099 92.9116 71.3965 93.71 75.6494C94.1071 77.757 94.6808 79.8274 95.425 81.8388C95.7878 82.8354 96.2822 83.7791 96.8951 84.6447C97.1985 85.0572 97.5669 85.4178 97.9859 85.7122C98.3869 85.9858 98.8662 86.121 99.351 86.0972C99.8496 86.0131 100.328 85.837 100.763 85.578C101.22 85.3157 101.659 85.0213 102.075 84.6972C102.911 84.0305 103.708 83.3156 104.461 82.5563C105.983 81.0296 107.42 79.4211 108.766 77.7378C110.125 76.0578 111.42 74.3252 112.669 72.5635C113.917 70.8018 115.125 69.0051 116.239 67.1617V67.36C116.023 67.0975 115.819 66.8292 115.621 66.555C115.422 66.2808 115.212 66.0125 115.037 65.7325C115.294 65.9542 115.539 66.1933 115.784 66.4267C116.029 66.66 116.28 66.8875 116.513 67.1325L116.595 67.22L116.531 67.3367C114.351 71.0938 111.892 74.6818 109.175 78.0703C107.829 79.7799 106.39 81.4139 104.864 82.9646C104.095 83.7464 103.275 84.4754 102.408 85.1464C101.968 85.485 101.504 85.7911 101.019 86.0622C100.522 86.3606 99.9711 86.5588 99.3977 86.6456C98.7922 86.6828 98.1919 86.5142 97.6943 86.1672C97.2228 85.8385 96.8106 85.4322 96.4751 84.9655C95.8394 84.0658 95.3273 83.0848 94.9525 82.0488C94.2235 79.9934 93.6788 77.8772 93.325 75.7253C92.6005 71.4461 92.1891 67.1198 92.0941 62.7807Z" fill="#263238"/>
<path d="M91.7146 63.9651C91.9479 64.6593 92.1638 65.3418 92.3446 66.0535C92.161 65.7348 92.0142 65.3962 91.9071 65.0443C91.7965 64.6944 91.7317 64.3316 91.7146 63.9651Z" fill="#263238"/>
<path d="M119.12 0.250641V18.6845H121.704V23.153L126.179 18.6845H150.714V0.250641H119.12Z" fill="white"/>
<path d="M119.114 0.250841L119.289 18.6847L119.114 18.5097H121.704H121.891V18.7022V23.1707L121.523 23.019L125.968 18.5272L126.044 18.4514H126.149L150.691 18.4164L150.405 18.7022L150.44 0.26834L150.691 0.513349L134.94 0.414178L119.114 0.250841ZM119.114 0.250841L134.865 0.0991706L150.726 0H150.971V0.250841L151.006 18.6847V18.9705H150.72L126.178 18.9355L126.353 18.8597L121.856 23.3107L121.482 23.6782V23.1532V18.6847L121.669 18.8714H119.079H118.904V18.6964L119.114 0.250841Z" fill="#263238"/>
<path d="M140.89 9.46774C140.89 9.76425 140.978 10.0541 141.143 10.3007C141.308 10.5472 141.542 10.7394 141.816 10.8528C142.09 10.9663 142.391 10.996 142.682 10.9381C142.973 10.8803 143.24 10.7375 143.449 10.5278C143.659 10.3182 143.802 10.051 143.86 9.76022C143.918 9.4694 143.888 9.16796 143.774 8.89402C143.661 8.62007 143.469 8.38593 143.222 8.22119C142.976 8.05646 142.686 7.96853 142.389 7.96853C141.992 7.96853 141.61 8.12648 141.329 8.40764C141.048 8.68879 140.89 9.07012 140.89 9.46774Z" fill="#263238"/>
<path d="M133.419 9.46774C133.419 9.76425 133.507 10.0541 133.672 10.3007C133.836 10.5472 134.07 10.7394 134.344 10.8528C134.618 10.9663 134.92 10.996 135.211 10.9381C135.501 10.8803 135.769 10.7375 135.978 10.5278C136.188 10.3182 136.331 10.051 136.389 9.76022C136.446 9.4694 136.417 9.16796 136.303 8.89402C136.19 8.62007 135.998 8.38593 135.751 8.22119C135.505 8.05646 135.215 7.96853 134.918 7.96853C134.521 7.96853 134.139 8.12648 133.858 8.40764C133.577 8.68879 133.419 9.07012 133.419 9.46774Z" fill="#263238"/>
<path d="M125.944 9.46774C125.944 9.76425 126.032 10.0541 126.197 10.3007C126.362 10.5472 126.596 10.7394 126.87 10.8528C127.144 10.9663 127.445 10.996 127.736 10.9381C128.027 10.8803 128.294 10.7375 128.504 10.5278C128.713 10.3182 128.856 10.051 128.914 9.76022C128.972 9.4694 128.942 9.16796 128.829 8.89402C128.715 8.62007 128.523 8.38593 128.277 8.22119C128.03 8.05646 127.74 7.96853 127.444 7.96853C127.046 7.96853 126.665 8.12648 126.384 8.40764C126.102 8.68879 125.944 9.07012 125.944 9.46774Z" fill="#263238"/>
</svg>
