<svg width="24" height="24" viewBox="0 0 24 24" fill="none" xmlns="http://www.w3.org/2000/svg">
<path d="M15.7734 14.9137C16.181 14.8271 16.5648 15.138 16.5648 15.5546V20.5424C16.5648 21.0947 16.117 21.5424 15.5648 21.5424H4.42236C3.87008 21.5424 3.42236 21.0947 3.42236 20.5424V5.45441C3.42236 4.90212 3.87008 4.45441 4.42236 4.45441H8.32916C8.88166 4.45441 9.18611 5.09621 8.83659 5.5241C8.71215 5.67644 8.52586 5.76481 8.32916 5.76481H5.73756C5.18528 5.76481 4.73756 6.21252 4.73756 6.76481V19.2272C4.73756 19.7795 5.18528 20.2272 5.73756 20.2272H14.2544C14.8066 20.2272 15.2544 19.7795 15.2544 19.2272V15.5546C15.2544 15.2452 15.4708 14.978 15.7734 14.9137Z" fill="#AEAEB2"/>
<path d="M15.7734 14.9137C16.181 14.8271 16.5648 15.138 16.5648 15.5546V20.5424C16.5648 21.0947 16.117 21.5424 15.5648 21.5424H4.42236C3.87008 21.5424 3.42236 21.0947 3.42236 20.5424V12.9984V5.45441C3.42236 4.90212 3.87008 4.45441 4.42236 4.45441H8.32916C8.88166 4.45441 9.18611 5.09621 8.83659 5.5241C8.71215 5.67644 8.52586 5.76481 8.32916 5.76481H5.73756C5.18528 5.76481 4.73756 6.21252 4.73756 6.76481V19.2272C4.73756 19.7795 5.18528 20.2272 5.73756 20.2272H14.2544C14.8066 20.2272 15.2544 19.7795 15.2544 19.2272V15.5546C15.2544 15.2452 15.4708 14.978 15.7734 14.9137Z" fill="#AEAEB2"/>
<path d="M13.2768 16.2816H6.70557V17.5968H13.2768V16.2816Z" fill="#AEAEB2"/>
<path d="M11.3088 14.9664H6.70557V13.6512H9.83037" fill="#AEAEB2"/>
<path d="M8.51517 12.336H6.70557V11.0208H7.96317" fill="#AEAEB2"/>
<path d="M14.0062 15.7824C10.3486 15.7824 7.37744 12.8064 7.37744 9.15358C7.37744 5.49598 10.3534 2.52478 14.0062 2.52478C17.6638 2.52478 20.635 5.50078 20.635 9.15358C20.635 12.8112 17.659 15.7824 14.0062 15.7824ZM14.0062 3.83518C11.0734 3.83518 8.69264 6.22078 8.69264 9.15358C8.69264 12.0864 11.0782 14.4672 14.0062 14.4672C16.939 14.4672 19.3246 12.0816 19.3246 9.15358C19.3198 6.22078 16.9342 3.83518 14.0062 3.83518Z" fill="#AEAEB2"/>
<path d="M13.0177 12.264L9.82568 9.07199L10.7569 8.14079L13.0177 10.4064L16.9153 6.50879L17.8465 7.43519L13.0177 12.264Z" fill="#AEAEB2"/>
</svg>
